HubotSans-BlackItalic.ufo
<glyph name="exclam" format="2">
  <advance width="293"/>
  <unicode hex="0021"/>
  <outline>
    <contour>
      <point x="91" y="252" type="line"/>
      <point x="197" y="252" type="line"/>
      <point x="294" y="482" type="line"/>
      <point x="347" y="729" type="line"/>
      <point x="139" y="729" type="line"/>
      <point x="87" y="482" type="line"/>
    </contour>
    <contour>
      <point x="-9" y="0" type="line"/>
      <point x="188" y="0" type="line"/>
      <point x="223" y="170" type="line"/>
      <point x="26" y="170" type="line"/>
    </contour>
  </outline>
</glyph>
<glyph name="numbersign" format="2">
  <advance width="786"/>
  <unicode hex="0023"/>
  <outline>
    <contour>
      <point x="81" y="0" type="line"/>
      <point x="275" y="0" type="line"/>
      <point x="306" y="150" type="line"/>
      <point x="430" y="150" type="line"/>
      <point x="399" y="0" type="line"/>
      <point x="590" y="0" type="line"/>
      <point x="620" y="150" type="line"/>
      <point x="729" y="150" type="line"/>
      <point x="764" y="313" type="line"/>
      <point x="655" y="313" type="line"/>
      <point x="677" y="417" type="line"/>
      <point x="787" y="417" type="line"/>
      <point x="821" y="578" type="line"/>
      <point x="712" y="578" type="line"/>
      <point x="744" y="729" type="line"/>
      <point x="553" y="729" type="line"/>
      <point x="520" y="578" type="line"/>
      <point x="397" y="578" type="line"/>
      <point x="429" y="729" type="line"/>
      <point x="235" y="729" type="line"/>
      <point x="203" y="578" type="line"/>
      <point x="95" y="578" type="line"/>
      <point x="61" y="417" type="line"/>
      <point x="169" y="417" type="line"/>
      <point x="147" y="313" type="line"/>
      <point x="39" y="313" type="line"/>
      <point x="4" y="150" type="line"/>
      <point x="112" y="150" type="line"/>
    </contour>
    <contour>
      <point x="341" y="313" type="line"/>
      <point x="363" y="417" type="line"/>
      <point x="487" y="417" type="line"/>
      <point x="465" y="313" type="line"/>
    </contour>
  </outline>
</glyph>
<glyph name="percent" format="2">
  <advance width="1026"/>
  <unicode hex="0025"/>
  <outline>
    <contour>
      <point x="91" y="0" type="line"/>
      <point x="267" y="0" type="line"/>
      <point x="974" y="729" type="line"/>
      <point x="797" y="729" type="line"/>
    </contour>
    <contour>
      <point x="296" y="367" type="curve" smooth="yes"/>
      <point x="411" y="367"/>
      <point x="493" y="427"/>
      <point x="512" y="519" type="curve" smooth="yes"/>
      <point x="513" y="525" type="line" smooth="yes"/>
      <point x="540" y="656"/>
      <point x="444" y="740"/>
      <point x="310" y="740" type="curve" smooth="yes"/>
      <point x="196" y="740"/>
      <point x="112" y="679"/>
      <point x="94" y="587" type="curve" smooth="yes"/>
      <point x="93" y="581" type="line" smooth="yes"/>
      <point x="66" y="449"/>
      <point x="163" y="367"/>
    </contour>
    <contour>
      <point x="299" y="488" type="curve" smooth="yes"/>
      <point x="262" y="488"/>
      <point x="237" y="510"/>
      <point x="246" y="545" type="curve" smooth="yes"/>
      <point x="252" y="575" type="line" smooth="yes"/>
      <point x="259" y="604"/>
      <point x="277" y="619"/>
      <point x="307" y="619" type="curve" smooth="yes"/>
      <point x="344" y="619"/>
      <point x="370" y="596"/>
      <point x="361" y="560" type="curve" smooth="yes"/>
      <point x="355" y="532" type="line" smooth="yes"/>
      <point x="348" y="502"/>
      <point x="330" y="488"/>
    </contour>
    <contour>
      <point x="755" y="-10" type="curve" smooth="yes"/>
      <point x="870" y="-10"/>
      <point x="953" y="50"/>
      <point x="971" y="143" type="curve" smooth="yes"/>
      <point x="972" y="149" type="line" smooth="yes"/>
      <point x="999" y="281"/>
      <point x="903" y="364"/>
      <point x="770" y="364" type="curve" smooth="yes"/>
      <point x="654" y="364"/>
      <point x="572" y="302"/>
      <point x="553" y="211" type="curve" smooth="yes"/>
      <point x="552" y="205" type="line" smooth="yes"/>
      <point x="525" y="73"/>
      <point x="621" y="-10"/>
    </contour>
    <contour>
      <point x="758" y="111" type="curve" smooth="yes"/>
      <point x="721" y="111"/>
      <point x="696" y="134"/>
      <point x="705" y="169" type="curve" smooth="yes"/>
      <point x="711" y="199" type="line" smooth="yes"/>
      <point x="718" y="227"/>
      <point x="735" y="242"/>
      <point x="766" y="242" type="curve" smooth="yes"/>
      <point x="804" y="242"/>
      <point x="829" y="220"/>
      <point x="820" y="183" type="curve" smooth="yes"/>
      <point x="814" y="155" type="line" smooth="yes"/>
      <point x="807" y="125"/>
      <point x="789" y="111"/>
    </contour>
  </outline>
</glyph>
<glyph name="ampersand" format="2">
  <advance width="910"/>
  <unicode hex="0026"/>
  <outline>
    <contour>
      <point x="254" y="-12" type="curve" smooth="yes"/>
      <point x="342" y="-12"/>
      <point x="438" y="17"/>
      <point x="490" y="66" type="curve"/>
      <point x="552" y="0" type="line"/>
      <point x="825" y="0" type="line"/>
      <point x="635" y="201" type="line"/>
      <point x="646" y="217"/>
      <point x="657" y="234"/>
      <point x="667" y="252" type="curve"/>
      <point x="798" y="252" type="line"/>
      <point x="829" y="399" type="line"/>
      <point x="575" y="399" type="line"/>
      <point x="569" y="380" type="line" smooth="yes"/>
      <point x="562" y="354"/>
      <point x="552" y="331"/>
      <point x="537" y="303" type="curve"/>
      <point x="474" y="370" type="line"/>
      <point x="576" y="400"/>
      <point x="630" y="462"/>
      <point x="640" y="525" type="curve" smooth="yes"/>
      <point x="642" y="538" type="line" smooth="yes"/>
      <point x="664" y="673"/>
      <point x="543" y="737"/>
      <point x="411" y="737" type="curve" smooth="yes"/>
      <point x="278" y="737"/>
      <point x="179" y="678"/>
      <point x="160" y="574" type="curve" smooth="yes"/>
      <point x="157" y="552" type="line" smooth="yes"/>
      <point x="147" y="504"/>
      <point x="165" y="447"/>
      <point x="196" y="407" type="curve"/>
      <point x="191" y="395" type="line"/>
      <point x="105" y="366"/>
      <point x="39" y="306"/>
      <point x="25" y="237" type="curve" smooth="yes"/>
      <point x="21" y="219" type="line" smooth="yes"/>
      <point x="-8" y="80"/>
      <point x="91" y="-12"/>
    </contour>
    <contour>
      <point x="304" y="144" type="curve" smooth="yes"/>
      <point x="251" y="144"/>
      <point x="222" y="174"/>
      <point x="230" y="218" type="curve" smooth="yes"/>
      <point x="232" y="228" type="line" smooth="yes"/>
      <point x="236" y="251"/>
      <point x="254" y="277"/>
      <point x="282" y="289" type="curve"/>
      <point x="386" y="178" type="line"/>
      <point x="367" y="157"/>
      <point x="334" y="144"/>
    </contour>
    <contour>
      <point x="386" y="453" type="curve"/>
      <point x="365" y="478"/>
      <point x="346" y="508"/>
      <point x="353" y="541" type="curve" smooth="yes"/>
      <point x="357" y="560" type="line" smooth="yes"/>
      <point x="362" y="584"/>
      <point x="380" y="601"/>
      <point x="411" y="601" type="curve" smooth="yes"/>
      <point x="442" y="601"/>
      <point x="467" y="584"/>
      <point x="458" y="543" type="curve" smooth="yes"/>
      <point x="454" y="525" type="line" smooth="yes"/>
      <point x="448" y="499"/>
      <point x="428" y="475"/>
    </contour>
  </outline>
</glyph>
<glyph name="quotesingle" format="2">
  <advance width="234"/>
  <unicode hex="0027"/>
  <anchor x="-45" y="0" name="#entry"/>
  <anchor x="206" y="0" name="#exit"/>
  <outline>
    <contour>
      <point x="85" y="343" type="line"/>
      <point x="174" y="343" type="line"/>
      <point x="268" y="549" type="line"/>
      <point x="306" y="729" type="line"/>
      <point x="122" y="729" type="line"/>
      <point x="84" y="549" type="line"/>
    </contour>
  </outline>
</glyph>
<glyph name="parenleft" format="2">
  <advance width="417"/>
  <unicode hex="0028"/>
  <outline>
    <contour>
      <point x="130" y="-167" type="curve"/>
      <point x="300" y="-167" type="line"/>
      <point x="274" y="-85"/>
      <point x="258" y="20"/>
      <point x="258" y="141" type="curve" smooth="yes"/>
      <point x="258" y="383"/>
      <point x="333" y="608"/>
      <point x="494" y="793" type="curve"/>
      <point x="316" y="793" type="line"/>
      <point x="143" y="667"/>
      <point x="33" y="427"/>
      <point x="33" y="194" type="curve" smooth="yes"/>
      <point x="33" y="60"/>
      <point x="72" y="-79"/>
    </contour>
  </outline>
</glyph>
<glyph name="asterisk" format="2">
  <advance width="357"/>
  <unicode hex="002A"/>
  <outline>
    <contour>
      <point x="197" y="407" type="line"/>
      <point x="288" y="406" type="line"/>
      <point x="288" y="452" type="line"/>
      <point x="266" y="525" type="line"/>
      <point x="318" y="472" type="line"/>
      <point x="361" y="446" type="line"/>
      <point x="405" y="526" type="line"/>
      <point x="368" y="545" type="line"/>
      <point x="290" y="567" type="line"/>
      <point x="363" y="588" type="line"/>
      <point x="404" y="610" type="line"/>
      <point x="364" y="687" type="line"/>
      <point x="321" y="666" type="line"/>
      <point x="266" y="611" type="line"/>
      <point x="287" y="682" type="line"/>
      <point x="289" y="729" type="line"/>
      <point x="199" y="731" type="line"/>
      <point x="198" y="686" type="line"/>
      <point x="218" y="613" type="line"/>
      <point x="168" y="663" type="line"/>
      <point x="123" y="689" type="line"/>
      <point x="79" y="614" type="line"/>
      <point x="119" y="589" type="line"/>
      <point x="195" y="569" type="line"/>
      <point x="124" y="547" type="line"/>
      <point x="80" y="528" type="line"/>
      <point x="121" y="447" type="line"/>
      <point x="165" y="469" type="line"/>
      <point x="218" y="525" type="line"/>
      <point x="200" y="456" type="line"/>
    </contour>
  </outline>
</glyph>
<glyph name="plus" format="2">
  <advance width="720"/>
  <unicode hex="002B"/>
  <outline>
    <contour>
      <point x="231" y="104" type="line"/>
      <point x="417" y="104" type="line"/>
      <point x="526" y="617" type="line"/>
      <point x="341" y="617" type="line"/>
    </contour>
    <contour>
      <point x="104" y="273" type="line"/>
      <point x="616" y="273" type="line"/>
      <point x="653" y="450" type="line"/>
      <point x="142" y="450" type="line"/>
    </contour>
  </outline>
</glyph>
<glyph name="comma" format="2">
  <advance width="294"/>
  <unicode hex="002C"/>
  <anchor x="-8" y="0" name="#entry"/>
  <anchor x="274" y="0" name="#exit"/>
  <anchor x="205" y="545" name="top"/>
  <outline>
    <contour>
      <point x="-78" y="-165" type="line"/>
      <point x="74" y="-165" type="line"/>
      <point x="206" y="6" type="line"/>
      <point x="243" y="179" type="line"/>
      <point x="11" y="179" type="line"/>
      <point x="-27" y="0" type="line"/>
      <point x="86" y="0" type="line"/>
    </contour>
  </outline>
</glyph>
<glyph name="hyphen" format="2">
  <advance width="427"/>
  <unicode hex="002D"/>
  <outline>
    <contour>
      <point x="26" y="236" type="line"/>
      <point x="389" y="236" type="line"/>
      <point x="422" y="410" type="line"/>
      <point x="59" y="410" type="line"/>
    </contour>
  </outline>
</glyph>
<glyph name="period" format="2">
  <advance width="294"/>
  <unicode hex="002E"/>
  <anchor x="-60" y="0" name="#entry"/>
  <anchor x="240" y="0" name="#exit"/>
  <anchor x="128" y="184" name="_top"/>
  <anchor x="205" y="545" name="top"/>
  <outline>
    <contour>
      <point x="-26" y="0" type="line"/>
      <point x="205" y="0" type="line"/>
      <point x="244" y="184" type="line"/>
      <point x="12" y="184" type="line"/>
    </contour>
  </outline>
</glyph>
<glyph name="slash" format="2">
  <advance width="602"/>
  <unicode hex="002F"/>
  <outline>
    <contour>
      <point x="-74" y="-82" type="line"/>
      <point x="161" y="-82" type="line"/>
      <point x="676" y="729" type="line"/>
      <point x="438" y="729" type="line"/>
    </contour>
  </outline>
</glyph>
<glyph name="zero" format="2">
  <advance width="810"/>
  <unicode hex="0030"/>
  <note>
zero
</note>
  <outline>
    <contour>
      <point x="396" y="-12" type="curve" smooth="yes"/>
      <point x="592" y="-12"/>
      <point x="739" y="89"/>
      <point x="782" y="297" type="curve" smooth="yes"/>
      <point x="787" y="318" type="line" smooth="yes"/>
      <point x="837" y="565"/>
      <point x="701" y="740"/>
      <point x="453" y="740" type="curve" smooth="yes"/>
      <point x="257" y="740"/>
      <point x="110" y="639"/>
      <point x="67" y="431" type="curve" smooth="yes"/>
      <point x="63" y="411" type="line" smooth="yes"/>
      <point x="12" y="164"/>
      <point x="148" y="-12"/>
    </contour>
    <contour>
      <point x="412" y="176" type="curve" smooth="yes"/>
      <point x="314" y="176"/>
      <point x="259" y="230"/>
      <point x="281" y="329" type="curve" smooth="yes"/>
      <point x="304" y="438" type="line" smooth="yes"/>
      <point x="322" y="518"/>
      <point x="371" y="553"/>
      <point x="438" y="553" type="curve" smooth="yes"/>
      <point x="536" y="553"/>
      <point x="591" y="500"/>
      <point x="569" y="400" type="curve" smooth="yes"/>
      <point x="545" y="290" type="line" smooth="yes"/>
      <point x="529" y="211"/>
      <point x="480" y="176"/>
    </contour>
    <contour>
      <point x="223" y="294" type="line"/>
      <point x="597" y="294" type="line"/>
      <point x="628" y="435" type="line"/>
      <point x="253" y="435" type="line"/>
    </contour>
  </outline>
</glyph>
<glyph name="one" format="2">
  <advance width="531"/>
  <unicode hex="0031"/>
  <note>
one
</note>
  <outline>
    <contour>
      <point x="169" y="0" type="line"/>
      <point x="420" y="0" type="line"/>
      <point x="572" y="729" type="line"/>
      <point x="364" y="729" type="line"/>
      <point x="309" y="619" type="line"/>
      <point x="105" y="619" type="line"/>
      <point x="67" y="437" type="line"/>
      <point x="260" y="437" type="line"/>
    </contour>
  </outline>
</glyph>
<glyph name="two" format="2">
  <advance width="748"/>
  <unicode hex="0032"/>
  <note>
two
</note>
  <outline>
    <contour>
      <point x="-3" y="0" type="line"/>
      <point x="658" y="0" type="line"/>
      <point x="694" y="177" type="line"/>
      <point x="445" y="177" type="line"/>
      <point x="401" y="176" type="line"/>
      <point x="400" y="183" type="line"/>
      <point x="448" y="207" type="line"/>
      <point x="543" y="257" type="line" smooth="yes"/>
      <point x="664" y="321"/>
      <point x="741" y="390"/>
      <point x="742" y="504" type="curve" smooth="yes"/>
      <point x="743" y="657"/>
      <point x="619" y="741"/>
      <point x="438" y="741" type="curve" smooth="yes"/>
      <point x="247" y="741"/>
      <point x="98" y="643"/>
      <point x="70" y="481" type="curve"/>
      <point x="308" y="481" type="line"/>
      <point x="313" y="531"/>
      <point x="355" y="563"/>
      <point x="414" y="563" type="curve" smooth="yes"/>
      <point x="470" y="563"/>
      <point x="501" y="533"/>
      <point x="496" y="492" type="curve" smooth="yes"/>
      <point x="495" y="483" type="line" smooth="yes"/>
      <point x="492" y="445"/>
      <point x="459" y="416"/>
      <point x="393" y="377" type="curve" smooth="yes"/>
      <point x="35" y="168" type="line"/>
    </contour>
  </outline>
</glyph>
<glyph name="three" format="2">
  <advance width="759"/>
  <unicode hex="0033"/>
  <note>
three
</note>
  <outline>
    <contour>
      <point x="358" y="-11" type="curve" smooth="yes"/>
      <point x="574" y="-11"/>
      <point x="712" y="74"/>
      <point x="713" y="208" type="curve" smooth="yes"/>
      <point x="713" y="279"/>
      <point x="665" y="341"/>
      <point x="594" y="360" type="curve"/>
      <point x="595" y="368" type="line"/>
      <point x="693" y="395"/>
      <point x="754" y="462"/>
      <point x="755" y="542" type="curve" smooth="yes"/>
      <point x="755" y="670"/>
      <point x="639" y="741"/>
      <point x="444" y="741" type="curve" smooth="yes"/>
      <point x="249" y="741"/>
      <point x="111" y="654"/>
      <point x="89" y="516" type="curve"/>
      <point x="316" y="516" type="line"/>
      <point x="326" y="555"/>
      <point x="365" y="577"/>
      <point x="425" y="577" type="curve" smooth="yes"/>
      <point x="481" y="577"/>
      <point x="524" y="551"/>
      <point x="513" y="508" type="curve" smooth="yes"/>
      <point x="511" y="497" type="line" smooth="yes"/>
      <point x="506" y="472"/>
      <point x="477" y="445"/>
      <point x="411" y="445" type="curve" smooth="yes"/>
      <point x="331" y="445" type="line"/>
      <point x="294" y="299" type="line"/>
      <point x="370" y="299" type="line" smooth="yes"/>
      <point x="443" y="299"/>
      <point x="472" y="275"/>
      <point x="462" y="226" type="curve" smooth="yes"/>
      <point x="460" y="216" type="line" smooth="yes"/>
      <point x="453" y="180"/>
      <point x="415" y="158"/>
      <point x="358" y="158" type="curve" smooth="yes"/>
      <point x="290" y="158"/>
      <point x="250" y="183"/>
      <point x="247" y="224" type="curve"/>
      <point x="18" y="224" type="line"/>
      <point x="17" y="80"/>
      <point x="148" y="-11"/>
    </contour>
  </outline>
</glyph>
<glyph name="four" format="2">
  <advance width="813"/>
  <unicode hex="0034"/>
  <note>
four
</note>
  <outline>
    <contour>
      <point x="1" y="135" type="line"/>
      <point x="753" y="135" type="line"/>
      <point x="792" y="319" type="line"/>
      <point x="324" y="319" type="line"/>
      <point x="326" y="328" type="line"/>
      <point x="665" y="729" type="line"/>
      <point x="399" y="729" type="line"/>
      <point x="32" y="282" type="line"/>
    </contour>
    <contour>
      <point x="369" y="0" type="line"/>
      <point x="618" y="0" type="line"/>
      <point x="712" y="451" type="line"/>
      <point x="511" y="451" type="line"/>
      <point x="422" y="258" type="line"/>
    </contour>
  </outline>
</glyph>
<glyph name="five" format="2">
  <advance width="769"/>
  <unicode hex="0035"/>
  <note>
five
</note>
  <outline>
    <contour>
      <point x="353" y="-12" type="curve" smooth="yes"/>
      <point x="542" y="-12"/>
      <point x="730" y="72"/>
      <point x="730" y="255" type="curve" smooth="yes"/>
      <point x="730" y="390"/>
      <point x="638" y="473"/>
      <point x="496" y="473" type="curve" smooth="yes"/>
      <point x="436" y="473"/>
      <point x="379" y="463"/>
      <point x="338" y="436" type="curve"/>
      <point x="325" y="436" type="line"/>
      <point x="362" y="548" type="line"/>
      <point x="743" y="548" type="line"/>
      <point x="781" y="729" type="line"/>
      <point x="175" y="729" type="line"/>
      <point x="45" y="282" type="line"/>
      <point x="260" y="276" type="line"/>
      <point x="283" y="308"/>
      <point x="328" y="328"/>
      <point x="384" y="328" type="curve" smooth="yes"/>
      <point x="449" y="328"/>
      <point x="490" y="291"/>
      <point x="479" y="242" type="curve" smooth="yes"/>
      <point x="478" y="234" type="line" smooth="yes"/>
      <point x="470" y="185"/>
      <point x="422" y="157"/>
      <point x="358" y="157" type="curve" smooth="yes"/>
      <point x="308" y="157"/>
      <point x="267" y="173"/>
      <point x="256" y="207" type="curve"/>
      <point x="13" y="207" type="line"/>
      <point x="19" y="75"/>
      <point x="155" y="-12"/>
    </contour>
  </outline>
</glyph>
<glyph name="six" format="2">
  <advance width="797"/>
  <unicode hex="0036"/>
  <note>
six
</note>
  <outline>
    <contour>
      <point x="393" y="-12" type="curve" smooth="yes"/>
      <point x="596" y="-12"/>
      <point x="760" y="81"/>
      <point x="760" y="262" type="curve" smooth="yes"/>
      <point x="760" y="387"/>
      <point x="655" y="470"/>
      <point x="507" y="470" type="curve" smooth="yes"/>
      <point x="441" y="470"/>
      <point x="371" y="456"/>
      <point x="323" y="421" type="curve"/>
      <point x="309" y="421" type="line"/>
      <point x="317" y="448"/>
      <point x="322" y="467"/>
      <point x="327" y="486" type="curve" smooth="yes"/>
      <point x="341" y="546"/>
      <point x="385" y="579"/>
      <point x="465" y="579" type="curve" smooth="yes"/>
      <point x="522" y="579"/>
      <point x="564" y="558"/>
      <point x="574" y="522" type="curve"/>
      <point x="803" y="522" type="line"/>
      <point x="792" y="653"/>
      <point x="670" y="741"/>
      <point x="470" y="741" type="curve" smooth="yes"/>
      <point x="265" y="741"/>
      <point x="112" y="649"/>
      <point x="73" y="454" type="curve" smooth="yes"/>
      <point x="58" y="382" type="line" smooth="yes"/>
      <point x="12" y="155"/>
      <point x="123" y="-12"/>
    </contour>
    <contour>
      <point x="398" y="167" type="curve" smooth="yes"/>
      <point x="326" y="167"/>
      <point x="272" y="210"/>
      <point x="283" y="276" type="curve" smooth="yes"/>
      <point x="287" y="294" type="line"/>
      <point x="320" y="318"/>
      <point x="365" y="332"/>
      <point x="410" y="332" type="curve" smooth="yes"/>
      <point x="468" y="332"/>
      <point x="517" y="296"/>
      <point x="507" y="247" type="curve" smooth="yes"/>
      <point x="505" y="238" type="line" smooth="yes"/>
      <point x="496" y="192"/>
      <point x="458" y="167"/>
    </contour>
  </outline>
</glyph>
<glyph name="seven" format="2">
  <advance width="755"/>
  <unicode hex="0037"/>
  <note>
seven
</note>
  <outline>
    <contour>
      <point x="73" y="0" type="line"/>
      <point x="363" y="0" type="line"/>
      <point x="779" y="534" type="line"/>
      <point x="821" y="729" type="line"/>
      <point x="132" y="729" type="line"/>
      <point x="71" y="441" type="line"/>
      <point x="245" y="441" type="line"/>
      <point x="266" y="545" type="line"/>
      <point x="507" y="545" type="line"/>
      <point x="506" y="528" type="line"/>
    </contour>
  </outline>
</glyph>
<glyph name="eight" format="2">
  <advance width="795"/>
  <unicode hex="0038"/>
  <note>
eight
</note>
  <outline>
    <contour>
      <point x="381" y="-12" type="curve" smooth="yes"/>
      <point x="605" y="-12"/>
      <point x="746" y="72"/>
      <point x="747" y="206" type="curve" smooth="yes"/>
      <point x="747" y="285"/>
      <point x="691" y="345"/>
      <point x="617" y="367" type="curve"/>
      <point x="618" y="372" type="line"/>
      <point x="716" y="389"/>
      <point x="795" y="447"/>
      <point x="796" y="539" type="curve" smooth="yes"/>
      <point x="797" y="666"/>
      <point x="666" y="741"/>
      <point x="444" y="741" type="curve" smooth="yes"/>
      <point x="241" y="741"/>
      <point x="113" y="665"/>
      <point x="112" y="543" type="curve" smooth="yes"/>
      <point x="112" y="482"/>
      <point x="152" y="429"/>
      <point x="223" y="405" type="curve"/>
      <point x="222" y="399" type="line"/>
      <point x="97" y="379"/>
      <point x="18" y="301"/>
      <point x="17" y="198" type="curve" smooth="yes"/>
      <point x="16" y="65"/>
      <point x="151" y="-12"/>
    </contour>
    <contour>
      <point x="389" y="155" type="curve" smooth="yes"/>
      <point x="308" y="155"/>
      <point x="267" y="185"/>
      <point x="279" y="235" type="curve" smooth="yes"/>
      <point x="282" y="248" type="line" smooth="yes"/>
      <point x="290" y="283"/>
      <point x="329" y="303"/>
      <point x="389" y="303" type="curve" smooth="yes"/>
      <point x="464" y="303"/>
      <point x="503" y="276"/>
      <point x="496" y="227" type="curve" smooth="yes"/>
      <point x="494" y="213" type="line" smooth="yes"/>
      <point x="487" y="175"/>
      <point x="451" y="155"/>
    </contour>
    <contour>
      <point x="443" y="443" type="curve" smooth="yes"/>
      <point x="378" y="443"/>
      <point x="344" y="469"/>
      <point x="352" y="513" type="curve" smooth="yes"/>
      <point x="354" y="524" type="line" smooth="yes"/>
      <point x="360" y="555"/>
      <point x="396" y="574"/>
      <point x="448" y="574" type="curve" smooth="yes"/>
      <point x="517" y="574"/>
      <point x="548" y="550"/>
      <point x="540" y="505" type="curve" smooth="yes"/>
      <point x="538" y="493" type="line" smooth="yes"/>
      <point x="531" y="460"/>
      <point x="496" y="443"/>
    </contour>
  </outline>
</glyph>
<glyph name="equal" format="2">
  <advance width="720"/>
  <unicode hex="003D"/>
  <anchor x="379" y="361" name="center"/>
  <outline>
    <contour>
      <point x="113" y="402" type="line"/>
      <point x="662" y="402" type="line"/>
      <point x="701" y="581" type="line"/>
      <point x="151" y="581" type="line"/>
    </contour>
    <contour>
      <point x="59" y="148" type="line"/>
      <point x="608" y="148" type="line"/>
      <point x="646" y="327" type="line"/>
      <point x="97" y="327" type="line"/>
    </contour>
  </outline>
</glyph>
<glyph name="greater" format="2">
  <advance width="720"/>
  <unicode hex="003E"/>
  <outline>
    <contour>
      <point x="41" y="60" type="line"/>
      <point x="642" y="238" type="line"/>
      <point x="692" y="477" type="line"/>
      <point x="171" y="669" type="line"/>
      <point x="127" y="466" type="line"/>
      <point x="458" y="373" type="line"/>
      <point x="455" y="357" type="line"/>
      <point x="89" y="284" type="line"/>
    </contour>
  </outline>
</glyph>
<glyph name="question" format="2">
  <advance width="656"/>
  <unicode hex="003F"/>
  <outline>
    <contour>
      <point x="228" y="240" type="line"/>
      <point x="436" y="240" type="line"/>
      <point x="437" y="246" type="line" smooth="yes"/>
      <point x="449" y="310"/>
      <point x="652" y="342"/>
      <point x="675" y="495" type="curve" smooth="yes"/>
      <point x="697" y="641"/>
      <point x="582" y="739"/>
      <point x="396" y="739" type="curve" smooth="yes"/>
      <point x="225" y="739"/>
      <point x="102" y="657"/>
      <point x="76" y="509" type="curve"/>
      <point x="298" y="509" type="line"/>
      <point x="303" y="545"/>
      <point x="332" y="568"/>
      <point x="373" y="568" type="curve" smooth="yes"/>
      <point x="422" y="568"/>
      <point x="451" y="543"/>
      <point x="443" y="499" type="curve" smooth="yes"/>
      <point x="431" y="422"/>
      <point x="257" y="404"/>
      <point x="232" y="262" type="curve" smooth="yes"/>
    </contour>
    <contour>
      <point x="180" y="0" type="line"/>
      <point x="389" y="0" type="line"/>
      <point x="426" y="179" type="line"/>
      <point x="218" y="179" type="line"/>
    </contour>
  </outline>
</glyph>
<glyph name="at" format="2">
  <advance width="963"/>
  <unicode hex="0040"/>
  <outline>
    <contour>
      <point x="515" y="-101" type="curve" smooth="yes"/>
      <point x="639" y="-101"/>
      <point x="749" y="-59"/>
      <point x="797" y="-16" type="curve"/>
      <point x="744" y="91" type="line"/>
      <point x="695" y="57"/>
      <point x="623" y="31"/>
      <point x="528" y="31" type="curve" smooth="yes"/>
      <point x="326" y="31"/>
      <point x="195" y="124"/>
      <point x="195" y="324" type="curve" smooth="yes"/>
      <point x="195" y="477"/>
      <point x="304" y="606"/>
      <point x="508" y="606" type="curve" smooth="yes"/>
      <point x="687" y="606"/>
      <point x="809" y="508"/>
      <point x="809" y="355" type="curve" smooth="yes"/>
      <point x="809" y="279"/>
      <point x="783" y="234"/>
      <point x="732" y="234" type="curve" smooth="yes"/>
      <point x="689" y="234"/>
      <point x="673" y="266"/>
      <point x="680" y="337" type="curve" smooth="yes"/>
      <point x="696" y="504" type="line"/>
      <point x="608" y="504" type="line"/>
      <point x="592" y="471" type="line"/>
      <point x="585" y="471" type="line"/>
      <point x="567" y="495"/>
      <point x="524" y="513"/>
      <point x="473" y="513" type="curve" smooth="yes"/>
      <point x="360" y="513"/>
      <point x="287" y="427"/>
      <point x="287" y="298" type="curve" smooth="yes"/>
      <point x="287" y="188"/>
      <point x="353" y="109"/>
      <point x="460" y="109" type="curve" smooth="yes"/>
      <point x="517" y="109"/>
      <point x="563" y="130"/>
      <point x="582" y="162" type="curve"/>
      <point x="591" y="162" type="line"/>
      <point x="618" y="130"/>
      <point x="668" y="104"/>
      <point x="728" y="104" type="curve" smooth="yes"/>
      <point x="861" y="104"/>
      <point x="950" y="207"/>
      <point x="950" y="363" type="curve" smooth="yes"/>
      <point x="950" y="587"/>
      <point x="771" y="738"/>
      <point x="504" y="738" type="curve" smooth="yes"/>
      <point x="235" y="738"/>
      <point x="45" y="568"/>
      <point x="45" y="328" type="curve" smooth="yes"/>
      <point x="45" y="70"/>
      <point x="215" y="-101"/>
    </contour>
    <contour>
      <point x="487" y="231" type="curve" smooth="yes"/>
      <point x="451" y="231"/>
      <point x="426" y="258"/>
      <point x="426" y="303" type="curve" smooth="yes"/>
      <point x="426" y="353"/>
      <point x="445" y="389"/>
      <point x="495" y="389" type="curve" smooth="yes"/>
      <point x="530" y="389"/>
      <point x="557" y="364"/>
      <point x="560" y="307" type="curve"/>
      <point x="552" y="261"/>
      <point x="531" y="231"/>
    </contour>
  </outline>
</glyph>
<glyph name="A" format="2">
  <advance width="1030"/>
  <unicode hex="0041"/>
  <note>
A
</note>
  <anchor x="693" y="0" name="#exit"/>
  <anchor x="469" y="0" name="bottom"/>
  <anchor x="950" y="0" name="ogonek"/>
  <anchor x="614" y="729" name="top"/>
  <outline>
    <contour>
      <point x="-31" y="0" type="line"/>
      <point x="232" y="0" type="line"/>
      <point x="547" y="514" type="line"/>
      <point x="573" y="561" type="line"/>
      <point x="586" y="561" type="line"/>
      <point x="595" y="514" type="line"/>
      <point x="693" y="0" type="line"/>
      <point x="950" y="0" type="line"/>
      <point x="788" y="729" type="line"/>
      <point x="439" y="729" type="line"/>
    </contour>
    <contour>
      <point x="298" y="134" type="line"/>
      <point x="682" y="134" type="line"/>
      <point x="651" y="311" type="line"/>
      <point x="405" y="311" type="line"/>
    </contour>
  </outline>
</glyph>
<glyph name="B" format="2">
  <advance width="895"/>
  <unicode hex="0042"/>
  <note>
B
</note>
  <anchor x="402" y="0" name="bottom"/>
  <anchor x="557" y="729" name="top"/>
  <outline>
    <contour>
      <point x="-2" y="0" type="line"/>
      <point x="527" y="0" type="line" smooth="yes"/>
      <point x="732" y="0"/>
      <point x="850" y="85"/>
      <point x="850" y="220" type="curve" smooth="yes"/>
      <point x="850" y="308"/>
      <point x="785" y="358"/>
      <point x="710" y="374" type="curve"/>
      <point x="711" y="381" type="line"/>
      <point x="823" y="403"/>
      <point x="888" y="472"/>
      <point x="886" y="566" type="curve" smooth="yes"/>
      <point x="886" y="680"/>
      <point x="779" y="729"/>
      <point x="645" y="729" type="curve" smooth="yes"/>
      <point x="150" y="729" type="line"/>
    </contour>
    <contour>
      <point x="293" y="169" type="line"/>
      <point x="375" y="561" type="line"/>
      <point x="568" y="561" type="line" smooth="yes"/>
      <point x="601" y="561"/>
      <point x="634" y="549"/>
      <point x="628" y="506" type="curve" smooth="yes"/>
      <point x="628" y="498" type="line" smooth="yes"/>
      <point x="623" y="470"/>
      <point x="597" y="451"/>
      <point x="546" y="451" type="curve" smooth="yes"/>
      <point x="333" y="451" type="line"/>
      <point x="299" y="292" type="line"/>
      <point x="505" y="292" type="line" smooth="yes"/>
      <point x="547" y="292"/>
      <point x="575" y="276"/>
      <point x="570" y="235" type="curve" smooth="yes"/>
      <point x="569" y="227" type="line" smooth="yes"/>
      <point x="564" y="191"/>
      <point x="536" y="169"/>
      <point x="489" y="169" type="curve" smooth="yes"/>
    </contour>
  </outline>
</glyph>
<glyph name="C" format="2">
  <advance width="967"/>
  <unicode hex="0043"/>
  <note>
C
</note>
  <anchor x="478" y="0" name="bottom"/>
  <anchor x="574" y="729" name="top"/>
  <outline>
    <contour>
      <point x="475" y="-12" type="curve" smooth="yes"/>
      <point x="703" y="-12"/>
      <point x="892" y="95"/>
      <point x="938" y="253" type="curve"/>
      <point x="668" y="253" type="line"/>
      <point x="639" y="209"/>
      <point x="577" y="176"/>
      <point x="490" y="176" type="curve" smooth="yes"/>
      <point x="362" y="176"/>
      <point x="294" y="249"/>
      <point x="317" y="356" type="curve" smooth="yes"/>
      <point x="328" y="404" type="line" smooth="yes"/>
      <point x="348" y="494"/>
      <point x="417" y="554"/>
      <point x="537" y="554" type="curve" smooth="yes"/>
      <point x="620" y="554"/>
      <point x="685" y="520"/>
      <point x="701" y="463" type="curve"/>
      <point x="965" y="463" type="line"/>
      <point x="939" y="630"/>
      <point x="771" y="741"/>
      <point x="550" y="741" type="curve" smooth="yes"/>
      <point x="290" y="741"/>
      <point x="94" y="608"/>
      <point x="61" y="410" type="curve" smooth="yes"/>
      <point x="60" y="404" type="line" smooth="yes"/>
      <point x="18" y="147"/>
      <point x="199" y="-12"/>
    </contour>
  </outline>
</glyph>
<glyph name="D" format="2">
  <advance width="950"/>
  <unicode hex="0044"/>
  <note>
D
</note>
  <anchor x="427" y="0" name="bottom"/>
  <anchor x="246" y="365" name="center"/>
  <anchor x="582" y="729" name="top"/>
  <outline>
    <contour>
      <point x="-2" y="0" type="line"/>
      <point x="491" y="0" type="line" smooth="yes"/>
      <point x="726" y="0"/>
      <point x="896" y="122"/>
      <point x="928" y="316" type="curve" smooth="yes"/>
      <point x="931" y="335" type="line" smooth="yes"/>
      <point x="977" y="610"/>
      <point x="785" y="729"/>
      <point x="550" y="729" type="curve" smooth="yes"/>
      <point x="150" y="729" type="line"/>
    </contour>
    <contour>
      <point x="295" y="179" type="line"/>
      <point x="373" y="555" type="line"/>
      <point x="355" y="539" type="line"/>
      <point x="522" y="539" type="line" smooth="yes"/>
      <point x="635" y="539"/>
      <point x="692" y="468"/>
      <point x="669" y="357" type="curve" smooth="yes"/>
      <point x="664" y="333" type="line" smooth="yes"/>
      <point x="648" y="245"/>
      <point x="570" y="190"/>
      <point x="460" y="190" type="curve" smooth="yes"/>
      <point x="288" y="190" type="line"/>
    </contour>
  </outline>
</glyph>
<glyph name="E" format="2">
  <advance width="838"/>
  <unicode hex="0045"/>
  <note>
E
</note>
  <anchor x="-3" y="0" name="#entry"/>
  <anchor x="365" y="0" name="bottom"/>
  <anchor x="741" y="0" name="ogonek"/>
  <anchor x="520" y="729" name="top"/>
  <anchor x="116" y="729" name="topleft"/>
  <outline>
    <contour>
      <point x="-3" y="0" type="line"/>
      <point x="741" y="0" type="line"/>
      <point x="779" y="190" type="line"/>
      <point x="297" y="190" type="line"/>
      <point x="371" y="541" type="line"/>
      <point x="853" y="541" type="line"/>
      <point x="894" y="729" type="line"/>
      <point x="150" y="729" type="line"/>
    </contour>
    <contour>
      <point x="300" y="283" type="line"/>
      <point x="650" y="283" type="line"/>
      <point x="686" y="453" type="line"/>
      <point x="336" y="453" type="line"/>
    </contour>
  </outline>
</glyph>
<glyph name="F" format="2">
  <advance width="817"/>
  <unicode hex="0046"/>
  <note>
F
</note>
  <anchor x="360" y="0" name="bottom"/>
  <anchor x="515" y="729" name="top"/>
  <outline>
    <contour>
      <point x="-3" y="0" type="line"/>
      <point x="256" y="0" type="line"/>
      <point x="370" y="538" type="line"/>
      <point x="842" y="538" type="line"/>
      <point x="883" y="729" type="line"/>
      <point x="150" y="729" type="line"/>
    </contour>
    <contour>
      <point x="290" y="234" type="line"/>
      <point x="723" y="234" type="line"/>
      <point x="763" y="424" type="line"/>
      <point x="330" y="424" type="line"/>
    </contour>
  </outline>
</glyph>
<glyph name="G" format="2">
  <advance width="984"/>
  <unicode hex="0047"/>
  <note>
G
</note>
  <anchor x="457" y="0" name="bottom"/>
  <anchor x="564" y="729" name="top"/>
  <outline>
    <contour>
      <point x="422" y="-12" type="curve" smooth="yes"/>
      <point x="539" y="-12"/>
      <point x="638" y="14"/>
      <point x="692" y="70" type="curve"/>
      <point x="704" y="70" type="line"/>
      <point x="705" y="0" type="line"/>
      <point x="885" y="0" type="line"/>
      <point x="971" y="413" type="line"/>
      <point x="530" y="413" type="line"/>
      <point x="498" y="260" type="line"/>
      <point x="686" y="260" type="line"/>
      <point x="686" y="257" type="line"/>
      <point x="657" y="207"/>
      <point x="588" y="172"/>
      <point x="496" y="172" type="curve" smooth="yes"/>
      <point x="359" y="172"/>
      <point x="295" y="247"/>
      <point x="317" y="356" type="curve" smooth="yes"/>
      <point x="327" y="403" type="line" smooth="yes"/>
      <point x="346" y="492"/>
      <point x="415" y="554"/>
      <point x="537" y="554" type="curve" smooth="yes"/>
      <point x="615" y="554"/>
      <point x="682" y="522"/>
      <point x="697" y="473" type="curve"/>
      <point x="967" y="473" type="line"/>
      <point x="941" y="635"/>
      <point x="762" y="741"/>
      <point x="543" y="741" type="curve" smooth="yes"/>
      <point x="316" y="741"/>
      <point x="104" y="627"/>
      <point x="63" y="421" type="curve" smooth="yes"/>
      <point x="61" y="407" type="line" smooth="yes"/>
      <point x="19" y="164"/>
      <point x="173" y="-12"/>
    </contour>
  </outline>
</glyph>
<glyph name="H" format="2">
  <advance width="982"/>
  <unicode hex="0048"/>
  <note>
H
</note>
  <anchor x="433" y="0" name="bottom"/>
  <anchor x="561" y="600" name="center"/>
  <anchor x="588" y="729" name="top"/>
  <anchor x="1025" y="729" name="topleft"/>
  <outline>
    <contour>
      <point x="-4" y="0" type="line"/>
      <point x="256" y="0" type="line"/>
      <point x="410" y="729" type="line"/>
      <point x="150" y="729" type="line"/>
    </contour>
    <contour>
      <point x="611" y="0" type="line"/>
      <point x="871" y="0" type="line"/>
      <point x="1025" y="729" type="line"/>
      <point x="765" y="729" type="line"/>
    </contour>
    <contour>
      <point x="292" y="276" type="line"/>
      <point x="692" y="276" type="line"/>
      <point x="733" y="468" type="line"/>
      <point x="333" y="468" type="line"/>
    </contour>
  </outline>
</glyph>
<glyph name="I" format="2">
  <advance width="784"/>
  <unicode hex="0049"/>
  <note>
I
</note>
  <anchor x="335" y="0" name="bottom"/>
  <anchor x="686" y="0" name="ogonek"/>
  <anchor x="489" y="729" name="top"/>
  <anchor x="840" y="729" name="topleft"/>
  <outline>
    <contour>
      <point x="241" y="174" type="line"/>
      <point x="501" y="174" type="line"/>
      <point x="580" y="555" type="line"/>
      <point x="321" y="555" type="line"/>
    </contour>
    <contour>
      <point x="-17" y="0" type="line"/>
      <point x="686" y="0" type="line"/>
      <point x="726" y="190" type="line"/>
      <point x="24" y="190" type="line"/>
    </contour>
    <contour>
      <point x="97" y="539" type="line"/>
      <point x="801" y="539" type="line"/>
      <point x="840" y="729" type="line"/>
      <point x="137" y="729" type="line"/>
    </contour>
  </outline>
</glyph>
<glyph name="J" format="2">
  <advance width="555"/>
  <unicode hex="004A"/>
  <note>
J
</note>
  <anchor x="245" y="0" name="bottom"/>
  <anchor x="472" y="729" name="top"/>
  <outline>
    <contour>
      <point x="-26" y="0" type="line"/>
      <point x="246" y="0" type="line" smooth="yes"/>
      <point x="363" y="0"/>
      <point x="459" y="55"/>
      <point x="484" y="168" type="curve" smooth="yes"/>
      <point x="601" y="729" type="line"/>
      <point x="341" y="729" type="line"/>
      <point x="227" y="190" type="line"/>
      <point x="13" y="190" type="line"/>
    </contour>
  </outline>
</glyph>
<glyph name="K" format="2">
  <advance width="972"/>
  <unicode hex="004B"/>
  <note>
K
</note>
  <anchor x="418" y="0" name="bottom"/>
  <anchor x="573" y="729" name="top"/>
  <outline>
    <contour>
      <point x="-3" y="0" type="line"/>
      <point x="256" y="0" type="line"/>
      <point x="295" y="182" type="line"/>
      <point x="412" y="271" type="line"/>
      <point x="568" y="0" type="line"/>
      <point x="891" y="0" type="line"/>
      <point x="634" y="435" type="line"/>
      <point x="1034" y="729" type="line"/>
      <point x="705" y="729" type="line"/>
      <point x="351" y="447" type="line"/>
      <point x="410" y="729" type="line"/>
      <point x="150" y="729" type="line"/>
    </contour>
  </outline>
</glyph>
<glyph name="L" format="2">
  <advance width="785"/>
  <unicode hex="004C"/>
  <note>
L
</note>
  <anchor x="347" y="0" name="bottom"/>
  <anchor x="203" y="365" name="center"/>
  <anchor x="280" y="729" name="top"/>
  <anchor x="485" y="729" name="topright"/>
  <outline>
    <contour>
      <point x="-3" y="0" type="line"/>
      <point x="696" y="0" type="line"/>
      <point x="736" y="190" type="line"/>
      <point x="297" y="190" type="line"/>
      <point x="410" y="729" type="line"/>
      <point x="150" y="729" type="line"/>
    </contour>
  </outline>
</glyph>
<glyph name="M" format="2">
  <advance width="1198"/>
  <unicode hex="004D"/>
  <note>
M
</note>
  <anchor x="543" y="0" name="bottom"/>
  <anchor x="698" y="729" name="top"/>
  <outline>
    <contour>
      <point x="-3" y="0" type="line"/>
      <point x="248" y="0" type="line"/>
      <point x="344" y="450" type="line"/>
      <point x="361" y="539" type="line"/>
      <point x="374" y="539" type="line"/>
      <point x="378" y="456" type="line"/>
      <point x="410" y="0" type="line"/>
      <point x="677" y="0" type="line"/>
      <point x="894" y="448" type="line"/>
      <point x="933" y="539" type="line"/>
      <point x="946" y="539" type="line"/>
      <point x="929" y="446" type="line"/>
      <point x="834" y="0" type="line"/>
      <point x="1087" y="0" type="line"/>
      <point x="1239" y="729" type="line"/>
      <point x="823" y="729" type="line"/>
      <point x="620" y="308" type="line"/>
      <point x="603" y="270" type="line"/>
      <point x="592" y="270" type="line"/>
      <point x="590" y="308" type="line"/>
      <point x="575" y="729" type="line"/>
      <point x="150" y="729" type="line"/>
    </contour>
  </outline>
</glyph>
<glyph name="N" format="2">
  <advance width="991"/>
  <unicode hex="004E"/>
  <note>
N
</note>
  <anchor x="439" y="0" name="bottom"/>
  <anchor x="594" y="729" name="top"/>
  <outline>
    <contour>
      <point x="-3" y="0" type="line"/>
      <point x="248" y="0" type="line"/>
      <point x="345" y="466" type="line"/>
      <point x="357" y="466" type="line"/>
      <point x="368" y="424" type="line"/>
      <point x="541" y="0" type="line"/>
      <point x="880" y="0" type="line"/>
      <point x="1033" y="729" type="line"/>
      <point x="782" y="729" type="line"/>
      <point x="688" y="283" type="line"/>
      <point x="676" y="283" type="line"/>
      <point x="663" y="326" type="line"/>
      <point x="504" y="729" type="line"/>
      <point x="150" y="729" type="line"/>
    </contour>
  </outline>
</glyph>
<glyph name="O" format="2">
  <advance width="985"/>
  <unicode hex="004F"/>
  <note>
O
</note>
  <anchor x="451" y="0" name="bottom"/>
  <anchor x="514" y="365" name="center"/>
  <anchor x="864" y="10" name="ogonek"/>
  <anchor x="573" y="729" name="top"/>
  <anchor x="125" y="729" name="topleft"/>
  <anchor x="738" y="709" name="topright"/>
  <outline>
    <contour>
      <point x="475" y="-12" type="curve" smooth="yes"/>
      <point x="735" y="-12"/>
      <point x="931" y="121"/>
      <point x="964" y="319" type="curve" smooth="yes"/>
      <point x="965" y="325" type="line" smooth="yes"/>
      <point x="1008" y="582"/>
      <point x="827" y="741"/>
      <point x="551" y="741" type="curve" smooth="yes"/>
      <point x="290" y="741"/>
      <point x="94" y="608"/>
      <point x="61" y="410" type="curve" smooth="yes"/>
      <point x="60" y="404" type="line" smooth="yes"/>
      <point x="18" y="147"/>
      <point x="199" y="-12"/>
    </contour>
    <contour>
      <point x="490" y="176" type="curve" smooth="yes"/>
      <point x="362" y="176"/>
      <point x="293" y="249"/>
      <point x="317" y="356" type="curve" smooth="yes"/>
      <point x="328" y="404" type="line" smooth="yes"/>
      <point x="348" y="494"/>
      <point x="417" y="554"/>
      <point x="537" y="554" type="curve" smooth="yes"/>
      <point x="664" y="554"/>
      <point x="731" y="480"/>
      <point x="708" y="373" type="curve" smooth="yes"/>
      <point x="698" y="325" type="line" smooth="yes"/>
      <point x="677" y="235"/>
      <point x="608" y="176"/>
    </contour>
  </outline>
</glyph>
<glyph name="P" format="2">
  <advance width="886"/>
  <unicode hex="0050"/>
  <note>
P
</note>
  <anchor x="392" y="0" name="bottom"/>
  <anchor x="547" y="729" name="top"/>
  <outline>
    <contour>
      <point x="-3" y="0" type="line"/>
      <point x="256" y="0" type="line"/>
      <point x="371" y="542" type="line"/>
      <point x="547" y="542" type="line" smooth="yes"/>
      <point x="597" y="542"/>
      <point x="629" y="516"/>
      <point x="618" y="466" type="curve" smooth="yes"/>
      <point x="616" y="450" type="line" smooth="yes"/>
      <point x="608" y="409"/>
      <point x="575" y="383"/>
      <point x="518" y="383" type="curve" smooth="yes"/>
      <point x="321" y="383" type="line"/>
      <point x="284" y="202" type="line"/>
      <point x="560" y="202" type="line" smooth="yes"/>
      <point x="756" y="202"/>
      <point x="892" y="316"/>
      <point x="897" y="485" type="curve" smooth="yes"/>
      <point x="903" y="646"/>
      <point x="794" y="729"/>
      <point x="609" y="729" type="curve" smooth="yes"/>
      <point x="150" y="729" type="line"/>
    </contour>
  </outline>
</glyph>
<glyph name="R" format="2">
  <advance width="951"/>
  <unicode hex="0052"/>
  <note>
R
</note>
  <anchor x="408" y="0" name="bottom"/>
  <anchor x="487" y="729" name="top"/>
  <outline>
    <contour>
      <point x="-3" y="0" type="line"/>
      <point x="256" y="0" type="line"/>
      <point x="370" y="545" type="line"/>
      <point x="573" y="545" type="line" smooth="yes"/>
      <point x="621" y="545"/>
      <point x="649" y="526"/>
      <point x="645" y="484" type="curve" smooth="yes"/>
      <point x="643" y="475" type="line" smooth="yes"/>
      <point x="640" y="437"/>
      <point x="608" y="415"/>
      <point x="559" y="415" type="curve" smooth="yes"/>
      <point x="328" y="415" type="line"/>
      <point x="289" y="233" type="line"/>
      <point x="403" y="233" type="line"/>
      <point x="563" y="0" type="line"/>
      <point x="870" y="0" type="line"/>
      <point x="665" y="284" type="line"/>
      <point x="659" y="271" type="line"/>
      <point x="663" y="271" type="line" smooth="yes"/>
      <point x="809" y="286"/>
      <point x="918" y="371"/>
      <point x="919" y="515" type="curve" smooth="yes"/>
      <point x="920" y="649"/>
      <point x="820" y="729"/>
      <point x="663" y="729" type="curve" smooth="yes"/>
      <point x="150" y="729" type="line"/>
    </contour>
  </outline>
</glyph>
<glyph name="S" format="2">
  <advance width="867"/>
  <unicode hex="0053"/>
  <note>
S
</note>
  <anchor x="411" y="0" name="bottom"/>
  <anchor x="529" y="729" name="top"/>
  <outline>
    <contour>
      <point x="409" y="-10" type="curve" smooth="yes"/>
      <point x="652" y="-10"/>
      <point x="827" y="78"/>
      <point x="827" y="247" type="curve" smooth="yes"/>
      <point x="827" y="359"/>
      <point x="755" y="435"/>
      <point x="588" y="458" type="curve" smooth="yes"/>
      <point x="465" y="477" type="line" smooth="yes"/>
      <point x="417" y="484"/>
      <point x="383" y="496"/>
      <point x="383" y="529" type="curve" smooth="yes"/>
      <point x="383" y="564"/>
      <point x="416" y="585"/>
      <point x="489" y="585" type="curve" smooth="yes"/>
      <point x="560" y="585"/>
      <point x="612" y="561"/>
      <point x="619" y="518" type="curve"/>
      <point x="877" y="518" type="line"/>
      <point x="853" y="651"/>
      <point x="716" y="741"/>
      <point x="499" y="741" type="curve" smooth="yes"/>
      <point x="259" y="741"/>
      <point x="98" y="647"/>
      <point x="98" y="487" type="curve" smooth="yes"/>
      <point x="98" y="385"/>
      <point x="164" y="315"/>
      <point x="326" y="289" type="curve" smooth="yes"/>
      <point x="472" y="266" type="line" smooth="yes"/>
      <point x="525" y="258"/>
      <point x="544" y="242"/>
      <point x="544" y="211" type="curve" smooth="yes"/>
      <point x="544" y="162"/>
      <point x="490" y="150"/>
      <point x="427" y="150" type="curve" smooth="yes"/>
      <point x="344" y="150"/>
      <point x="284" y="178"/>
      <point x="277" y="229" type="curve"/>
      <point x="16" y="229" type="line"/>
      <point x="30" y="87"/>
      <point x="169" y="-10"/>
    </contour>
  </outline>
</glyph>
<glyph name="T" format="2">
  <advance width="896"/>
  <unicode hex="0054"/>
  <note>
T
</note>
  <anchor x="392" y="0" name="bottom"/>
  <anchor x="460" y="323" name="center"/>
  <anchor x="545" y="729" name="top"/>
  <outline>
    <contour>
      <point x="261" y="0" type="line"/>
      <point x="521" y="0" type="line"/>
      <point x="634" y="539" type="line"/>
      <point x="920" y="539" type="line"/>
      <point x="958" y="729" type="line"/>
      <point x="128" y="729" type="line"/>
      <point x="88" y="539" type="line"/>
      <point x="374" y="539" type="line"/>
    </contour>
  </outline>
</glyph>
<glyph name="U" format="2">
  <advance width="925"/>
  <unicode hex="0055"/>
  <note>
U
</note>
  <anchor x="433" y="0" name="bottom"/>
  <anchor x="593" y="9" name="ogonek"/>
  <anchor x="558" y="729" name="top"/>
  <anchor x="826" y="729" name="topright"/>
  <outline>
    <contour>
      <point x="446" y="-12" type="curve" smooth="yes"/>
      <point x="672" y="-12"/>
      <point x="839" y="83"/>
      <point x="880" y="276" type="curve" smooth="yes"/>
      <point x="975" y="729" type="line"/>
      <point x="715" y="729" type="line"/>
      <point x="626" y="307" type="line" smooth="yes"/>
      <point x="608" y="222"/>
      <point x="542" y="185"/>
      <point x="462" y="185" type="curve" smooth="yes"/>
      <point x="372" y="185"/>
      <point x="293" y="225"/>
      <point x="317" y="340" type="curve" smooth="yes"/>
      <point x="399" y="729" type="line"/>
      <point x="138" y="729" type="line"/>
      <point x="67" y="391" type="line" smooth="yes"/>
      <point x="16" y="149"/>
      <point x="151" y="-12"/>
    </contour>
  </outline>
</glyph>
<glyph name="V" format="2">
  <advance width="1019"/>
  <unicode hex="0056"/>
  <note>
V
</note>
  <anchor x="479" y="0" name="bottom"/>
  <anchor x="634" y="729" name="top"/>
  <outline>
    <contour>
      <point x="306" y="0" type="line"/>
      <point x="638" y="0" type="line"/>
      <point x="1088" y="729" type="line"/>
      <point x="784" y="729" type="line"/>
      <point x="522" y="254" type="line"/>
      <point x="506" y="227" type="line"/>
      <point x="492" y="227" type="line"/>
      <point x="486" y="254" type="line"/>
      <point x="393" y="729" type="line"/>
      <point x="120" y="729" type="line"/>
    </contour>
  </outline>
</glyph>
<glyph name="W" format="2">
  <advance width="1321"/>
  <unicode hex="0057"/>
  <note>
W
</note>
  <anchor x="614" y="0" name="bottom"/>
  <anchor x="769" y="729" name="top"/>
  <outline>
    <contour>
      <point x="155" y="0" type="line"/>
      <point x="512" y="0" type="line"/>
      <point x="683" y="430" type="line"/>
      <point x="691" y="455" type="line"/>
      <point x="708" y="455" type="line"/>
      <point x="705" y="430" type="line"/>
      <point x="699" y="0" type="line"/>
      <point x="1056" y="0" type="line"/>
      <point x="1394" y="729" type="line"/>
      <point x="1128" y="729" type="line"/>
      <point x="929" y="236" type="line"/>
      <point x="912" y="195" type="line"/>
      <point x="898" y="195" type="line"/>
      <point x="900" y="240" type="line"/>
      <point x="911" y="729" type="line"/>
      <point x="599" y="729" type="line"/>
      <point x="405" y="241" type="line"/>
      <point x="386" y="195" type="line"/>
      <point x="374" y="195" type="line"/>
      <point x="375" y="236" type="line"/>
      <point x="381" y="729" type="line"/>
      <point x="121" y="729" type="line"/>
    </contour>
  </outline>
</glyph>
<glyph name="X" format="2">
  <advance width="1058"/>
  <unicode hex="0058"/>
  <note>
X
</note>
  <anchor x="479" y="0" name="bottom"/>
  <anchor x="634" y="729" name="top"/>
  <outline>
    <contour>
      <point x="-35" y="0" type="line"/>
      <point x="275" y="0" type="line"/>
      <point x="508" y="229" type="line"/>
      <point x="518" y="229" type="line"/>
      <point x="656" y="0" type="line"/>
      <point x="978" y="0" type="line"/>
      <point x="727" y="382" type="line"/>
      <point x="1111" y="729" type="line"/>
      <point x="799" y="729" type="line"/>
      <point x="589" y="517" type="line"/>
      <point x="578" y="517" type="line"/>
      <point x="458" y="729" type="line"/>
      <point x="138" y="729" type="line"/>
      <point x="379" y="380" type="line"/>
    </contour>
  </outline>
</glyph>
<glyph name="Y" format="2">
  <advance width="966"/>
  <unicode hex="0059"/>
  <note>
Y
</note>
  <anchor x="425" y="0" name="bottom"/>
  <anchor x="570" y="729" name="top"/>
  <anchor x="142" y="729" name="topleft"/>
  <outline>
    <contour>
      <point x="295" y="0" type="line"/>
      <point x="554" y="0" type="line"/>
      <point x="612" y="274" type="line"/>
      <point x="1056" y="729" type="line"/>
      <point x="745" y="729" type="line"/>
      <point x="566" y="527" type="line"/>
      <point x="520" y="473" type="line"/>
      <point x="507" y="473" type="line"/>
      <point x="485" y="527" type="line"/>
      <point x="395" y="729" type="line"/>
      <point x="99" y="729" type="line"/>
      <point x="352" y="274" type="line"/>
    </contour>
  </outline>
</glyph>
<glyph name="Z" format="2">
  <advance width="861"/>
  <unicode hex="005A"/>
  <note>
Z
</note>
  <anchor x="369" y="0" name="bottom"/>
  <anchor x="446" y="365" name="center"/>
  <anchor x="524" y="729" name="top"/>
  <outline>
    <contour>
      <point x="-25" y="0" type="line"/>
      <point x="770" y="0" type="line"/>
      <point x="810" y="190" type="line"/>
      <point x="376" y="190" type="line"/>
      <point x="863" y="553" type="line"/>
      <point x="901" y="729" type="line"/>
      <point x="150" y="729" type="line"/>
      <point x="111" y="539" type="line"/>
      <point x="497" y="539" type="line"/>
      <point x="14" y="179" type="line"/>
    </contour>
  </outline>
</glyph>
<glyph name="bracketleft" format="2">
  <advance width="423"/>
  <unicode hex="005B"/>
  <outline>
    <contour>
      <point x="-39" y="-167" type="line"/>
      <point x="296" y="-167" type="line"/>
      <point x="329" y="-8" type="line"/>
      <point x="192" y="-8" type="line"/>
      <point x="328" y="632" type="line"/>
      <point x="466" y="632" type="line"/>
      <point x="500" y="791" type="line"/>
      <point x="165" y="791" type="line"/>
    </contour>
  </outline>
</glyph>
<glyph name="backslash" format="2">
  <advance width="571"/>
  <unicode hex="005C"/>
  <outline>
    <contour>
      <point x="291" y="-82" type="line"/>
      <point x="495" y="-82" type="line"/>
      <point x="326" y="729" type="line"/>
      <point x="120" y="729" type="line"/>
    </contour>
  </outline>
</glyph>
<glyph name="asciicircum" format="2">
  <advance width="720"/>
  <unicode hex="005E"/>
  <outline>
    <contour>
      <point x="131" y="466" type="line"/>
      <point x="323" y="466" type="line"/>
      <point x="434" y="577" type="line"/>
      <point x="497" y="466" type="line"/>
      <point x="679" y="466" type="line"/>
      <point x="545" y="729" type="line"/>
      <point x="361" y="729" type="line"/>
    </contour>
  </outline>
</glyph>
<glyph name="underscore" format="2">
  <advance width="465"/>
  <unicode hex="005F"/>
  <outline>
    <contour>
      <point x="-77" y="-166" type="line"/>
      <point x="355" y="-166" type="line"/>
      <point x="391" y="0" type="line"/>
      <point x="-42" y="0" type="line"/>
    </contour>
  </outline>
</glyph>
<glyph name="a" format="2">
  <advance width="792"/>
  <unicode hex="0061"/>
  <note>
a
</note>
  <anchor x="350" y="0" name="bottom"/>
  <anchor x="691" y="0" name="ogonek"/>
  <anchor x="430" y="545" name="top"/>
  <outline>
    <contour>
      <point x="296" y="-12" type="curve" smooth="yes"/>
      <point x="371" y="-12"/>
      <point x="443" y="11"/>
      <point x="481" y="49" type="curve"/>
      <point x="487" y="49" type="line"/>
      <point x="499" y="0" type="line"/>
      <point x="690" y="0" type="line"/>
      <point x="804" y="545" type="line"/>
      <point x="593" y="545" type="line"/>
      <point x="549" y="482" type="line"/>
      <point x="539" y="482" type="line"/>
      <point x="498" y="528"/>
      <point x="422" y="557"/>
      <point x="337" y="557" type="curve" smooth="yes"/>
      <point x="183" y="557"/>
      <point x="61" y="463"/>
      <point x="35" y="320" type="curve" smooth="yes"/>
      <point x="33" y="309" type="line" smooth="yes"/>
      <point x="-1" y="120"/>
      <point x="124" y="-12"/>
    </contour>
    <contour>
      <point x="386" y="151" type="curve" smooth="yes"/>
      <point x="306" y="151"/>
      <point x="261" y="203"/>
      <point x="277" y="282" type="curve" smooth="yes"/>
      <point x="281" y="303" type="line" smooth="yes"/>
      <point x="291" y="362"/>
      <point x="337" y="395"/>
      <point x="406" y="395" type="curve" smooth="yes"/>
      <point x="451" y="395"/>
      <point x="496" y="371"/>
      <point x="517" y="333" type="curve"/>
      <point x="486" y="182" type="line"/>
      <point x="461" y="161"/>
      <point x="429" y="151"/>
    </contour>
  </outline>
</glyph>
<glyph name="b" format="2">
  <advance width="794"/>
  <unicode hex="0062"/>
  <note>
b
</note>
  <anchor x="339" y="0" name="bottom"/>
  <anchor x="456" y="551" name="top"/>
  <outline>
    <contour>
      <point x="453" y="-12" type="curve" smooth="yes"/>
      <point x="615" y="-12"/>
      <point x="735" y="79"/>
      <point x="758" y="224" type="curve" smooth="yes"/>
      <point x="760" y="238" type="line" smooth="yes"/>
      <point x="793" y="455"/>
      <point x="644" y="558"/>
      <point x="507" y="558" type="curve" smooth="yes"/>
      <point x="439" y="558"/>
      <point x="373" y="536"/>
      <point x="344" y="508" type="curve"/>
      <point x="335" y="508" type="line"/>
      <point x="382" y="729" type="line"/>
      <point x="141" y="729" type="line"/>
      <point x="-11" y="0" type="line"/>
      <point x="201" y="0" type="line"/>
      <point x="243" y="63" type="line"/>
      <point x="254" y="63" type="line"/>
      <point x="291" y="20"/>
      <point x="366" y="-12"/>
    </contour>
    <contour>
      <point x="389" y="150" type="curve" smooth="yes"/>
      <point x="336" y="150"/>
      <point x="296" y="174"/>
      <point x="274" y="212" type="curve"/>
      <point x="305" y="360" type="line"/>
      <point x="333" y="385"/>
      <point x="365" y="396"/>
      <point x="410" y="396" type="curve" smooth="yes"/>
      <point x="487" y="396"/>
      <point x="530" y="347"/>
      <point x="514" y="263" type="curve" smooth="yes"/>
      <point x="511" y="242" type="line" smooth="yes"/>
      <point x="500" y="184"/>
      <point x="452" y="150"/>
    </contour>
  </outline>
</glyph>
<glyph name="c" format="2">
  <advance width="752"/>
  <unicode hex="0063"/>
  <note>
c
</note>
  <anchor x="319" y="0" name="bottom"/>
  <anchor x="433" y="545" name="top"/>
  <outline>
    <contour>
      <point x="350" y="-12" type="curve" smooth="yes"/>
      <point x="528" y="-12"/>
      <point x="688" y="78"/>
      <point x="718" y="211" type="curve"/>
      <point x="479" y="211" type="line"/>
      <point x="466" y="174"/>
      <point x="423" y="151"/>
      <point x="367" y="151" type="curve" smooth="yes"/>
      <point x="297" y="151"/>
      <point x="259" y="191"/>
      <point x="272" y="253" type="curve" smooth="yes"/>
      <point x="282" y="308" type="line" smooth="yes"/>
      <point x="293" y="363"/>
      <point x="336" y="395"/>
      <point x="405" y="395" type="curve" smooth="yes"/>
      <point x="456" y="395"/>
      <point x="494" y="371"/>
      <point x="501" y="335" type="curve"/>
      <point x="735" y="335" type="line"/>
      <point x="723" y="470"/>
      <point x="592" y="557"/>
      <point x="413" y="557" type="curve" smooth="yes"/>
      <point x="212" y="557"/>
      <point x="61" y="458"/>
      <point x="32" y="313" type="curve" smooth="yes"/>
      <point x="31" y="308" type="line" smooth="yes"/>
      <point x="-9" y="108"/>
      <point x="136" y="-12"/>
    </contour>
  </outline>
</glyph>
<glyph name="d" format="2">
  <advance width="792"/>
  <unicode hex="0064"/>
  <note>
d
</note>
  <anchor x="338" y="0" name="bottom"/>
  <anchor x="655" y="633" name="center"/>
  <anchor x="456" y="551" name="top"/>
  <anchor x="843" y="729" name="topright"/>
  <outline>
    <contour>
      <point x="296" y="-12" type="curve" smooth="yes"/>
      <point x="371" y="-12"/>
      <point x="443" y="11"/>
      <point x="481" y="49" type="curve"/>
      <point x="487" y="49" type="line"/>
      <point x="499" y="0" type="line"/>
      <point x="690" y="0" type="line"/>
      <point x="843" y="729" type="line"/>
      <point x="601" y="729" type="line"/>
      <point x="549" y="482" type="line"/>
      <point x="539" y="482" type="line"/>
      <point x="498" y="528"/>
      <point x="422" y="557"/>
      <point x="337" y="557" type="curve" smooth="yes"/>
      <point x="183" y="557"/>
      <point x="61" y="463"/>
      <point x="35" y="320" type="curve" smooth="yes"/>
      <point x="33" y="309" type="line" smooth="yes"/>
      <point x="-1" y="120"/>
      <point x="124" y="-12"/>
    </contour>
    <contour>
      <point x="386" y="151" type="curve" smooth="yes"/>
      <point x="306" y="151"/>
      <point x="261" y="203"/>
      <point x="277" y="282" type="curve" smooth="yes"/>
      <point x="281" y="303" type="line" smooth="yes"/>
      <point x="291" y="362"/>
      <point x="337" y="395"/>
      <point x="406" y="395" type="curve" smooth="yes"/>
      <point x="451" y="395"/>
      <point x="496" y="371"/>
      <point x="518" y="333" type="curve"/>
      <point x="486" y="182" type="line"/>
      <point x="462" y="161"/>
      <point x="429" y="151"/>
    </contour>
  </outline>
</glyph>
<glyph name="e" format="2">
  <advance width="759"/>
  <unicode hex="0065"/>
  <note>
e
</note>
  <anchor x="-35" y="0" name="#entry"/>
  <anchor x="351" y="0" name="bottom"/>
  <anchor x="553" y="0" name="ogonek"/>
  <anchor x="405" y="545" name="top"/>
  <outline>
    <contour>
      <point x="349" y="-12" type="curve" smooth="yes"/>
      <point x="533" y="-12"/>
      <point x="679" y="64"/>
      <point x="713" y="174" type="curve"/>
      <point x="481" y="174" type="line"/>
      <point x="465" y="148"/>
      <point x="423" y="129"/>
      <point x="370" y="129" type="curve" smooth="yes"/>
      <point x="292" y="129"/>
      <point x="245" y="170"/>
      <point x="258" y="239" type="curve" smooth="yes"/>
      <point x="277" y="332" type="line" smooth="yes"/>
      <point x="286" y="383"/>
      <point x="329" y="418"/>
      <point x="403" y="418" type="curve" smooth="yes"/>
      <point x="464" y="418"/>
      <point x="521" y="383"/>
      <point x="511" y="322" type="curve" smooth="yes"/>
      <point x="510" y="315" type="line"/>
      <point x="529" y="335" type="line"/>
      <point x="263" y="335" type="line"/>
      <point x="238" y="219" type="line"/>
      <point x="726" y="219" type="line"/>
      <point x="728" y="233" type="line" smooth="yes"/>
      <point x="758" y="441"/>
      <point x="604" y="557"/>
      <point x="402" y="557" type="curve" smooth="yes"/>
      <point x="208" y="557"/>
      <point x="61" y="458"/>
      <point x="32" y="314" type="curve" smooth="yes"/>
      <point x="31" y="308" type="line" smooth="yes"/>
      <point x="-8" y="119"/>
      <point x="119" y="-12"/>
    </contour>
  </outline>
</glyph>
<glyph name="f" format="2">
  <advance width="512"/>
  <unicode hex="0066"/>
  <note>
f
</note>
  <anchor x="212" y="0" name="bottom"/>
  <anchor x="381" y="800" name="top"/>
  <outline>
    <contour>
      <point x="68" y="0" type="line"/>
      <point x="311" y="0" type="line"/>
      <point x="390" y="383" type="line"/>
      <point x="512" y="383" type="line"/>
      <point x="546" y="545" type="line"/>
      <point x="424" y="545" type="line"/>
      <point x="435" y="597" type="line"/>
      <point x="568" y="597" type="line"/>
      <point x="596" y="729" type="line"/>
      <point x="382" y="729" type="line" smooth="yes"/>
      <point x="284" y="729"/>
      <point x="212" y="684"/>
      <point x="195" y="604" type="curve" smooth="yes"/>
      <point x="184" y="545" type="line"/>
      <point x="81" y="545" type="line"/>
      <point x="48" y="383" type="line"/>
      <point x="149" y="383" type="line"/>
    </contour>
  </outline>
</glyph>
<glyph name="g" format="2">
  <advance width="769"/>
  <unicode hex="0067"/>
  <note>
g
</note>
  <anchor x="297" y="-200" name="bottom"/>
  <anchor x="410" y="545" name="top"/>
  <outline>
    <contour>
      <point x="301" y="-178" type="curve" smooth="yes"/>
      <point x="501" y="-178"/>
      <point x="642" y="-114"/>
      <point x="678" y="58" type="curve" smooth="yes"/>
      <point x="779" y="545" type="line"/>
      <point x="567" y="545" type="line"/>
      <point x="535" y="483" type="line"/>
      <point x="524" y="483" type="line"/>
      <point x="487" y="529"/>
      <point x="409" y="558"/>
      <point x="324" y="558" type="curve" smooth="yes"/>
      <point x="181" y="558"/>
      <point x="62" y="478"/>
      <point x="36" y="332" type="curve" smooth="yes"/>
      <point x="34" y="321" type="line" smooth="yes"/>
      <point x="10" y="155"/>
      <point x="119" y="43"/>
      <point x="289" y="43" type="curve" smooth="yes"/>
      <point x="349" y="43"/>
      <point x="407" y="61"/>
      <point x="435" y="87" type="curve"/>
      <point x="443" y="87" type="line"/>
      <point x="432" y="35" type="line" smooth="yes"/>
      <point x="424" y="-8"/>
      <point x="388" y="-37"/>
      <point x="310" y="-37" type="curve" smooth="yes"/>
      <point x="268" y="-37"/>
      <point x="233" y="-25"/>
      <point x="225" y="0" type="curve"/>
      <point x="-10" y="0" type="line"/>
      <point x="9" y="-108"/>
      <point x="121" y="-178"/>
    </contour>
    <contour>
      <point x="382" y="198" type="curve" smooth="yes"/>
      <point x="309" y="198"/>
      <point x="268" y="242"/>
      <point x="282" y="309" type="curve" smooth="yes"/>
      <point x="285" y="323" type="line" smooth="yes"/>
      <point x="295" y="373"/>
      <point x="335" y="402"/>
      <point x="393" y="402" type="curve" smooth="yes"/>
      <point x="442" y="402"/>
      <point x="483" y="378"/>
      <point x="498" y="344" type="curve"/>
      <point x="473" y="233" type="line"/>
      <point x="457" y="211"/>
      <point x="419" y="198"/>
    </contour>
  </outline>
</glyph>
<glyph name="h" format="2">
  <advance width="779"/>
  <unicode hex="0068"/>
  <note>
h
</note>
  <anchor x="345" y="0" name="bottom"/>
  <anchor x="273" y="629" name="center"/>
  <anchor x="262" y="729" name="top"/>
  <outline>
    <contour>
      <point x="-12" y="0" type="line"/>
      <point x="229" y="0" type="line"/>
      <point x="303" y="354" type="line"/>
      <point x="334" y="381"/>
      <point x="379" y="396"/>
      <point x="425" y="396" type="curve" smooth="yes"/>
      <point x="490" y="396"/>
      <point x="520" y="362"/>
      <point x="503" y="290" type="curve" smooth="yes"/>
      <point x="444" y="0" type="line"/>
      <point x="685" y="0" type="line"/>
      <point x="748" y="304" type="line" smooth="yes"/>
      <point x="779" y="454"/>
      <point x="707" y="557"/>
      <point x="543" y="557" type="curve" smooth="yes"/>
      <point x="469" y="557"/>
      <point x="391" y="534"/>
      <point x="342" y="493" type="curve"/>
      <point x="333" y="493" type="line"/>
      <point x="382" y="729" type="line"/>
      <point x="141" y="729" type="line"/>
    </contour>
  </outline>
</glyph>
<glyph name="k" format="2">
  <advance width="823"/>
  <unicode hex="006B"/>
  <note>
k
</note>
  <anchor x="356" y="0" name="bottom"/>
  <anchor x="526" y="800" name="top"/>
  <outline>
    <contour>
      <point x="-12" y="0" type="line"/>
      <point x="229" y="0" type="line"/>
      <point x="382" y="729" type="line"/>
      <point x="141" y="729" type="line"/>
    </contour>
    <contour>
      <point x="470" y="0" type="line"/>
      <point x="749" y="0" type="line"/>
      <point x="543" y="338" type="line"/>
      <point x="344" y="225" type="line"/>
    </contour>
    <contour>
      <point x="246" y="132" type="line"/>
      <point x="419" y="255" type="line"/>
      <point x="454" y="257" type="line"/>
      <point x="866" y="545" type="line"/>
      <point x="552" y="545" type="line"/>
      <point x="294" y="354" type="line"/>
    </contour>
  </outline>
</glyph>
<glyph name="l" format="2">
  <advance width="331"/>
  <unicode hex="006C"/>
  <note>
l
</note>
  <anchor x="109" y="0" name="bottom"/>
  <anchor x="186" y="365" name="center"/>
  <anchor x="262" y="729" name="top"/>
  <anchor x="382" y="729" name="topright"/>
  <outline>
    <contour>
      <point x="-12" y="0" type="line"/>
      <point x="229" y="0" type="line"/>
      <point x="382" y="729" type="line"/>
      <point x="141" y="729" type="line"/>
    </contour>
  </outline>
</glyph>
<glyph name="m" format="2">
  <advance width="1217"/>
  <unicode hex="006D"/>
  <note>
m
</note>
  <anchor x="564" y="0" name="bottom"/>
  <anchor x="679" y="545" name="top"/>
  <outline>
    <contour>
      <point x="-12" y="0" type="line"/>
      <point x="229" y="0" type="line"/>
      <point x="303" y="356" type="line"/>
      <point x="334" y="382"/>
      <point x="376" y="396"/>
      <point x="421" y="396" type="curve" smooth="yes"/>
      <point x="480" y="396"/>
      <point x="510" y="362"/>
      <point x="496" y="291" type="curve" smooth="yes"/>
      <point x="435" y="0" type="line"/>
      <point x="675" y="0" type="line"/>
      <point x="738" y="303" type="line" smooth="yes"/>
      <point x="741" y="319"/>
      <point x="743" y="333"/>
      <point x="743" y="348" type="curve"/>
      <point x="775" y="378"/>
      <point x="820" y="396"/>
      <point x="869" y="396" type="curve" smooth="yes"/>
      <point x="931" y="396"/>
      <point x="957" y="359"/>
      <point x="943" y="291" type="curve" smooth="yes"/>
      <point x="881" y="0" type="line"/>
      <point x="1123" y="0" type="line"/>
      <point x="1186" y="303" type="line" smooth="yes"/>
      <point x="1220" y="465"/>
      <point x="1136" y="557"/>
      <point x="990" y="557" type="curve" smooth="yes"/>
      <point x="900" y="557"/>
      <point x="809" y="526"/>
      <point x="735" y="459" type="curve"/>
      <point x="728" y="459" type="line"/>
      <point x="698" y="522"/>
      <point x="631" y="557"/>
      <point x="539" y="557" type="curve" smooth="yes"/>
      <point x="466" y="557"/>
      <point x="388" y="534"/>
      <point x="336" y="493" type="curve"/>
      <point x="328" y="493" type="line"/>
      <point x="320" y="545" type="line"/>
      <point x="102" y="545" type="line"/>
    </contour>
  </outline>
</glyph>
<glyph name="n" format="2">
  <advance width="778"/>
  <unicode hex="006E"/>
  <note>
n
</note>
  <anchor x="343" y="0" name="bottom"/>
  <anchor x="458" y="545" name="top"/>
  <outline>
    <contour>
      <point x="-12" y="0" type="line"/>
      <point x="229" y="0" type="line"/>
      <point x="304" y="356" type="line"/>
      <point x="335" y="381"/>
      <point x="379" y="396"/>
      <point x="424" y="396" type="curve" smooth="yes"/>
      <point x="489" y="396"/>
      <point x="519" y="362"/>
      <point x="503" y="290" type="curve" smooth="yes"/>
      <point x="443" y="0" type="line"/>
      <point x="684" y="0" type="line"/>
      <point x="747" y="304" type="line" smooth="yes"/>
      <point x="779" y="454"/>
      <point x="706" y="557"/>
      <point x="542" y="557" type="curve" smooth="yes"/>
      <point x="468" y="557"/>
      <point x="389" y="534"/>
      <point x="334" y="493" type="curve"/>
      <point x="328" y="493" type="line"/>
      <point x="320" y="545" type="line"/>
      <point x="102" y="545" type="line"/>
    </contour>
  </outline>
</glyph>
<glyph name="o" format="2">
  <advance width="775"/>
  <unicode hex="006F"/>
  <note>
o
</note>
  <anchor x="446" y="0" name="#exit"/>
  <anchor x="352" y="0" name="bottom"/>
  <anchor x="391" y="273" name="center"/>
  <anchor x="656" y="10" name="ogonek"/>
  <anchor x="415" y="545" name="top"/>
  <anchor x="565" y="517" name="topright"/>
  <outline>
    <contour>
      <point x="358" y="-12" type="curve" smooth="yes"/>
      <point x="565" y="-12"/>
      <point x="716" y="88"/>
      <point x="744" y="233" type="curve" smooth="yes"/>
      <point x="746" y="243" type="line" smooth="yes"/>
      <point x="784" y="440"/>
      <point x="639" y="557"/>
      <point x="417" y="557" type="curve" smooth="yes"/>
      <point x="210" y="557"/>
      <point x="59" y="457"/>
      <point x="31" y="312" type="curve" smooth="yes"/>
      <point x="29" y="302" type="line" smooth="yes"/>
      <point x="-9" y="106"/>
      <point x="136" y="-12"/>
    </contour>
    <contour>
      <point x="369" y="151" type="curve" smooth="yes"/>
      <point x="299" y="151"/>
      <point x="257" y="187"/>
      <point x="271" y="253" type="curve" smooth="yes"/>
      <point x="282" y="307" type="line" smooth="yes"/>
      <point x="293" y="362"/>
      <point x="337" y="395"/>
      <point x="406" y="395" type="curve" smooth="yes"/>
      <point x="475" y="395"/>
      <point x="518" y="358"/>
      <point x="504" y="292" type="curve" smooth="yes"/>
      <point x="493" y="238" type="line" smooth="yes"/>
      <point x="482" y="184"/>
      <point x="438" y="151"/>
    </contour>
  </outline>
</glyph>
<glyph name="q" format="2">
  <advance width="794"/>
  <unicode hex="0071"/>
  <note>
q
</note>
  <anchor x="340" y="0" name="bottom"/>
  <anchor x="456" y="545" name="top"/>
  <outline>
    <contour>
      <point x="416" y="-167" type="line"/>
      <point x="657" y="-167" type="line"/>
      <point x="806" y="545" type="line"/>
      <point x="593" y="545" type="line"/>
      <point x="551" y="482" type="line"/>
      <point x="540" y="482" type="line"/>
      <point x="502" y="525"/>
      <point x="428" y="557"/>
      <point x="340" y="557" type="curve" smooth="yes"/>
      <point x="183" y="557"/>
      <point x="62" y="463"/>
      <point x="35" y="320" type="curve" smooth="yes"/>
      <point x="33" y="309" type="line" smooth="yes"/>
      <point x="-1" y="120"/>
      <point x="124" y="-12"/>
      <point x="292" y="-12" type="curve" smooth="yes"/>
      <point x="355" y="-12"/>
      <point x="421" y="9"/>
      <point x="451" y="38" type="curve"/>
      <point x="459" y="38" type="line"/>
    </contour>
    <contour>
      <point x="390" y="151" type="curve" smooth="yes"/>
      <point x="309" y="151"/>
      <point x="265" y="203"/>
      <point x="279" y="282" type="curve" smooth="yes"/>
      <point x="283" y="303" type="line" smooth="yes"/>
      <point x="295" y="362"/>
      <point x="339" y="395"/>
      <point x="409" y="395" type="curve" smooth="yes"/>
      <point x="454" y="395"/>
      <point x="499" y="371"/>
      <point x="521" y="333" type="curve"/>
      <point x="489" y="182" type="line"/>
      <point x="464" y="161"/>
      <point x="432" y="151"/>
    </contour>
  </outline>
</glyph>
<glyph name="r" format="2">
  <advance width="504"/>
  <unicode hex="0072"/>
  <note>
r
</note>
  <anchor x="108" y="0" name="bottom"/>
  <anchor x="310" y="545" name="top"/>
  <outline>
    <contour>
      <point x="-13" y="0" type="line"/>
      <point x="228" y="0" type="line"/>
      <point x="294" y="306" type="line"/>
      <point x="316" y="333"/>
      <point x="347" y="353"/>
      <point x="402" y="353" type="curve" smooth="yes"/>
      <point x="496" y="353" type="line"/>
      <point x="538" y="555" type="line"/>
      <point x="486" y="555" type="line" smooth="yes"/>
      <point x="420" y="555"/>
      <point x="377" y="532"/>
      <point x="339" y="476" type="curve"/>
      <point x="324" y="476" type="line"/>
      <point x="310" y="545" type="line"/>
      <point x="102" y="545" type="line"/>
    </contour>
  </outline>
</glyph>
<glyph name="s" format="2">
  <advance width="716"/>
  <unicode hex="0073"/>
  <note>
s
</note>
  <anchor x="311" y="0" name="bottom"/>
  <anchor x="425" y="545" name="top"/>
  <outline>
    <contour>
      <point x="335" y="-12" type="curve" smooth="yes"/>
      <point x="534" y="-12"/>
      <point x="672" y="52"/>
      <point x="672" y="182" type="curve" smooth="yes"/>
      <point x="672" y="266"/>
      <point x="619" y="329"/>
      <point x="453" y="351" type="curve" smooth="yes"/>
      <point x="369" y="363" type="line" smooth="yes"/>
      <point x="333" y="368"/>
      <point x="311" y="378"/>
      <point x="311" y="399" type="curve" smooth="yes"/>
      <point x="311" y="425"/>
      <point x="336" y="437"/>
      <point x="380" y="437" type="curve" smooth="yes"/>
      <point x="431" y="437"/>
      <point x="464" y="415"/>
      <point x="469" y="384" type="curve"/>
      <point x="703" y="384" type="line"/>
      <point x="683" y="487"/>
      <point x="556" y="558"/>
      <point x="386" y="558" type="curve" smooth="yes"/>
      <point x="200" y="558"/>
      <point x="58" y="493"/>
      <point x="58" y="359" type="curve" smooth="yes"/>
      <point x="58" y="286"/>
      <point x="103" y="224"/>
      <point x="258" y="203" type="curve" smooth="yes"/>
      <point x="352" y="191" type="line" smooth="yes"/>
      <point x="392" y="186"/>
      <point x="408" y="175"/>
      <point x="408" y="153" type="curve" smooth="yes"/>
      <point x="408" y="124"/>
      <point x="378" y="110"/>
      <point x="331" y="110" type="curve" smooth="yes"/>
      <point x="278" y="110"/>
      <point x="242" y="131"/>
      <point x="239" y="165" type="curve"/>
      <point x="-5" y="165" type="line"/>
      <point x="17" y="60"/>
      <point x="128" y="-12"/>
    </contour>
  </outline>
</glyph>
<glyph name="t" format="2">
  <advance width="516"/>
  <unicode hex="0074"/>
  <note>
t
</note>
  <anchor x="270" y="0" name="bottom"/>
  <anchor x="255" y="283" name="center"/>
  <anchor x="306" y="545" name="top"/>
  <anchor x="480" y="662" name="topright"/>
  <outline>
    <contour>
      <point x="240" y="0" type="curve" smooth="yes"/>
      <point x="424" y="0" type="line"/>
      <point x="461" y="176" type="line"/>
      <point x="345" y="176" type="line"/>
      <point x="452" y="687" type="line"/>
      <point x="210" y="687" type="line"/>
      <point x="102" y="167" type="line" smooth="yes"/>
      <point x="78" y="54"/>
      <point x="131" y="0"/>
    </contour>
    <contour>
      <point x="48" y="383" type="line"/>
      <point x="504" y="383" type="line"/>
      <point x="538" y="545" type="line"/>
      <point x="81" y="545" type="line"/>
    </contour>
  </outline>
</glyph>
<glyph name="v" format="2">
  <advance width="802"/>
  <unicode hex="0076"/>
  <note>
v
</note>
  <anchor x="354" y="0" name="bottom"/>
  <anchor x="470" y="545" name="top"/>
  <outline>
    <contour>
      <point x="198" y="0" type="line"/>
      <point x="495" y="0" type="line"/>
      <point x="845" y="545" type="line"/>
      <point x="584" y="545" type="line"/>
      <point x="407" y="235" type="line"/>
      <point x="376" y="176" type="line"/>
      <point x="370" y="176" type="line"/>
      <point x="361" y="235" type="line"/>
      <point x="303" y="545" type="line"/>
      <point x="73" y="545" type="line"/>
    </contour>
  </outline>
</glyph>
<glyph name="w" format="2">
  <advance width="1071"/>
  <unicode hex="0077"/>
  <note>
w
</note>
  <anchor x="478" y="0" name="bottom"/>
  <anchor x="592" y="545" name="top"/>
  <outline>
    <contour>
      <point x="129" y="0" type="line"/>
      <point x="409" y="0" type="line"/>
      <point x="502" y="219" type="line"/>
      <point x="532" y="297" type="line"/>
      <point x="540" y="297" type="line"/>
      <point x="537" y="219" type="line"/>
      <point x="539" y="0" type="line"/>
      <point x="827" y="0" type="line"/>
      <point x="1113" y="545" type="line"/>
      <point x="882" y="545" type="line"/>
      <point x="750" y="265" type="line"/>
      <point x="718" y="193" type="line"/>
      <point x="713" y="193" type="line"/>
      <point x="715" y="265" type="line"/>
      <point x="721" y="545" type="line"/>
      <point x="467" y="545" type="line"/>
      <point x="347" y="265" type="line"/>
      <point x="320" y="193" type="line"/>
      <point x="313" y="193" type="line"/>
      <point x="314" y="265" type="line"/>
      <point x="304" y="545" type="line"/>
      <point x="74" y="545" type="line"/>
    </contour>
  </outline>
</glyph>
<glyph name="x" format="2">
  <advance width="851"/>
  <unicode hex="0078"/>
  <note>
x
</note>
  <anchor x="378" y="0" name="bottom"/>
  <anchor x="493" y="545" name="top"/>
  <outline>
    <contour>
      <point x="-44" y="0" type="line"/>
      <point x="241" y="0" type="line"/>
      <point x="394" y="147" type="line"/>
      <point x="402" y="147" type="line"/>
      <point x="495" y="0" type="line"/>
      <point x="779" y="0" type="line"/>
      <point x="584" y="287" type="line"/>
      <point x="875" y="545" type="line"/>
      <point x="589" y="545" type="line"/>
      <point x="456" y="414" type="line"/>
      <point x="449" y="414" type="line"/>
      <point x="372" y="545" type="line"/>
      <point x="88" y="545" type="line"/>
      <point x="267" y="289" type="line"/>
    </contour>
  </outline>
</glyph>
<glyph name="y" format="2">
  <advance width="796"/>
  <unicode hex="0079"/>
  <note>
y
</note>
  <anchor x="614" y="0" name="bottom"/>
  <anchor x="426" y="545" name="top"/>
  <outline>
    <contour>
      <point x="-19" y="-167" type="line"/>
      <point x="282" y="-167" type="line" smooth="yes"/>
      <point x="367" y="-167"/>
      <point x="439" y="-124"/>
      <point x="457" y="-32" type="curve" smooth="yes"/>
      <point x="476" y="64" type="line"/>
      <point x="839" y="545" type="line"/>
      <point x="561" y="545" type="line"/>
      <point x="414" y="315" type="line"/>
      <point x="387" y="270" type="line"/>
      <point x="382" y="270" type="line"/>
      <point x="372" y="315" type="line"/>
      <point x="314" y="545" type="line"/>
      <point x="73" y="545" type="line"/>
      <point x="236" y="77" type="line"/>
      <point x="224" y="16" type="line"/>
      <point x="20" y="16" type="line"/>
    </contour>
  </outline>
</glyph>
<glyph name="z" format="2">
  <advance width="668"/>
  <unicode hex="007A"/>
  <note>
z
</note>
  <anchor x="283" y="0" name="bottom"/>
  <anchor x="341" y="273" name="center"/>
  <anchor x="399" y="545" name="top"/>
  <outline>
    <contour>
      <point x="-30" y="0" type="line"/>
      <point x="580" y="0" type="line"/>
      <point x="614" y="163" type="line"/>
      <point x="319" y="163" type="line"/>
      <point x="659" y="407" type="line"/>
      <point x="686" y="545" type="line"/>
      <point x="102" y="545" type="line"/>
      <point x="69" y="383" type="line"/>
      <point x="331" y="383" type="line"/>
      <point x="1" y="144" type="line"/>
    </contour>
  </outline>
</glyph>
<glyph name="braceleft" format="2">
  <advance width="494"/>
  <unicode hex="007B"/>
  <outline>
    <contour>
      <point x="175" y="-167" type="curve" smooth="yes"/>
      <point x="372" y="-167" type="line"/>
      <point x="406" y="-9" type="line"/>
      <point x="268" y="-9" type="line"/>
      <point x="305" y="173" type="line" smooth="yes"/>
      <point x="320" y="236"/>
      <point x="310" y="287"/>
      <point x="224" y="313" type="curve"/>
      <point x="225" y="323" type="line"/>
      <point x="301" y="336"/>
      <point x="348" y="369"/>
      <point x="367" y="459" type="curve" smooth="yes"/>
      <point x="404" y="630" type="line"/>
      <point x="542" y="630" type="line"/>
      <point x="576" y="791" type="line"/>
      <point x="379" y="791" type="line" smooth="yes"/>
      <point x="283" y="791"/>
      <point x="226" y="732"/>
      <point x="209" y="653" type="curve" smooth="yes"/>
      <point x="171" y="474" type="line" smooth="yes"/>
      <point x="162" y="429"/>
      <point x="132" y="398"/>
      <point x="93" y="398" type="curve" smooth="yes"/>
      <point x="55" y="398" type="line"/>
      <point x="19" y="227" type="line"/>
      <point x="57" y="227" type="line" smooth="yes"/>
      <point x="95" y="227"/>
      <point x="113" y="199"/>
      <point x="103" y="150" type="curve" smooth="yes"/>
      <point x="65" y="-29" type="line" smooth="yes"/>
      <point x="48" y="-108"/>
      <point x="79" y="-167"/>
    </contour>
  </outline>
</glyph>
<glyph name="asciitilde" format="2">
  <advance width="725"/>
  <unicode hex="007E"/>
  <outline>
    <contour>
      <point x="100" y="262" type="curve"/>
      <point x="205" y="262" type="line"/>
      <point x="206" y="284"/>
      <point x="227" y="321"/>
      <point x="270" y="321" type="curve" smooth="yes"/>
      <point x="329" y="321"/>
      <point x="356" y="247"/>
      <point x="470" y="247" type="curve" smooth="yes"/>
      <point x="539" y="247"/>
      <point x="640" y="295"/>
      <point x="666" y="475" type="curve"/>
      <point x="563" y="475" type="line"/>
      <point x="556" y="449"/>
      <point x="535" y="420"/>
      <point x="488" y="420" type="curve" smooth="yes"/>
      <point x="417" y="420"/>
      <point x="390" y="485"/>
      <point x="295" y="485" type="curve" smooth="yes"/>
      <point x="206" y="485"/>
      <point x="119" y="415"/>
    </contour>
  </outline>
</glyph>
<glyph name="cent" format="2">
  <advance width="779"/>
  <unicode hex="00A2"/>
  <anchor x="357" y="92" name="bottom"/>
  <anchor x="471" y="637" name="top"/>
  <outline>
    <contour>
      <point x="366" y="586" type="line"/>
      <point x="545" y="586" type="line"/>
      <point x="588" y="729" type="line"/>
      <point x="384" y="729" type="line"/>
    </contour>
    <contour>
      <point x="230" y="0" type="line"/>
      <point x="434" y="0" type="line"/>
      <point x="452" y="146" type="line"/>
      <point x="273" y="146" type="line"/>
    </contour>
    <contour>
      <point x="383" y="80" type="curve" smooth="yes"/>
      <point x="564" y="80"/>
      <point x="724" y="170"/>
      <point x="754" y="303" type="curve"/>
      <point x="512" y="303" type="line"/>
      <point x="499" y="266"/>
      <point x="456" y="242"/>
      <point x="400" y="242" type="curve" smooth="yes"/>
      <point x="329" y="242"/>
      <point x="292" y="283"/>
      <point x="304" y="345" type="curve" smooth="yes"/>
      <point x="315" y="400" type="line" smooth="yes"/>
      <point x="325" y="455"/>
      <point x="368" y="487"/>
      <point x="438" y="487" type="curve" smooth="yes"/>
      <point x="489" y="487"/>
      <point x="528" y="463"/>
      <point x="534" y="427" type="curve"/>
      <point x="771" y="427" type="line"/>
      <point x="759" y="562"/>
      <point x="628" y="649"/>
      <point x="446" y="649" type="curve" smooth="yes"/>
      <point x="242" y="649"/>
      <point x="91" y="550"/>
      <point x="62" y="405" type="curve" smooth="yes"/>
      <point x="61" y="400" type="line" smooth="yes"/>
      <point x="21" y="200"/>
      <point x="166" y="80"/>
    </contour>
  </outline>
</glyph>
<glyph name="sterling" format="2">
  <advance width="793"/>
  <unicode hex="00A3"/>
  <outline>
    <contour>
      <point x="-14" y="0" type="line"/>
      <point x="698" y="0" type="line"/>
      <point x="745" y="225" type="line"/>
      <point x="567" y="225" type="line"/>
      <point x="558" y="181" type="line"/>
      <point x="341" y="181" type="line"/>
      <point x="361" y="276" type="line"/>
      <point x="540" y="276" type="line"/>
      <point x="573" y="432" type="line"/>
      <point x="394" y="432" type="line"/>
      <point x="406" y="489" type="line" smooth="yes"/>
      <point x="413" y="527"/>
      <point x="441" y="552"/>
      <point x="489" y="552" type="curve" smooth="yes"/>
      <point x="539" y="552"/>
      <point x="569" y="525"/>
      <point x="563" y="476" type="curve" smooth="yes"/>
      <point x="562" y="467" type="line"/>
      <point x="778" y="467" type="line"/>
      <point x="779" y="486" type="line" smooth="yes"/>
      <point x="789" y="639"/>
      <point x="671" y="740"/>
      <point x="492" y="740" type="curve" smooth="yes"/>
      <point x="337" y="740"/>
      <point x="210" y="674"/>
      <point x="175" y="514" type="curve" smooth="yes"/>
      <point x="158" y="432" type="line"/>
      <point x="71" y="408" type="line"/>
      <point x="43" y="276" type="line"/>
      <point x="126" y="276" type="line"/>
      <point x="105" y="181" type="line"/>
      <point x="24" y="181" type="line"/>
    </contour>
  </outline>
</glyph>
<glyph name="currency" format="2">
  <advance width="834"/>
  <unicode hex="00A4"/>
  <outline>
    <contour>
      <point x="245" y="48" type="line"/>
      <point x="347" y="151" type="line"/>
      <point x="375" y="144"/>
      <point x="405" y="141"/>
      <point x="437" y="141" type="curve" smooth="yes"/>
      <point x="463" y="141"/>
      <point x="500" y="144"/>
      <point x="529" y="150" type="curve"/>
      <point x="634" y="48" type="line"/>
      <point x="752" y="174" type="line"/>
      <point x="657" y="265" type="line"/>
      <point x="669" y="294"/>
      <point x="675" y="328"/>
      <point x="675" y="358" type="curve" smooth="yes"/>
      <point x="675" y="389"/>
      <point x="669" y="422"/>
      <point x="652" y="455" type="curve"/>
      <point x="750" y="546" type="line"/>
      <point x="628" y="669" type="line"/>
      <point x="522" y="566" type="line"/>
      <point x="494" y="573"/>
      <point x="459" y="576"/>
      <point x="434" y="576" type="curve" smooth="yes"/>
      <point x="409" y="576"/>
      <point x="377" y="575"/>
      <point x="347" y="566" type="curve"/>
      <point x="242" y="669" type="line"/>
      <point x="119" y="546" type="line"/>
      <point x="217" y="455" type="line"/>
      <point x="205" y="426"/>
      <point x="199" y="393"/>
      <point x="200" y="358" type="curve" smooth="yes"/>
      <point x="200" y="332"/>
      <point x="203" y="298"/>
      <point x="218" y="265" type="curve"/>
      <point x="122" y="174" type="line"/>
    </contour>
    <contour>
      <point x="436" y="307" type="curve" smooth="yes"/>
      <point x="404" y="307"/>
      <point x="379" y="328"/>
      <point x="379" y="357" type="curve" smooth="yes"/>
      <point x="378" y="388"/>
      <point x="398" y="409"/>
      <point x="435" y="409" type="curve" smooth="yes"/>
      <point x="467" y="409"/>
      <point x="491" y="389"/>
      <point x="492" y="357" type="curve" smooth="yes"/>
      <point x="492" y="330"/>
      <point x="470" y="307"/>
    </contour>
  </outline>
</glyph>
<glyph name="brokenbar" format="2">
  <advance width="359"/>
  <unicode hex="00A6"/>
  <outline>
    <contour>
      <point x="99" y="378" type="line"/>
      <point x="305" y="378" type="line"/>
      <point x="380" y="729" type="line"/>
      <point x="174" y="729" type="line"/>
    </contour>
    <contour>
      <point x="5" y="-67" type="line"/>
      <point x="210" y="-67" type="line"/>
      <point x="285" y="284" type="line"/>
      <point x="81" y="284" type="line"/>
    </contour>
  </outline>
</glyph>
<glyph name="section" format="2">
  <advance width="579"/>
  <unicode hex="00A7"/>
  <outline>
    <contour>
      <point x="274" y="-10" type="curve" smooth="yes"/>
      <point x="403" y="-10"/>
      <point x="510" y="54"/>
      <point x="510" y="168" type="curve" smooth="yes"/>
      <point x="510" y="199"/>
      <point x="500" y="231"/>
      <point x="481" y="256" type="curve"/>
      <point x="532" y="278"/>
      <point x="560" y="322"/>
      <point x="560" y="372" type="curve" smooth="yes"/>
      <point x="560" y="446"/>
      <point x="509" y="486"/>
      <point x="402" y="521" type="curve" smooth="yes"/>
      <point x="343" y="540"/>
      <point x="310" y="552"/>
      <point x="310" y="573" type="curve" smooth="yes"/>
      <point x="310" y="596"/>
      <point x="328" y="605"/>
      <point x="351" y="605" type="curve" smooth="yes"/>
      <point x="383" y="605"/>
      <point x="415" y="595"/>
      <point x="409" y="558" type="curve"/>
      <point x="593" y="558" type="line"/>
      <point x="594" y="672"/>
      <point x="488" y="737"/>
      <point x="351" y="737" type="curve" smooth="yes"/>
      <point x="223" y="737"/>
      <point x="118" y="672"/>
      <point x="118" y="556" type="curve" smooth="yes"/>
      <point x="118" y="526"/>
      <point x="128" y="498"/>
      <point x="152" y="474" type="curve"/>
      <point x="99" y="448"/>
      <point x="68" y="401"/>
      <point x="68" y="351" type="curve" smooth="yes"/>
      <point x="68" y="271"/>
      <point x="133" y="237"/>
      <point x="221" y="208" type="curve" smooth="yes"/>
      <point x="296" y="182"/>
      <point x="315" y="175"/>
      <point x="315" y="155" type="curve" smooth="yes"/>
      <point x="315" y="131"/>
      <point x="297" y="122"/>
      <point x="269" y="122" type="curve" smooth="yes"/>
      <point x="229" y="122"/>
      <point x="196" y="139"/>
      <point x="199" y="175" type="curve"/>
      <point x="11" y="175" type="line"/>
      <point x="7" y="54"/>
      <point x="130" y="-10"/>
    </contour>
    <contour>
      <point x="354" y="324" type="curve"/>
      <point x="334" y="334"/>
      <point x="308" y="344"/>
      <point x="293" y="349" type="curve" smooth="yes"/>
      <point x="262" y="360"/>
      <point x="252" y="369"/>
      <point x="252" y="385" type="curve" smooth="yes"/>
      <point x="252" y="394"/>
      <point x="257" y="404"/>
      <point x="264" y="413" type="curve"/>
      <point x="280" y="405"/>
      <point x="300" y="397"/>
      <point x="316" y="390" type="curve" smooth="yes"/>
      <point x="349" y="379"/>
      <point x="364" y="367"/>
      <point x="364" y="351" type="curve" smooth="yes"/>
      <point x="364" y="342"/>
      <point x="359" y="330"/>
    </contour>
  </outline>
</glyph>
<glyph name="ordfeminine" format="2">
  <advance width="476"/>
  <unicode hex="00AA"/>
  <outline>
    <contour>
      <point x="205" y="386" type="curve" smooth="yes"/>
      <point x="265" y="386"/>
      <point x="304" y="406"/>
      <point x="320" y="433" type="curve"/>
      <point x="325" y="433" type="line"/>
      <point x="336" y="392" type="line"/>
      <point x="474" y="392" type="line"/>
      <point x="474" y="622" type="line" smooth="yes"/>
      <point x="474" y="698"/>
      <point x="420" y="757"/>
      <point x="285" y="757" type="curve" smooth="yes"/>
      <point x="161" y="757"/>
      <point x="92" y="701"/>
      <point x="92" y="619" type="curve"/>
      <point x="231" y="619" type="line"/>
      <point x="231" y="636"/>
      <point x="246" y="648"/>
      <point x="276" y="648" type="curve" smooth="yes"/>
      <point x="311" y="648"/>
      <point x="321" y="635"/>
      <point x="321" y="622" type="curve" smooth="yes"/>
      <point x="321" y="607" type="line"/>
      <point x="326" y="616" type="line"/>
      <point x="221" y="607" type="line" smooth="yes"/>
      <point x="131" y="599"/>
      <point x="81" y="560"/>
      <point x="81" y="492" type="curve" smooth="yes"/>
      <point x="81" y="487" type="line" smooth="yes"/>
      <point x="81" y="430"/>
      <point x="120" y="386"/>
    </contour>
    <contour>
      <point x="278" y="493" type="curve" smooth="yes"/>
      <point x="259" y="493"/>
      <point x="244" y="499"/>
      <point x="244" y="511" type="curve" smooth="yes"/>
      <point x="244" y="516" type="line" smooth="yes"/>
      <point x="244" y="527"/>
      <point x="250" y="535"/>
      <point x="271" y="536" type="curve" smooth="yes"/>
      <point x="321" y="540" type="line"/>
      <point x="321" y="521" type="line" smooth="yes"/>
      <point x="321" y="502"/>
      <point x="303" y="493"/>
    </contour>
  </outline>
</glyph>
<glyph name="logicalnot" format="2">
  <advance width="720"/>
  <unicode hex="00AC"/>
  <outline>
    <contour>
      <point x="388" y="117" type="line"/>
      <point x="568" y="117" type="line"/>
      <point x="639" y="451" type="line"/>
      <point x="150" y="451" type="line"/>
      <point x="112" y="271" type="line"/>
      <point x="420" y="271" type="line"/>
    </contour>
  </outline>
</glyph>
<glyph name="registered" format="2">
  <advance width="654"/>
  <unicode hex="00AE"/>
  <outline>
    <contour>
      <point x="356" y="203" type="curve"/>
      <point x="532" y="203"/>
      <point x="655" y="319"/>
      <point x="655" y="487" type="curve" smooth="yes"/>
      <point x="655" y="638"/>
      <point x="542" y="739"/>
      <point x="381" y="739" type="curve" smooth="yes"/>
      <point x="205" y="739"/>
      <point x="83" y="623"/>
      <point x="83" y="455" type="curve" smooth="yes"/>
      <point x="83" y="304"/>
      <point x="195" y="203"/>
    </contour>
    <contour>
      <point x="357" y="258" type="curve" smooth="yes"/>
      <point x="229" y="258"/>
      <point x="144" y="339"/>
      <point x="144" y="456" type="curve" smooth="yes"/>
      <point x="144" y="593"/>
      <point x="239" y="684"/>
      <point x="380" y="684" type="curve" smooth="yes"/>
      <point x="508" y="684"/>
      <point x="593" y="603"/>
      <point x="593" y="486" type="curve" smooth="yes"/>
      <point x="593" y="349"/>
      <point x="498" y="258"/>
    </contour>
    <contour>
      <point x="198" y="342" type="line"/>
      <point x="308" y="342" type="line"/>
      <point x="347" y="524" type="line"/>
      <point x="416" y="524" type="line" smooth="yes"/>
      <point x="430" y="524"/>
      <point x="437" y="516"/>
      <point x="434" y="506" type="curve" smooth="yes"/>
      <point x="433" y="501" type="line" smooth="yes"/>
      <point x="431" y="491"/>
      <point x="424" y="485"/>
      <point x="409" y="485" type="curve" smooth="yes"/>
      <point x="332" y="485" type="line"/>
      <point x="319" y="421" type="line"/>
      <point x="343" y="421" type="line"/>
      <point x="398" y="342" type="line"/>
      <point x="522" y="342" type="line"/>
      <point x="449" y="444" type="line"/>
      <point x="447" y="437" type="line"/>
      <point x="450" y="437" type="line" smooth="yes"/>
      <point x="513" y="443"/>
      <point x="547" y="479"/>
      <point x="547" y="525" type="curve" smooth="yes"/>
      <point x="547" y="574"/>
      <point x="508" y="602"/>
      <point x="438" y="602" type="curve" smooth="yes"/>
      <point x="255" y="602" type="line"/>
    </contour>
  </outline>
</glyph>
<glyph name="degree" format="2">
  <advance width="409"/>
  <unicode hex="00B0"/>
  <outline>
    <contour>
      <point x="258" y="387" type="curve" smooth="yes"/>
      <point x="368" y="387"/>
      <point x="452" y="457"/>
      <point x="455" y="564" type="curve" smooth="yes"/>
      <point x="459" y="670"/>
      <point x="380" y="739"/>
      <point x="271" y="739" type="curve" smooth="yes"/>
      <point x="161" y="739"/>
      <point x="78" y="668"/>
      <point x="74" y="562" type="curve" smooth="yes"/>
      <point x="71" y="456"/>
      <point x="149" y="387"/>
    </contour>
    <contour>
      <point x="262" y="506" type="curve" smooth="yes"/>
      <point x="231" y="506"/>
      <point x="206" y="527"/>
      <point x="207" y="563" type="curve" smooth="yes"/>
      <point x="208" y="598"/>
      <point x="235" y="620"/>
      <point x="267" y="620" type="curve" smooth="yes"/>
      <point x="300" y="620"/>
      <point x="324" y="600"/>
      <point x="323" y="563" type="curve" smooth="yes"/>
      <point x="321" y="527"/>
      <point x="295" y="506"/>
    </contour>
  </outline>
</glyph>
<glyph name="plusminus" format="2">
  <advance width="720"/>
  <unicode hex="00B1"/>
  <outline>
    <contour>
      <point x="255" y="207" type="line"/>
      <point x="437" y="207" type="line"/>
      <point x="463" y="327" type="line"/>
      <point x="633" y="327" type="line"/>
      <point x="669" y="501" type="line"/>
      <point x="500" y="501" type="line"/>
      <point x="525" y="618" type="line"/>
      <point x="342" y="618" type="line"/>
      <point x="317" y="501" type="line"/>
      <point x="152" y="501" type="line"/>
      <point x="116" y="327" type="line"/>
      <point x="280" y="327" type="line"/>
    </contour>
    <contour>
      <point x="46" y="0" type="line"/>
      <point x="563" y="0" type="line"/>
      <point x="594" y="148" type="line"/>
      <point x="78" y="148" type="line"/>
    </contour>
  </outline>
</glyph>
<glyph name="paragraph" format="2">
  <advance width="976"/>
  <unicode hex="00B6"/>
  <outline>
    <contour>
      <point x="299" y="-151" type="line"/>
      <point x="518" y="-151" type="line"/>
      <point x="512" y="536" type="line"/>
      <point x="617" y="536" type="line"/>
      <point x="622" y="-151" type="line"/>
      <point x="841" y="-151" type="line"/>
      <point x="835" y="536" type="line"/>
      <point x="928" y="536" type="line"/>
      <point x="926" y="729" type="line"/>
      <point x="330" y="729" type="line" smooth="yes"/>
      <point x="153" y="729"/>
      <point x="70" y="653"/>
      <point x="71" y="512" type="curve" smooth="yes"/>
      <point x="71" y="392"/>
      <point x="154" y="311"/>
      <point x="295" y="312" type="curve"/>
    </contour>
  </outline>
</glyph>
<glyph name="ordmasculine" format="2">
  <advance width="445"/>
  <unicode hex="00BA"/>
  <outline>
    <contour>
      <point x="286" y="386" type="curve" smooth="yes"/>
      <point x="406" y="386"/>
      <point x="487" y="443"/>
      <point x="487" y="570" type="curve" smooth="yes"/>
      <point x="487" y="570" type="line" smooth="yes"/>
      <point x="487" y="676"/>
      <point x="428" y="757"/>
      <point x="286" y="757" type="curve" smooth="yes"/>
      <point x="165" y="757"/>
      <point x="84" y="696"/>
      <point x="84" y="570" type="curve" smooth="yes"/>
      <point x="84" y="570" type="line" smooth="yes"/>
      <point x="84" y="462"/>
      <point x="148" y="386"/>
    </contour>
    <contour>
      <point x="286" y="499" type="curve" smooth="yes"/>
      <point x="251" y="499"/>
      <point x="243" y="524"/>
      <point x="243" y="550" type="curve" smooth="yes"/>
      <point x="243" y="591" type="line" smooth="yes"/>
      <point x="243" y="621"/>
      <point x="253" y="643"/>
      <point x="286" y="643" type="curve" smooth="yes"/>
      <point x="311" y="643"/>
      <point x="329" y="630"/>
      <point x="329" y="591" type="curve" smooth="yes"/>
      <point x="329" y="550" type="line" smooth="yes"/>
      <point x="329" y="510"/>
      <point x="311" y="499"/>
    </contour>
  </outline>
</glyph>
<glyph name="multiply" format="2">
  <advance width="720"/>
  <unicode hex="00D7"/>
  <outline>
    <contour>
      <point x="188" y="94" type="line"/>
      <point x="679" y="498" type="line"/>
      <point x="577" y="628" type="line"/>
      <point x="87" y="224" type="line"/>
    </contour>
    <contour>
      <point x="470" y="98" type="line"/>
      <point x="614" y="220" type="line"/>
      <point x="297" y="624" type="line"/>
      <point x="151" y="503" type="line"/>
    </contour>
  </outline>
</glyph>
<glyph name="Thorn" format="2">
  <advance width="856"/>
  <unicode hex="00DE"/>
  <outline>
    <contour>
      <point x="-4" y="0" type="line"/>
      <point x="258" y="0" type="line"/>
      <point x="412" y="729" type="line"/>
      <point x="150" y="729" type="line"/>
    </contour>
    <contour>
      <point x="229" y="102" type="line"/>
      <point x="510" y="102" type="line" smooth="yes"/>
      <point x="710" y="102"/>
      <point x="846" y="220"/>
      <point x="846" y="393" type="curve" smooth="yes"/>
      <point x="846" y="549"/>
      <point x="737" y="628"/>
      <point x="559" y="628" type="curve" smooth="yes"/>
      <point x="343" y="628" type="line"/>
      <point x="302" y="441" type="line"/>
      <point x="497" y="441" type="line" smooth="yes"/>
      <point x="546" y="441"/>
      <point x="576" y="414"/>
      <point x="567" y="363" type="curve" smooth="yes"/>
      <point x="565" y="349" type="line" smooth="yes"/>
      <point x="559" y="308"/>
      <point x="523" y="281"/>
      <point x="467" y="281" type="curve" smooth="yes"/>
      <point x="267" y="281" type="line"/>
    </contour>
  </outline>
</glyph>
<glyph name="germandbls" format="2">
  <advance width="777"/>
  <unicode hex="00DF"/>
  <outline>
    <contour>
      <point x="54" y="0" type="line"/>
      <point x="283" y="0" type="line"/>
      <point x="378" y="478" type="line" smooth="yes"/>
      <point x="388" y="528"/>
      <point x="422" y="564"/>
      <point x="477" y="564" type="curve" smooth="yes"/>
      <point x="521" y="564"/>
      <point x="553" y="540"/>
      <point x="545" y="492" type="curve" smooth="yes"/>
      <point x="539" y="461"/>
      <point x="520" y="437"/>
      <point x="465" y="437" type="curve" smooth="yes"/>
      <point x="426" y="437" type="line"/>
      <point x="400" y="313" type="line"/>
      <point x="451" y="313" type="line" smooth="yes"/>
      <point x="502" y="313"/>
      <point x="527" y="279"/>
      <point x="518" y="231" type="curve" smooth="yes"/>
      <point x="516" y="219" type="line" smooth="yes"/>
      <point x="510" y="183"/>
      <point x="481" y="154"/>
      <point x="429" y="154" type="curve" smooth="yes"/>
      <point x="368" y="154" type="line"/>
      <point x="335" y="0" type="line"/>
      <point x="471" y="0" type="line" smooth="yes"/>
      <point x="599" y="0"/>
      <point x="710" y="52"/>
      <point x="733" y="163" type="curve" smooth="yes"/>
      <point x="742" y="214"/>
      <point x="744" y="338"/>
      <point x="620" y="370" type="curve"/>
      <point x="621" y="379" type="line"/>
      <point x="683" y="397"/>
      <point x="727" y="443"/>
      <point x="741" y="505" type="curve" smooth="yes"/>
      <point x="760" y="601"/>
      <point x="707" y="741"/>
      <point x="480" y="741" type="curve" smooth="yes"/>
      <point x="314" y="741"/>
      <point x="187" y="656"/>
      <point x="157" y="504" type="curve" smooth="yes"/>
    </contour>
    <contour>
      <point x="47" y="383" type="line"/>
      <point x="195" y="383" type="line"/>
      <point x="229" y="545" type="line"/>
      <point x="81" y="545" type="line"/>
    </contour>
  </outline>
</glyph>
<glyph name="ae" format="2">
  <advance width="1106"/>
  <unicode hex="00E6"/>
  <outline>
    <contour>
      <point x="211" y="-12" type="curve" smooth="yes"/>
      <point x="297" y="-12"/>
      <point x="391" y="19"/>
      <point x="442" y="70" type="curve"/>
      <point x="456" y="70" type="line"/>
      <point x="501" y="21"/>
      <point x="599" y="-12"/>
      <point x="701" y="-12" type="curve" smooth="yes"/>
      <point x="880" y="-12"/>
      <point x="1025" y="64"/>
      <point x="1060" y="174" type="curve"/>
      <point x="828" y="174" type="line"/>
      <point x="812" y="148"/>
      <point x="770" y="129"/>
      <point x="716" y="129" type="curve" smooth="yes"/>
      <point x="641" y="129"/>
      <point x="594" y="169"/>
      <point x="608" y="241" type="curve" smooth="yes"/>
      <point x="628" y="341" type="line" smooth="yes"/>
      <point x="636" y="386"/>
      <point x="681" y="418"/>
      <point x="750" y="418" type="curve" smooth="yes"/>
      <point x="816" y="418"/>
      <point x="859" y="383"/>
      <point x="858" y="322" type="curve" smooth="yes"/>
      <point x="858" y="319" type="line"/>
      <point x="875" y="334" type="line"/>
      <point x="594" y="334" type="line"/>
      <point x="569" y="219" type="line"/>
      <point x="1073" y="219" type="line"/>
      <point x="1075" y="233" type="line" smooth="yes"/>
      <point x="1102" y="430"/>
      <point x="964" y="557"/>
      <point x="748" y="557" type="curve" smooth="yes"/>
      <point x="667" y="557"/>
      <point x="596" y="540"/>
      <point x="539" y="509" type="curve"/>
      <point x="487" y="546"/>
      <point x="424" y="558"/>
      <point x="351" y="558" type="curve" smooth="yes"/>
      <point x="197" y="559"/>
      <point x="64" y="490"/>
      <point x="41" y="353" type="curve"/>
      <point x="244" y="353" type="line"/>
      <point x="249" y="389"/>
      <point x="280" y="411"/>
      <point x="332" y="410" type="curve" smooth="yes"/>
      <point x="388" y="410"/>
      <point x="422" y="388"/>
      <point x="412" y="332" type="curve" smooth="yes"/>
      <point x="406" y="288" type="line" smooth="yes"/>
      <point x="398" y="242"/>
      <point x="401" y="193"/>
      <point x="408" y="162" type="curve"/>
      <point x="386" y="142"/>
      <point x="347" y="130"/>
      <point x="309" y="130" type="curve" smooth="yes"/>
      <point x="271" y="130"/>
      <point x="246" y="144"/>
      <point x="246" y="171" type="curve" smooth="yes"/>
      <point x="246" y="201"/>
      <point x="270" y="223"/>
      <point x="335" y="223" type="curve" smooth="yes"/>
      <point x="421" y="223" type="line"/>
      <point x="442" y="324" type="line"/>
      <point x="292" y="324" type="line" smooth="yes"/>
      <point x="122" y="324"/>
      <point x="11" y="263"/>
      <point x="10" y="141" type="curve" smooth="yes"/>
      <point x="10" y="50"/>
      <point x="84" y="-12"/>
    </contour>
  </outline>
</glyph>
<glyph name="eth" format="2">
  <advance width="746"/>
  <unicode hex="00F0"/>
  <outline>
    <contour>
      <point x="335" y="-11" type="curve" smooth="yes"/>
      <point x="534" y="-11"/>
      <point x="685" y="78"/>
      <point x="713" y="232" type="curve" smooth="yes"/>
      <point x="715" y="243" type="line" smooth="yes"/>
      <point x="748" y="425"/>
      <point x="635" y="606"/>
      <point x="472" y="729" type="curve"/>
      <point x="243" y="729" type="line"/>
      <point x="358" y="595"/>
      <point x="424" y="510"/>
      <point x="458" y="444" type="curve"/>
      <point x="449" y="445" type="line"/>
      <point x="416" y="482"/>
      <point x="359" y="499"/>
      <point x="301" y="499" type="curve" smooth="yes"/>
      <point x="164" y="499"/>
      <point x="56" y="423"/>
      <point x="28" y="296" type="curve" smooth="yes"/>
      <point x="26" y="288" type="line" smooth="yes"/>
      <point x="-13" y="107"/>
      <point x="128" y="-11"/>
    </contour>
    <contour>
      <point x="357" y="153" type="curve" smooth="yes"/>
      <point x="290" y="153"/>
      <point x="248" y="194"/>
      <point x="260" y="259" type="curve" smooth="yes"/>
      <point x="267" y="289" type="line" smooth="yes"/>
      <point x="277" y="339"/>
      <point x="319" y="363"/>
      <point x="372" y="363" type="curve" smooth="yes"/>
      <point x="417" y="363"/>
      <point x="458" y="348"/>
      <point x="490" y="317" type="curve"/>
      <point x="486" y="295"/>
      <point x="484" y="281"/>
      <point x="479" y="261" type="curve" smooth="yes"/>
      <point x="473" y="227" type="line" smooth="yes"/>
      <point x="464" y="183"/>
      <point x="425" y="153"/>
    </contour>
    <contour>
      <point x="174" y="502" type="line"/>
      <point x="685" y="609" type="line"/>
      <point x="710" y="730" type="line"/>
      <point x="199" y="622" type="line"/>
    </contour>
  </outline>
</glyph>
<glyph name="divide" format="2">
  <advance width="720"/>
  <unicode hex="00F7"/>
  <outline>
    <contour>
      <point x="97" y="276" type="line"/>
      <point x="630" y="276" type="line"/>
      <point x="668" y="454" type="line"/>
      <point x="135" y="454" type="line"/>
    </contour>
    <contour>
      <point x="317" y="497" type="line"/>
      <point x="504" y="497" type="line"/>
      <point x="538" y="657" type="line"/>
      <point x="352" y="657" type="line"/>
    </contour>
    <contour>
      <point x="228" y="73" type="line"/>
      <point x="413" y="73" type="line"/>
      <point x="447" y="233" type="line"/>
      <point x="262" y="233" type="line"/>
    </contour>
  </outline>
</glyph>
<glyph name="thorn" format="2">
  <advance width="798"/>
  <unicode hex="00FE"/>
  <outline>
    <contour>
      <point x="-47" y="-167" type="line"/>
      <point x="194" y="-167" type="line"/>
      <point x="243" y="64" type="line"/>
      <point x="252" y="64" type="line"/>
      <point x="291" y="18"/>
      <point x="370" y="-12"/>
      <point x="449" y="-12" type="curve" smooth="yes"/>
      <point x="612" y="-12"/>
      <point x="730" y="77"/>
      <point x="757" y="219" type="curve" smooth="yes"/>
      <point x="759" y="230" type="line" smooth="yes"/>
      <point x="795" y="427"/>
      <point x="666" y="558"/>
      <point x="499" y="558" type="curve" smooth="yes"/>
      <point x="437" y="558"/>
      <point x="375" y="537"/>
      <point x="344" y="507" type="curve"/>
      <point x="335" y="507" type="line"/>
      <point x="382" y="729" type="line"/>
      <point x="141" y="729" type="line"/>
    </contour>
    <contour>
      <point x="387" y="150" type="curve" smooth="yes"/>
      <point x="336" y="150"/>
      <point x="291" y="174"/>
      <point x="274" y="211" type="curve"/>
      <point x="303" y="357" type="line"/>
      <point x="326" y="380"/>
      <point x="367" y="395"/>
      <point x="405" y="395" type="curve" smooth="yes"/>
      <point x="484" y="395"/>
      <point x="528" y="342"/>
      <point x="514" y="261" type="curve" smooth="yes"/>
      <point x="512" y="248" type="line" smooth="yes"/>
      <point x="503" y="188"/>
      <point x="455" y="150"/>
    </contour>
  </outline>
</glyph>
<glyph name="idotless" format="2">
  <advance width="332"/>
  <unicode hex="0131"/>
  <anchor x="108" y="0" name="bottom"/>
  <anchor x="230" y="0" name="ogonek"/>
  <anchor x="224" y="545" name="top"/>
  <outline>
    <contour>
      <point x="-12" y="0" type="line"/>
      <point x="230" y="0" type="line"/>
      <point x="343" y="545" type="line"/>
      <point x="102" y="545" type="line"/>
    </contour>
  </outline>
</glyph>
<glyph name="Eng" format="2">
  <advance width="991"/>
  <unicode hex="014A"/>
  <outline>
    <contour>
      <point x="426" y="-167" type="line"/>
      <point x="687" y="-167" type="line" smooth="yes"/>
      <point x="782" y="-167"/>
      <point x="856" y="-111"/>
      <point x="878" y="-9" type="curve" smooth="yes"/>
      <point x="1032" y="729" type="line"/>
      <point x="782" y="729" type="line"/>
      <point x="688" y="283" type="line"/>
      <point x="676" y="283" type="line"/>
      <point x="664" y="326" type="line"/>
      <point x="504" y="729" type="line"/>
      <point x="150" y="729" type="line"/>
      <point x="-3" y="0" type="line"/>
      <point x="248" y="0" type="line"/>
      <point x="345" y="466" type="line"/>
      <point x="357" y="466" type="line"/>
      <point x="367" y="424" type="line"/>
      <point x="528" y="35" type="line"/>
      <point x="627" y="35" type="line"/>
      <point x="620" y="-7" type="line"/>
      <point x="459" y="-7" type="line"/>
    </contour>
  </outline>
</glyph>
<glyph name="eng" format="2">
  <advance width="778"/>
  <unicode hex="014B"/>
  <outline>
    <contour>
      <point x="310" y="-167" type="line"/>
      <point x="470" y="-167" type="line" smooth="yes"/>
      <point x="578" y="-167"/>
      <point x="661" y="-115"/>
      <point x="684" y="-1" type="curve" smooth="yes"/>
      <point x="748" y="304" type="line" smooth="yes"/>
      <point x="779" y="454"/>
      <point x="707" y="557"/>
      <point x="543" y="557" type="curve" smooth="yes"/>
      <point x="469" y="557"/>
      <point x="391" y="534"/>
      <point x="336" y="493" type="curve"/>
      <point x="328" y="493" type="line"/>
      <point x="320" y="545" type="line"/>
      <point x="102" y="545" type="line"/>
      <point x="-12" y="0" type="line"/>
      <point x="229" y="0" type="line"/>
      <point x="303" y="356" type="line"/>
      <point x="334" y="381"/>
      <point x="380" y="396"/>
      <point x="425" y="396" type="curve" smooth="yes"/>
      <point x="490" y="396"/>
      <point x="521" y="362"/>
      <point x="505" y="290" type="curve" smooth="yes"/>
      <point x="442" y="-10" type="line"/>
      <point x="344" y="-10" type="line"/>
    </contour>
  </outline>
</glyph>
<glyph name="florin" format="2">
  <advance width="658"/>
  <unicode hex="0192"/>
  <outline>
    <contour>
      <point x="375" y="80" type="curve"/>
      <point x="538" y="563" type="line"/>
      <point x="702" y="563" type="line"/>
      <point x="736" y="729" type="line"/>
      <point x="520" y="729" type="line" smooth="yes"/>
      <point x="415" y="729"/>
      <point x="342" y="676"/>
      <point x="301" y="564" type="curve" smooth="yes"/>
      <point x="142" y="89" type="line"/>
      <point x="-21" y="89" type="line"/>
      <point x="-57" y="-85" type="line"/>
      <point x="154" y="-85" type="line" smooth="yes"/>
      <point x="249" y="-85"/>
      <point x="333" y="-38"/>
    </contour>
    <contour>
      <point x="91" y="323" type="line"/>
      <point x="631" y="323" type="line"/>
      <point x="668" y="498" type="line"/>
      <point x="126" y="498" type="line"/>
    </contour>
  </outline>
</glyph>
<glyph name="jdotless" format="2">
  <advance width="330"/>
  <unicode hex="0237"/>
  <anchor x="223" y="545" name="top"/>
  <outline>
    <contour>
      <point x="-144" y="-167" type="line"/>
      <point x="31" y="-167" type="line" smooth="yes"/>
      <point x="130" y="-167"/>
      <point x="203" y="-123"/>
      <point x="223" y="-26" type="curve" smooth="yes"/>
      <point x="343" y="545" type="line"/>
      <point x="102" y="545" type="line"/>
      <point x="-18" y="-27" type="line"/>
      <point x="-115" y="-27" type="line"/>
    </contour>
  </outline>
</glyph>
<glyph name="gravecomb" format="2">
  <unicode hex="0300"/>
  <anchor x="320" y="545" name="_top"/>
  <outline>
    <contour>
      <point x="225" y="601" type="line"/>
      <point x="437" y="601" type="line"/>
      <point x="381" y="729" type="line"/>
      <point x="137" y="729" type="line"/>
    </contour>
  </outline>
</glyph>
<glyph name="acutecomb" format="2">
  <unicode hex="0301"/>
  <anchor x="209" y="545" name="_top"/>
  <outline>
    <contour>
      <point x="110" y="601" type="line"/>
      <point x="332" y="601" type="line"/>
      <point x="475" y="729" type="line"/>
      <point x="222" y="729" type="line"/>
    </contour>
  </outline>
</glyph>
<glyph name="circumflexcomb" format="2">
  <unicode hex="0302"/>
  <anchor x="385" y="545" name="_top"/>
  <outline>
    <contour>
      <point x="109" y="596" type="line"/>
      <point x="314" y="596" type="line"/>
      <point x="401" y="640" type="line"/>
      <point x="473" y="596" type="line"/>
      <point x="676" y="596" type="line"/>
      <point x="532" y="725" type="line"/>
      <point x="298" y="725" type="line"/>
    </contour>
  </outline>
</glyph>
<glyph name="tildecomb" format="2">
  <unicode hex="0303"/>
  <anchor x="302" y="545" name="_top"/>
  <outline>
    <contour>
      <point x="403" y="602" type="curve" smooth="yes"/>
      <point x="462" y="602"/>
      <point x="541" y="645"/>
      <point x="561" y="784" type="curve"/>
      <point x="482" y="784" type="line"/>
      <point x="475" y="746"/>
      <point x="451" y="727"/>
      <point x="418" y="727" type="curve" smooth="yes"/>
      <point x="361" y="727"/>
      <point x="339" y="779"/>
      <point x="265" y="779" type="curve" smooth="yes"/>
      <point x="211" y="779"/>
      <point x="133" y="742"/>
      <point x="110" y="599" type="curve"/>
      <point x="188" y="599" type="line"/>
      <point x="192" y="626"/>
      <point x="209" y="656"/>
      <point x="244" y="656" type="curve" smooth="yes"/>
      <point x="290" y="656"/>
      <point x="319" y="602"/>
    </contour>
  </outline>
</glyph>
<glyph name="macroncomb" format="2">
  <unicode hex="0304"/>
  <anchor x="352" y="545" name="_top"/>
  <outline>
    <contour>
      <point x="117" y="606" type="line"/>
      <point x="609" y="606" type="line"/>
      <point x="634" y="750" type="line"/>
      <point x="141" y="750" type="line"/>
    </contour>
  </outline>
</glyph>
<glyph name="brevecomb" format="2">
  <unicode hex="0306"/>
  <anchor x="345" y="545" name="_top"/>
  <outline>
    <contour>
      <point x="355" y="586" type="curve" smooth="yes"/>
      <point x="493" y="586"/>
      <point x="598" y="635"/>
      <point x="613" y="725" type="curve"/>
      <point x="452" y="725" type="line"/>
      <point x="450" y="701"/>
      <point x="415" y="686"/>
      <point x="369" y="686" type="curve" smooth="yes"/>
      <point x="326" y="686"/>
      <point x="294" y="699"/>
      <point x="298" y="725" type="curve"/>
      <point x="136" y="725" type="line"/>
      <point x="124" y="638"/>
      <point x="212" y="586"/>
    </contour>
  </outline>
</glyph>
<glyph name="dotaccentcomb" format="2">
  <unicode hex="0307"/>
  <anchor x="218" y="545" name="_top"/>
  <outline>
    <contour>
      <point x="112" y="608" type="line"/>
      <point x="353" y="608" type="line"/>
      <point x="382" y="748" type="line"/>
      <point x="141" y="748" type="line"/>
    </contour>
  </outline>
</glyph>
<glyph name="dieresiscomb" format="2">
  <unicode hex="0308"/>
  <anchor x="321" y="545" name="_top"/>
  <outline>
    <contour>
      <point x="110" y="601" type="line"/>
      <point x="304" y="601" type="line"/>
      <point x="332" y="730" type="line"/>
      <point x="137" y="730" type="line"/>
    </contour>
    <contour>
      <point x="360" y="601" type="line"/>
      <point x="555" y="601" type="line"/>
      <point x="584" y="730" type="line"/>
      <point x="389" y="730" type="line"/>
    </contour>
  </outline>
</glyph>
<glyph name="hookabovecomb" format="2">
  <unicode hex="0309"/>
  <anchor x="227" y="545" name="_top"/>
  <outline>
    <contour>
      <point x="185" y="591" type="line"/>
      <point x="338" y="612"/>
      <point x="424" y="669"/>
      <point x="424" y="751" type="curve" smooth="yes"/>
      <point x="424" y="817"/>
      <point x="366" y="858"/>
      <point x="232" y="858" type="curve" smooth="yes"/>
      <point x="208" y="858"/>
      <point x="185" y="857"/>
      <point x="163" y="853" type="curve"/>
      <point x="144" y="757" type="line"/>
      <point x="157" y="759"/>
      <point x="171" y="760"/>
      <point x="184" y="760" type="curve" smooth="yes"/>
      <point x="210" y="760"/>
      <point x="241" y="757"/>
      <point x="241" y="735" type="curve" smooth="yes"/>
      <point x="241" y="715"/>
      <point x="225" y="701"/>
      <point x="159" y="689" type="curve"/>
    </contour>
  </outline>
</glyph>
<glyph name="ringcomb" format="2">
  <unicode hex="030A"/>
  <anchor x="259" y="545" name="_top"/>
  <outline>
    <contour>
      <point x="272" y="591" type="curve" smooth="yes"/>
      <point x="365" y="591"/>
      <point x="428" y="647"/>
      <point x="428" y="721" type="curve" smooth="yes"/>
      <point x="427" y="788"/>
      <point x="374" y="832"/>
      <point x="293" y="832" type="curve" smooth="yes"/>
      <point x="198" y="832"/>
      <point x="134" y="777"/>
      <point x="134" y="701" type="curve" smooth="yes"/>
      <point x="134" y="635"/>
      <point x="189" y="591"/>
    </contour>
    <contour>
      <point x="278" y="674" type="curve" smooth="yes"/>
      <point x="257" y="674"/>
      <point x="244" y="687"/>
      <point x="244" y="705" type="curve" smooth="yes"/>
      <point x="243" y="731"/>
      <point x="260" y="749"/>
      <point x="285" y="749" type="curve" smooth="yes"/>
      <point x="305" y="749"/>
      <point x="319" y="737"/>
      <point x="319" y="718" type="curve" smooth="yes"/>
      <point x="320" y="692"/>
      <point x="304" y="674"/>
    </contour>
  </outline>
</glyph>
<glyph name="hungarumlautcomb" format="2">
  <unicode hex="030B"/>
  <anchor x="287" y="545" name="_top"/>
  <outline>
    <contour>
      <point x="110" y="601" type="line"/>
      <point x="278" y="601" type="line"/>
      <point x="409" y="729" type="line"/>
      <point x="196" y="729" type="line"/>
    </contour>
    <contour>
      <point x="334" y="601" type="line"/>
      <point x="517" y="601" type="line"/>
      <point x="682" y="729" type="line"/>
      <point x="453" y="729" type="line"/>
    </contour>
  </outline>
</glyph>
<glyph name="caroncomb" format="2">
  <unicode hex="030C"/>
  <anchor x="412" y="545" name="_top"/>
  <outline>
    <contour>
      <point x="280" y="596" type="line"/>
      <point x="514" y="596" type="line"/>
      <point x="704" y="725" type="line"/>
      <point x="498" y="725" type="line"/>
      <point x="412" y="682" type="line"/>
      <point x="339" y="725" type="line"/>
      <point x="136" y="725" type="line"/>
    </contour>
  </outline>
</glyph>
<glyph name="commaturnedabovecomb" format="2">
  <unicode hex="0312"/>
  <anchor x="210" y="545" name="_top"/>
  <outline>
    <contour>
      <point x="110" y="602" type="line"/>
      <point x="332" y="602" type="line"/>
      <point x="362" y="746" type="line"/>
      <point x="274" y="746" type="line"/>
      <point x="424" y="878" type="line"/>
      <point x="259" y="878" type="line"/>
      <point x="137" y="726" type="line"/>
    </contour>
  </outline>
</glyph>
<glyph name="horncomb" format="2">
  <unicode hex="031B"/>
  <anchor x="103" y="570" name="_topright"/>
  <outline>
    <contour>
      <point x="80" y="461" type="line"/>
      <point x="271" y="461"/>
      <point x="379" y="515"/>
      <point x="404" y="633" type="curve" smooth="yes"/>
      <point x="415" y="685" type="line"/>
      <point x="230" y="685" type="line"/>
      <point x="224" y="651" type="line" smooth="yes"/>
      <point x="210" y="588"/>
      <point x="170" y="572"/>
      <point x="103" y="570" type="curve"/>
    </contour>
  </outline>
</glyph>
<glyph name="dotbelowcomb" format="2">
  <unicode hex="0323"/>
  <anchor x="108" y="0" name="_bottom"/>
  <outline>
    <contour>
      <point x="-54" y="-170" type="line"/>
      <point x="197" y="-170" type="line"/>
      <point x="225" y="-39" type="line"/>
      <point x="-25" y="-39" type="line"/>
    </contour>
  </outline>
</glyph>
<glyph name="commaaccentcomb" format="2">
  <unicode hex="0326"/>
  <anchor x="111" y="0" name="_bottom"/>
  <outline>
    <contour>
      <point x="-85" y="-315" type="line"/>
      <point x="74" y="-315" type="line"/>
      <point x="194" y="-166" type="line"/>
      <point x="219" y="-47" type="line"/>
      <point x="-17" y="-47" type="line"/>
      <point x="-45" y="-181" type="line"/>
      <point x="60" y="-181" type="line"/>
    </contour>
  </outline>
</glyph>
<glyph name="cedillacomb" format="2">
  <unicode hex="0327"/>
  <anchor x="140" y="-20" name="_bottom"/>
  <outline>
    <contour>
      <point x="129" y="-274" type="curve" smooth="yes"/>
      <point x="226" y="-274"/>
      <point x="291" y="-226"/>
      <point x="291" y="-157" type="curve" smooth="yes"/>
      <point x="291" y="-70"/>
      <point x="195" y="-43"/>
      <point x="139" y="-64" type="curve"/>
      <point x="180" y="-69" type="line"/>
      <point x="212" y="0" type="line"/>
      <point x="93" y="0" type="line"/>
      <point x="59" y="-82" type="line"/>
      <point x="100" y="-108" type="line"/>
      <point x="124" y="-100"/>
      <point x="169" y="-105"/>
      <point x="169" y="-140" type="curve" smooth="yes"/>
      <point x="169" y="-162"/>
      <point x="151" y="-177"/>
      <point x="125" y="-177" type="curve" smooth="yes"/>
      <point x="95" y="-177"/>
      <point x="76" y="-162"/>
      <point x="75" y="-142" type="curve"/>
      <point x="-48" y="-142" type="line"/>
      <point x="-46" y="-220"/>
      <point x="24" y="-274"/>
    </contour>
  </outline>
</glyph>
<glyph name="ogonekcomb" format="2">
  <unicode hex="0328"/>
  <anchor x="217" y="0" name="_ogonek"/>
  <outline>
    <contour>
      <point x="70" y="-219" type="curve" smooth="yes"/>
      <point x="109" y="-219"/>
      <point x="154" y="-209"/>
      <point x="175" y="-196" type="curve"/>
      <point x="192" y="-106" type="line"/>
      <point x="181" y="-116"/>
      <point x="162" y="-120"/>
      <point x="150" y="-120" type="curve" smooth="yes"/>
      <point x="133" y="-120"/>
      <point x="122" y="-111"/>
      <point x="122" y="-98" type="curve" smooth="yes"/>
      <point x="122" y="-67"/>
      <point x="166" y="-35"/>
      <point x="218" y="0" type="curve"/>
      <point x="214" y="16" type="line"/>
      <point x="191" y="41" type="line"/>
      <point x="31" y="-11"/>
      <point x="-44" y="-64"/>
      <point x="-44" y="-134" type="curve" smooth="yes"/>
      <point x="-44" y="-185"/>
      <point x="-1" y="-219"/>
    </contour>
  </outline>
</glyph>
<glyph name="strokeshortcomb" format="2">
  <unicode hex="0335"/>
  <anchor x="329" y="629" name="_center"/>
  <outline>
    <contour>
      <point x="103" y="566" type="line"/>
      <point x="531" y="566" type="line"/>
      <point x="558" y="693" type="line"/>
      <point x="129" y="693" type="line"/>
    </contour>
  </outline>
</glyph>
<glyph name="strokelongcomb" format="2">
  <unicode hex="0336"/>
  <anchor x="536" y="277" name="_center"/>
  <outline>
    <contour>
      <point x="26" y="205" type="line"/>
      <point x="1016" y="205" type="line"/>
      <point x="1046" y="348" type="line"/>
      <point x="56" y="348" type="line"/>
    </contour>
  </outline>
</glyph>
<glyph name="slashshortcomb" format="2">
  <unicode hex="0337"/>
  <anchor x="234" y="365" name="_center"/>
  <outline>
    <contour>
      <point x="23" y="187" type="line"/>
      <point x="411" y="381" type="line"/>
      <point x="444" y="542" type="line"/>
      <point x="56" y="348" type="line"/>
    </contour>
  </outline>
</glyph>
<glyph name="slashlongcomb" format="2">
  <unicode hex="0338"/>
  <anchor x="388" y="287" name="_center"/>
  <outline>
    <contour>
      <point x="-22" y="-20" type="line"/>
      <point x="129" y="-20" type="line"/>
      <point x="797" y="594" type="line"/>
      <point x="647" y="594" type="line"/>
    </contour>
  </outline>
</glyph>
<glyph name="mu" format="2">
  <advance width="779"/>
  <unicode hex="03BC"/>
  <outline>
    <contour>
      <point x="-48" y="-132" type="line"/>
      <point x="192" y="-132" type="line"/>
      <point x="227" y="30" type="line"/>
      <point x="170" y="-2" type="line"/>
      <point x="190" y="-8"/>
      <point x="214" y="-11"/>
      <point x="236" y="-11" type="curve" smooth="yes"/>
      <point x="318" y="-11"/>
      <point x="401" y="13"/>
      <point x="444" y="52" type="curve"/>
      <point x="451" y="52" type="line"/>
      <point x="459" y="0" type="line"/>
      <point x="677" y="0" type="line"/>
      <point x="791" y="545" type="line"/>
      <point x="549" y="545" type="line"/>
      <point x="474" y="189" type="line"/>
      <point x="443" y="165"/>
      <point x="399" y="148"/>
      <point x="354" y="148" type="curve" smooth="yes"/>
      <point x="289" y="148"/>
      <point x="258" y="183"/>
      <point x="274" y="255" type="curve" smooth="yes"/>
      <point x="334" y="545" type="line"/>
      <point x="94" y="545" type="line"/>
    </contour>
  </outline>
</glyph>
<glyph name="pi" format="2">
  <advance width="772"/>
  <unicode hex="03C0"/>
  <outline>
    <contour>
      <point x="67" y="0" type="line"/>
      <point x="279" y="0" type="line"/>
      <point x="353" y="363" type="line"/>
      <point x="444" y="363" type="line"/>
      <point x="400" y="138" type="line" smooth="yes"/>
      <point x="384" y="58"/>
      <point x="426" y="0"/>
      <point x="520" y="0" type="curve"/>
      <point x="680" y="0" type="line"/>
      <point x="713" y="172" type="line"/>
      <point x="622" y="172" type="line"/>
      <point x="660" y="363" type="line"/>
      <point x="753" y="363" type="line"/>
      <point x="790" y="545" type="line"/>
      <point x="81" y="545" type="line"/>
      <point x="44" y="363" type="line"/>
      <point x="140" y="363" type="line"/>
    </contour>
  </outline>
</glyph>
<glyph name="Germandbls" format="2">
  <advance width="923"/>
  <unicode hex="1E9E"/>
  <outline>
    <contour>
      <point x="1" y="0" type="line"/>
      <point x="263" y="0" type="line"/>
      <point x="373" y="541" type="line"/>
      <point x="633" y="541" type="line"/>
      <point x="477" y="400" type="line"/>
      <point x="454" y="287" type="line"/>
      <point x="547" y="287" type="line" smooth="yes"/>
      <point x="585" y="287"/>
      <point x="603" y="271"/>
      <point x="598" y="240" type="curve" smooth="yes"/>
      <point x="597" y="228" type="line" smooth="yes"/>
      <point x="591" y="198"/>
      <point x="561" y="181"/>
      <point x="524" y="181" type="curve" smooth="yes"/>
      <point x="372" y="181" type="line"/>
      <point x="337" y="0" type="line"/>
      <point x="555" y="0" type="line" smooth="yes"/>
      <point x="756" y="0"/>
      <point x="880" y="72"/>
      <point x="879" y="225" type="curve" smooth="yes"/>
      <point x="880" y="329"/>
      <point x="808" y="397"/>
      <point x="696" y="397" type="curve" smooth="yes"/>
      <point x="678" y="397" type="line"/>
      <point x="728" y="358" type="line"/>
      <point x="738" y="404" type="line"/>
      <point x="880" y="528" type="line"/>
      <point x="921" y="729" type="line"/>
      <point x="150" y="729" type="line"/>
    </contour>
  </outline>
</glyph>
<glyph name="endash" format="2">
  <advance width="601"/>
  <unicode hex="2013"/>
  <outline>
    <contour>
      <point x="23" y="236" type="line"/>
      <point x="563" y="236" type="line"/>
      <point x="600" y="413" type="line"/>
      <point x="60" y="413" type="line"/>
    </contour>
  </outline>
</glyph>
<glyph name="emdash" format="2">
  <advance width="778"/>
  <unicode hex="2014"/>
  <outline>
    <contour>
      <point x="23" y="236" type="line"/>
      <point x="740" y="236" type="line"/>
      <point x="777" y="413" type="line"/>
      <point x="60" y="413" type="line"/>
    </contour>
  </outline>
</glyph>
<glyph name="bullet" format="2">
  <advance width="312"/>
  <unicode hex="2022"/>
  <outline>
    <contour>
      <point x="18" y="277" type="curve" smooth="yes"/>
      <point x="18" y="199"/>
      <point x="78" y="139"/>
      <point x="158" y="139" type="curve" smooth="yes"/>
      <point x="240" y="139"/>
      <point x="295" y="199"/>
      <point x="295" y="277" type="curve" smooth="yes"/>
      <point x="295" y="356"/>
      <point x="240" y="414"/>
      <point x="158" y="414" type="curve" smooth="yes"/>
      <point x="78" y="414"/>
      <point x="18" y="356"/>
    </contour>
  </outline>
</glyph>
<glyph name="perthousand" format="2">
  <advance width="1479"/>
  <unicode hex="2030"/>
  <outline>
    <contour>
      <point x="296" y="367" type="curve" smooth="yes"/>
      <point x="411" y="367"/>
      <point x="493" y="427"/>
      <point x="512" y="519" type="curve" smooth="yes"/>
      <point x="513" y="525" type="line" smooth="yes"/>
      <point x="540" y="656"/>
      <point x="444" y="740"/>
      <point x="310" y="740" type="curve" smooth="yes"/>
      <point x="196" y="740"/>
      <point x="112" y="679"/>
      <point x="94" y="587" type="curve" smooth="yes"/>
      <point x="93" y="581" type="line" smooth="yes"/>
      <point x="66" y="449"/>
      <point x="163" y="367"/>
    </contour>
    <contour>
      <point x="299" y="488" type="curve" smooth="yes"/>
      <point x="262" y="488"/>
      <point x="237" y="510"/>
      <point x="246" y="545" type="curve" smooth="yes"/>
      <point x="252" y="575" type="line" smooth="yes"/>
      <point x="259" y="604"/>
      <point x="277" y="619"/>
      <point x="307" y="619" type="curve" smooth="yes"/>
      <point x="344" y="619"/>
      <point x="370" y="596"/>
      <point x="361" y="560" type="curve" smooth="yes"/>
      <point x="355" y="532" type="line" smooth="yes"/>
      <point x="348" y="502"/>
      <point x="330" y="488"/>
    </contour>
    <contour>
      <point x="91" y="0" type="line"/>
      <point x="267" y="0" type="line"/>
      <point x="974" y="729" type="line"/>
      <point x="797" y="729" type="line"/>
    </contour>
    <contour>
      <point x="755" y="-10" type="curve" smooth="yes"/>
      <point x="870" y="-10"/>
      <point x="953" y="50"/>
      <point x="971" y="143" type="curve" smooth="yes"/>
      <point x="972" y="149" type="line" smooth="yes"/>
      <point x="999" y="281"/>
      <point x="903" y="364"/>
      <point x="770" y="364" type="curve" smooth="yes"/>
      <point x="654" y="364"/>
      <point x="572" y="302"/>
      <point x="553" y="211" type="curve" smooth="yes"/>
      <point x="552" y="205" type="line" smooth="yes"/>
      <point x="525" y="73"/>
      <point x="621" y="-10"/>
    </contour>
    <contour>
      <point x="758" y="111" type="curve" smooth="yes"/>
      <point x="721" y="111"/>
      <point x="696" y="134"/>
      <point x="705" y="169" type="curve" smooth="yes"/>
      <point x="711" y="199" type="line" smooth="yes"/>
      <point x="718" y="227"/>
      <point x="735" y="242"/>
      <point x="766" y="242" type="curve" smooth="yes"/>
      <point x="804" y="242"/>
      <point x="829" y="220"/>
      <point x="820" y="183" type="curve" smooth="yes"/>
      <point x="814" y="155" type="line" smooth="yes"/>
      <point x="807" y="125"/>
      <point x="789" y="111"/>
    </contour>
    <contour>
      <point x="1208" y="-10" type="curve" smooth="yes"/>
      <point x="1323" y="-10"/>
      <point x="1406" y="50"/>
      <point x="1424" y="143" type="curve" smooth="yes"/>
      <point x="1426" y="149" type="line" smooth="yes"/>
      <point x="1453" y="281"/>
      <point x="1356" y="364"/>
      <point x="1223" y="364" type="curve" smooth="yes"/>
      <point x="1107" y="364"/>
      <point x="1025" y="302"/>
      <point x="1006" y="211" type="curve" smooth="yes"/>
      <point x="1005" y="205" type="line" smooth="yes"/>
      <point x="978" y="73"/>
      <point x="1074" y="-10"/>
    </contour>
    <contour>
      <point x="1211" y="111" type="curve" smooth="yes"/>
      <point x="1173" y="111"/>
      <point x="1149" y="134"/>
      <point x="1158" y="169" type="curve" smooth="yes"/>
      <point x="1165" y="199" type="line" smooth="yes"/>
      <point x="1171" y="227"/>
      <point x="1188" y="242"/>
      <point x="1219" y="242" type="curve" smooth="yes"/>
      <point x="1257" y="242"/>
      <point x="1281" y="220"/>
      <point x="1273" y="183" type="curve" smooth="yes"/>
      <point x="1266" y="155" type="line" smooth="yes"/>
      <point x="1259" y="125"/>
      <point x="1242" y="111"/>
    </contour>
  </outline>
</glyph>
<glyph name="guilsinglleft" format="2">
  <advance width="419"/>
  <unicode hex="2039"/>
  <anchor x="-2" y="0" name="#entry"/>
  <anchor x="297" y="0" name="#exit"/>
  <outline>
    <contour>
      <point x="158" y="57" type="line"/>
      <point x="348" y="57" type="line"/>
      <point x="256" y="301" type="line"/>
      <point x="439" y="545" type="line"/>
      <point x="231" y="545" type="line"/>
      <point x="31" y="301" type="line"/>
    </contour>
  </outline>
</glyph>
<glyph name="zeroinferior" format="2">
  <advance width="525"/>
  <unicode hex="2080"/>
  <outline>
    <contour>
      <point x="218" y="-67" type="curve" smooth="yes"/>
      <point x="342" y="-67"/>
      <point x="441" y="-9"/>
      <point x="465" y="122" type="curve" smooth="yes"/>
      <point x="467" y="133" type="line" smooth="yes"/>
      <point x="493" y="282"/>
      <point x="411" y="384"/>
      <point x="257" y="384" type="curve" smooth="yes"/>
      <point x="135" y="384"/>
      <point x="35" y="326"/>
      <point x="12" y="196" type="curve" smooth="yes"/>
      <point x="10" y="184" type="line" smooth="yes"/>
      <point x="-18" y="35"/>
      <point x="66" y="-67"/>
    </contour>
    <contour>
      <point x="225" y="60" type="curve" smooth="yes"/>
      <point x="178" y="60"/>
      <point x="163" y="90"/>
      <point x="172" y="132" type="curve" smooth="yes"/>
      <point x="186" y="198" type="line" smooth="yes"/>
      <point x="194" y="235"/>
      <point x="214" y="258"/>
      <point x="252" y="258" type="curve" smooth="yes"/>
      <point x="296" y="258"/>
      <point x="313" y="228"/>
      <point x="304" y="185" type="curve" smooth="yes"/>
      <point x="289" y="119" type="line" smooth="yes"/>
      <point x="282" y="82"/>
      <point x="262" y="60"/>
    </contour>
  </outline>
</glyph>
<glyph name="oneinferior" format="2">
  <advance width="356"/>
  <unicode hex="2081"/>
  <outline>
    <contour>
      <point x="241" y="-60" type="line"/>
      <point x="332" y="377" type="line"/>
      <point x="189" y="377" type="line"/>
      <point x="153" y="312" type="line"/>
      <point x="33" y="312" type="line"/>
      <point x="6" y="188" type="line"/>
      <point x="120" y="188" type="line"/>
      <point x="68" y="-60" type="line"/>
    </contour>
  </outline>
</glyph>
<glyph name="twoinferior" format="2">
  <advance width="475"/>
  <unicode hex="2082"/>
  <outline>
    <contour>
      <point x="-27" y="-60" type="line"/>
      <point x="376" y="-60" type="line"/>
      <point x="401" y="60" type="line"/>
      <point x="274" y="60" type="line"/>
      <point x="246" y="57" type="line"/>
      <point x="246" y="59" type="line"/>
      <point x="261" y="66" type="line"/>
      <point x="309" y="87" type="line" smooth="yes"/>
      <point x="379" y="119"/>
      <point x="425" y="162"/>
      <point x="425" y="238" type="curve" smooth="yes"/>
      <point x="425" y="326"/>
      <point x="353" y="385"/>
      <point x="237" y="385" type="curve" smooth="yes"/>
      <point x="113" y="385"/>
      <point x="27" y="323"/>
      <point x="13" y="223" type="curve"/>
      <point x="180" y="223" type="line"/>
      <point x="182" y="242"/>
      <point x="195" y="259"/>
      <point x="219" y="259" type="curve" smooth="yes"/>
      <point x="243" y="259"/>
      <point x="258" y="243"/>
      <point x="255" y="222" type="curve" smooth="yes"/>
      <point x="254" y="217" type="line" smooth="yes"/>
      <point x="252" y="198"/>
      <point x="235" y="187"/>
      <point x="200" y="165" type="curve" smooth="yes"/>
      <point x="-3" y="50" type="line"/>
    </contour>
  </outline>
</glyph>
<glyph name="threeinferior" format="2">
  <advance width="475"/>
  <unicode hex="2083"/>
  <outline>
    <contour>
      <point x="190" y="-67" type="curve" smooth="yes"/>
      <point x="316" y="-67"/>
      <point x="398" y="-22"/>
      <point x="406" y="55" type="curve" smooth="yes"/>
      <point x="410" y="99"/>
      <point x="387" y="139"/>
      <point x="338" y="154" type="curve"/>
      <point x="339" y="159" type="line"/>
      <point x="394" y="176"/>
      <point x="428" y="211"/>
      <point x="429" y="262" type="curve" smooth="yes"/>
      <point x="430" y="334"/>
      <point x="371" y="385"/>
      <point x="236" y="385" type="curve" smooth="yes"/>
      <point x="115" y="385"/>
      <point x="34" y="333"/>
      <point x="21" y="247" type="curve"/>
      <point x="178" y="247" type="line"/>
      <point x="182" y="263"/>
      <point x="197" y="272"/>
      <point x="223" y="272" type="curve" smooth="yes"/>
      <point x="254" y="272"/>
      <point x="266" y="259"/>
      <point x="263" y="240" type="curve" smooth="yes"/>
      <point x="261" y="237" type="line" smooth="yes"/>
      <point x="256" y="219"/>
      <point x="238" y="211"/>
      <point x="216" y="211" type="curve" smooth="yes"/>
      <point x="167" y="211" type="line"/>
      <point x="142" y="111" type="line"/>
      <point x="190" y="111" type="line" smooth="yes"/>
      <point x="221" y="111"/>
      <point x="237" y="100"/>
      <point x="233" y="79" type="curve" smooth="yes"/>
      <point x="232" y="74" type="line" smooth="yes"/>
      <point x="230" y="61"/>
      <point x="215" y="49"/>
      <point x="191" y="49" type="curve" smooth="yes"/>
      <point x="165" y="49"/>
      <point x="141" y="56"/>
      <point x="137" y="77" type="curve"/>
      <point x="-21" y="77" type="line"/>
      <point x="-18" y="-8"/>
      <point x="56" y="-67"/>
    </contour>
  </outline>
</glyph>
<glyph name="fourinferior" format="2">
  <advance width="503"/>
  <unicode hex="2084"/>
  <outline>
    <contour>
      <point x="181" y="-60" type="line"/>
      <point x="352" y="-60" type="line"/>
      <point x="369" y="16" type="line"/>
      <point x="424" y="16" type="line"/>
      <point x="451" y="141" type="line"/>
      <point x="395" y="141" type="line"/>
      <point x="410" y="216" type="line"/>
      <point x="272" y="216" type="line"/>
      <point x="233" y="141" type="line"/>
      <point x="192" y="141" type="line"/>
      <point x="193" y="146" type="line"/>
      <point x="380" y="377" type="line"/>
      <point x="197" y="377" type="line"/>
      <point x="-10" y="115" type="line"/>
      <point x="-31" y="16" type="line"/>
      <point x="197" y="16" type="line"/>
    </contour>
  </outline>
</glyph>
<glyph name="fiveinferior" format="2">
  <advance width="484"/>
  <unicode hex="2085"/>
  <outline>
    <contour>
      <point x="192" y="-67" type="curve" smooth="yes"/>
      <point x="304" y="-67"/>
      <point x="420" y="-19"/>
      <point x="421" y="94" type="curve" smooth="yes"/>
      <point x="422" y="167"/>
      <point x="368" y="225"/>
      <point x="282" y="225" type="curve" smooth="yes"/>
      <point x="255" y="225"/>
      <point x="223" y="221"/>
      <point x="200" y="207" type="curve"/>
      <point x="194" y="207" type="line"/>
      <point x="210" y="254" type="line"/>
      <point x="420" y="254" type="line"/>
      <point x="447" y="377" type="line"/>
      <point x="79" y="377" type="line"/>
      <point x="-1" y="102" type="line"/>
      <point x="146" y="102" type="line"/>
      <point x="154" y="118"/>
      <point x="175" y="127"/>
      <point x="203" y="127" type="curve" smooth="yes"/>
      <point x="230" y="127"/>
      <point x="245" y="111"/>
      <point x="246" y="88" type="curve" smooth="yes"/>
      <point x="246" y="83" type="line" smooth="yes"/>
      <point x="245" y="62"/>
      <point x="223" y="49"/>
      <point x="194" y="49" type="curve" smooth="yes"/>
      <point x="174" y="49"/>
      <point x="156" y="53"/>
      <point x="148" y="65" type="curve"/>
      <point x="-20" y="65" type="line"/>
      <point x="-15" y="-13"/>
      <point x="66" y="-67"/>
    </contour>
  </outline>
</glyph>
<glyph name="sixinferior" format="2">
  <advance width="500"/>
  <unicode hex="2086"/>
  <outline>
    <contour>
      <point x="211" y="-67" type="curve" smooth="yes"/>
      <point x="338" y="-67"/>
      <point x="415" y="-15"/>
      <point x="432" y="64" type="curve" smooth="yes"/>
      <point x="447" y="136"/>
      <point x="414" y="222"/>
      <point x="285" y="222" type="curve" smooth="yes"/>
      <point x="251" y="222"/>
      <point x="213" y="214"/>
      <point x="189" y="198" type="curve"/>
      <point x="180" y="198" type="line"/>
      <point x="183" y="206"/>
      <point x="186" y="218"/>
      <point x="191" y="237" type="curve" smooth="yes"/>
      <point x="199" y="264"/>
      <point x="221" y="274"/>
      <point x="254" y="274" type="curve" smooth="yes"/>
      <point x="281" y="274"/>
      <point x="300" y="265"/>
      <point x="305" y="249" type="curve"/>
      <point x="462" y="249" type="line"/>
      <point x="458" y="329"/>
      <point x="385" y="385"/>
      <point x="257" y="385" type="curve" smooth="yes"/>
      <point x="132" y="385"/>
      <point x="39" y="330"/>
      <point x="16" y="213" type="curve" smooth="yes"/>
      <point x="7" y="172" type="line" smooth="yes"/>
      <point x="-22" y="21"/>
      <point x="56" y="-67"/>
    </contour>
    <contour>
      <point x="214" y="55" type="curve" smooth="yes"/>
      <point x="192" y="55"/>
      <point x="156" y="73"/>
      <point x="162" y="100" type="curve" smooth="yes"/>
      <point x="165" y="115" type="line"/>
      <point x="181" y="124"/>
      <point x="197" y="127"/>
      <point x="217" y="127" type="curve" smooth="yes"/>
      <point x="246" y="127"/>
      <point x="266" y="114"/>
      <point x="262" y="92" type="curve" smooth="yes"/>
      <point x="261" y="88" type="line" smooth="yes"/>
      <point x="257" y="67"/>
      <point x="242" y="55"/>
    </contour>
  </outline>
</glyph>
<glyph name="seveninferior" format="2">
  <advance width="475"/>
  <unicode hex="2087"/>
  <outline>
    <contour>
      <point x="209" y="-60" type="line"/>
      <point x="443" y="243" type="line"/>
      <point x="472" y="377" type="line"/>
      <point x="51" y="377" type="line"/>
      <point x="10" y="193" type="line"/>
      <point x="129" y="193" type="line"/>
      <point x="141" y="251" type="line"/>
      <point x="257" y="251" type="line"/>
      <point x="255" y="241" type="line"/>
      <point x="10" y="-60" type="line"/>
    </contour>
  </outline>
</glyph>
<glyph name="eightinferior" format="2">
  <advance width="499"/>
  <unicode hex="2088"/>
  <outline>
    <contour>
      <point x="204" y="-68" type="curve" smooth="yes"/>
      <point x="356" y="-68"/>
      <point x="427" y="-16"/>
      <point x="427" y="65" type="curve" smooth="yes"/>
      <point x="427" y="112"/>
      <point x="400" y="147"/>
      <point x="355" y="158" type="curve"/>
      <point x="355" y="162" type="line"/>
      <point x="420" y="174"/>
      <point x="457" y="209"/>
      <point x="457" y="263" type="curve" smooth="yes"/>
      <point x="457" y="339"/>
      <point x="374" y="385"/>
      <point x="240" y="385" type="curve" smooth="yes"/>
      <point x="140" y="385"/>
      <point x="39" y="351"/>
      <point x="39" y="264" type="curve" smooth="yes"/>
      <point x="39" y="233"/>
      <point x="57" y="200"/>
      <point x="101" y="185" type="curve"/>
      <point x="100" y="182" type="line"/>
      <point x="24" y="169"/>
      <point x="-20" y="120"/>
      <point x="-20" y="60" type="curve" smooth="yes"/>
      <point x="-20" y="-19"/>
      <point x="51" y="-68"/>
    </contour>
    <contour>
      <point x="209" y="47" type="curve" smooth="yes"/>
      <point x="171" y="47"/>
      <point x="159" y="67"/>
      <point x="162" y="82" type="curve" smooth="yes"/>
      <point x="163" y="89" type="line" smooth="yes"/>
      <point x="165" y="104"/>
      <point x="179" y="115"/>
      <point x="207" y="115" type="curve" smooth="yes"/>
      <point x="243" y="115"/>
      <point x="257" y="97"/>
      <point x="254" y="79" type="curve" smooth="yes"/>
      <point x="253" y="74" type="line" smooth="yes"/>
      <point x="250" y="56"/>
      <point x="235" y="47"/>
    </contour>
    <contour>
      <point x="242" y="210" type="curve" smooth="yes"/>
      <point x="215" y="210"/>
      <point x="199" y="223"/>
      <point x="204" y="244" type="curve" smooth="yes"/>
      <point x="205" y="249" type="line" smooth="yes"/>
      <point x="207" y="260"/>
      <point x="217" y="271"/>
      <point x="244" y="271" type="curve" smooth="yes"/>
      <point x="272" y="271"/>
      <point x="286" y="259"/>
      <point x="283" y="238" type="curve" smooth="yes"/>
      <point x="281" y="232" type="line" smooth="yes"/>
      <point x="277" y="218"/>
      <point x="265" y="210"/>
    </contour>
  </outline>
</glyph>
<glyph name="sheqel" format="2">
  <advance width="871"/>
  <unicode hex="20AA"/>
  <outline>
    <contour>
      <point x="237" y="0" type="line"/>
      <point x="604" y="0" type="line" smooth="yes"/>
      <point x="691" y="0"/>
      <point x="766" y="30"/>
      <point x="794" y="163" type="curve" smooth="yes"/>
      <point x="913" y="729" type="line"/>
      <point x="717" y="729" type="line"/>
      <point x="598" y="164" type="line"/>
      <point x="397" y="164" type="line"/>
      <point x="473" y="521" type="line"/>
      <point x="346" y="521" type="line"/>
    </contour>
    <contour>
      <point x="1" y="0" type="line"/>
      <point x="197" y="0" type="line"/>
      <point x="317" y="565" type="line"/>
      <point x="518" y="565" type="line"/>
      <point x="442" y="209" type="line"/>
      <point x="567" y="209" type="line"/>
      <point x="643" y="567" type="line" smooth="yes"/>
      <point x="671" y="699"/>
      <point x="611" y="729"/>
      <point x="522" y="729" type="curve" smooth="yes"/>
      <point x="155" y="729" type="line"/>
    </contour>
  </outline>
</glyph>
<glyph name="rupeeIndian" format="2">
  <advance width="751"/>
  <unicode hex="20B9"/>
  <outline>
    <contour>
      <point x="322" y="0" type="line"/>
      <point x="629" y="0" type="line"/>
      <point x="349" y="300" type="line"/>
      <point x="348" y="264" type="line"/>
      <point x="399" y="264" type="line" smooth="yes"/>
      <point x="561" y="264"/>
      <point x="672" y="343"/>
      <point x="678" y="481" type="curve" smooth="yes"/>
      <point x="682" y="530"/>
      <point x="670" y="570"/>
      <point x="647" y="602" type="curve"/>
      <point x="647" y="587" type="line"/>
      <point x="778" y="587" type="line"/>
      <point x="809" y="729" type="line"/>
      <point x="142" y="729" type="line"/>
      <point x="107" y="566" type="line"/>
      <point x="329" y="566" type="line" smooth="yes"/>
      <point x="376" y="566"/>
      <point x="415" y="545"/>
      <point x="403" y="481" type="curve" smooth="yes"/>
      <point x="399" y="464" type="line" smooth="yes"/>
      <point x="391" y="420"/>
      <point x="359" y="391"/>
      <point x="291" y="391" type="curve" smooth="yes"/>
      <point x="71" y="391" type="line"/>
      <point x="48" y="291" type="line"/>
    </contour>
    <contour>
      <point x="79" y="437" type="line"/>
      <point x="528" y="437" type="line"/>
      <point x="547" y="522" type="line"/>
      <point x="98" y="522" type="line"/>
    </contour>
    <contour>
      <point x="524" y="419" type="line"/>
      <point x="743" y="419" type="line"/>
      <point x="769" y="540" type="line"/>
      <point x="549" y="540" type="line"/>
    </contour>
  </outline>
</glyph>
<glyph name="liraTurkish" format="2">
  <advance width="833"/>
  <unicode hex="20BA"/>
  <outline>
    <contour>
      <point x="64" y="0" type="line"/>
      <point x="249" y="0" type="line" smooth="yes"/>
      <point x="519" y="0"/>
      <point x="741" y="94"/>
      <point x="822" y="366" type="curve"/>
      <point x="577" y="366" type="line"/>
      <point x="549" y="275"/>
      <point x="482" y="217"/>
      <point x="336" y="216" type="curve"/>
      <point x="445" y="729" type="line"/>
      <point x="219" y="729" type="line"/>
    </contour>
    <contour>
      <point x="27" y="189" type="line"/>
      <point x="508" y="339" type="line"/>
      <point x="543" y="501" type="line"/>
      <point x="61" y="353" type="line"/>
    </contour>
    <contour>
      <point x="72" y="409" type="line"/>
      <point x="555" y="558" type="line"/>
      <point x="590" y="722" type="line"/>
      <point x="107" y="570" type="line"/>
    </contour>
  </outline>
</glyph>
<glyph name="literSign" format="2">
  <advance width="638"/>
  <unicode hex="2113"/>
  <outline>
    <contour>
      <point x="290" y="-10" type="curve" smooth="yes"/>
      <point x="390" y="-10"/>
      <point x="480" y="40"/>
      <point x="525" y="115" type="curve"/>
      <point x="396" y="190" type="line"/>
      <point x="378" y="159"/>
      <point x="347" y="144"/>
      <point x="318" y="144" type="curve" smooth="yes"/>
      <point x="243" y="144"/>
      <point x="260" y="254"/>
      <point x="285" y="382" type="curve" smooth="yes"/>
      <point x="311" y="520"/>
      <point x="340" y="561"/>
      <point x="377" y="561" type="curve" smooth="yes"/>
      <point x="396" y="561"/>
      <point x="405" y="548"/>
      <point x="406" y="528" type="curve" smooth="yes"/>
      <point x="405" y="394"/>
      <point x="199" y="301"/>
      <point x="26" y="287" type="curve"/>
      <point x="1" y="155" type="line"/>
      <point x="301" y="169"/>
      <point x="584" y="312"/>
      <point x="585" y="559" type="curve" smooth="yes"/>
      <point x="585" y="667"/>
      <point x="520" y="739"/>
      <point x="412" y="739" type="curve" smooth="yes"/>
      <point x="212" y="739"/>
      <point x="78" y="553"/>
      <point x="77" y="274" type="curve" smooth="yes"/>
      <point x="77" y="100"/>
      <point x="145" y="-10"/>
    </contour>
  </outline>
</glyph>
<glyph name="numero" format="2">
  <advance width="1552"/>
  <unicode hex="2116"/>
  <outline>
    <contour>
      <point x="-3" y="0" type="line"/>
      <point x="248" y="0" type="line"/>
      <point x="345" y="466" type="line"/>
      <point x="357" y="466" type="line"/>
      <point x="367" y="424" type="line"/>
      <point x="540" y="0" type="line"/>
      <point x="880" y="0" type="line"/>
      <point x="1032" y="729" type="line"/>
      <point x="782" y="729" type="line"/>
      <point x="687" y="283" type="line"/>
      <point x="676" y="283" type="line"/>
      <point x="663" y="326" type="line"/>
      <point x="504" y="729" type="line"/>
      <point x="150" y="729" type="line"/>
    </contour>
    <contour>
      <point x="1013" y="138" type="line"/>
      <point x="1471" y="138" type="line"/>
      <point x="1495" y="255" type="line"/>
      <point x="1036" y="255" type="line"/>
    </contour>
    <contour>
      <point x="1292" y="300" type="curve" smooth="yes"/>
      <point x="1458" y="300"/>
      <point x="1566" y="394"/>
      <point x="1566" y="532" type="curve" smooth="yes"/>
      <point x="1566" y="656"/>
      <point x="1475" y="739"/>
      <point x="1312" y="739" type="curve" smooth="yes"/>
      <point x="1147" y="739"/>
      <point x="1041" y="645"/>
      <point x="1041" y="506" type="curve" smooth="yes"/>
      <point x="1041" y="382"/>
      <point x="1122" y="300"/>
    </contour>
    <contour>
      <point x="1298" y="440" type="curve" smooth="yes"/>
      <point x="1260" y="440"/>
      <point x="1236" y="464"/>
      <point x="1238" y="502" type="curve" smooth="yes"/>
      <point x="1240" y="566"/>
      <point x="1264" y="599"/>
      <point x="1309" y="599" type="curve" smooth="yes"/>
      <point x="1346" y="599"/>
      <point x="1370" y="575"/>
      <point x="1369" y="537" type="curve" smooth="yes"/>
      <point x="1366" y="474"/>
      <point x="1342" y="440"/>
    </contour>
  </outline>
</glyph>
<glyph name="trademark" format="2">
  <advance width="889"/>
  <unicode hex="2122"/>
  <outline>
    <contour>
      <point x="408" y="415" type="line"/>
      <point x="535" y="415" type="line"/>
      <point x="552" y="497" type="line"/>
      <point x="567" y="572" type="line"/>
      <point x="571" y="572" type="line"/>
      <point x="600" y="415" type="line"/>
      <point x="700" y="415" type="line"/>
      <point x="797" y="572" type="line"/>
      <point x="799" y="572" type="line"/>
      <point x="783" y="497" type="line"/>
      <point x="767" y="415" type="line"/>
      <point x="892" y="415" type="line"/>
      <point x="958" y="729" type="line"/>
      <point x="778" y="729" type="line"/>
      <point x="688" y="579" type="line"/>
      <point x="683" y="579" type="line"/>
      <point x="654" y="729" type="line"/>
      <point x="473" y="729" type="line"/>
    </contour>
    <contour>
      <point x="139" y="415" type="line"/>
      <point x="273" y="415" type="line"/>
      <point x="314" y="614" type="line"/>
      <point x="411" y="614" type="line"/>
      <point x="435" y="729" type="line"/>
      <point x="110" y="729" type="line"/>
      <point x="85" y="614" type="line"/>
      <point x="179" y="614" type="line"/>
    </contour>
  </outline>
</glyph>
<glyph name="estimated" format="2">
  <advance width="836"/>
  <unicode hex="212E"/>
  <outline>
    <contour>
      <point x="457" y="-9" type="curve" smooth="yes"/>
      <point x="561" y="-9"/>
      <point x="667" y="28"/>
      <point x="740" y="91" type="curve"/>
      <point x="710" y="133" type="line"/>
      <point x="649" y="81"/>
      <point x="555" y="45"/>
      <point x="457" y="45" type="curve" smooth="yes"/>
      <point x="361" y="45"/>
      <point x="289" y="72"/>
      <point x="232" y="126" type="curve"/>
      <point x="232" y="353" type="line"/>
      <point x="763" y="353" type="line"/>
      <point x="763" y="416" type="line" smooth="yes"/>
      <point x="763" y="609"/>
      <point x="632" y="737"/>
      <point x="436" y="737" type="curve" smooth="yes"/>
      <point x="228" y="737"/>
      <point x="90" y="588"/>
      <point x="90" y="364" type="curve" smooth="yes"/>
      <point x="90" y="140"/>
      <point x="237" y="-9"/>
    </contour>
    <contour>
      <point x="232" y="405" type="line"/>
      <point x="232" y="601" type="line"/>
      <point x="282" y="660"/>
      <point x="365" y="685"/>
      <point x="436" y="685" type="curve" smooth="yes"/>
      <point x="511" y="685"/>
      <point x="594" y="662"/>
      <point x="638" y="607" type="curve"/>
      <point x="638" y="405" type="line"/>
    </contour>
  </outline>
</glyph>
<glyph name="arrowup" format="2">
  <advance width="656"/>
  <unicode hex="2191"/>
  <outline>
    <contour>
      <point x="258" y="67" type="line"/>
      <point x="454" y="67" type="line"/>
      <point x="454" y="398" type="line"/>
      <point x="622" y="308" type="line"/>
      <point x="622" y="512" type="line"/>
      <point x="356" y="663" type="line"/>
      <point x="93" y="512" type="line"/>
      <point x="93" y="308" type="line"/>
      <point x="258" y="398" type="line"/>
    </contour>
  </outline>
</glyph>
<glyph name="leftRightArrow" format="2">
  <advance width="867"/>
  <unicode hex="2194"/>
  <outline>
    <contour>
      <point x="196" y="78" type="line"/>
      <point x="400" y="78" type="line"/>
      <point x="311" y="245" type="line"/>
      <point x="585" y="245" type="line"/>
      <point x="497" y="78" type="line"/>
      <point x="700" y="78" type="line"/>
      <point x="851" y="344" type="line"/>
      <point x="700" y="607" type="line"/>
      <point x="497" y="607" type="line"/>
      <point x="585" y="443" type="line"/>
      <point x="311" y="443" type="line"/>
      <point x="400" y="607" type="line"/>
      <point x="196" y="607" type="line"/>
      <point x="46" y="344" type="line"/>
    </contour>
  </outline>
</glyph>
<glyph name="emptyset" format="2">
  <advance width="781"/>
  <unicode hex="2205"/>
  <outline>
    <contour>
      <point x="653" y="560" type="line"/>
      <point x="131" y="239" type="line"/>
      <point x="149" y="170" type="line"/>
      <point x="692" y="500" type="line"/>
    </contour>
    <contour>
      <point x="411" y="0" type="curve" smooth="yes"/>
      <point x="615" y="0"/>
      <point x="769" y="149"/>
      <point x="769" y="366" type="curve" smooth="yes"/>
      <point x="769" y="579"/>
      <point x="615" y="729"/>
      <point x="411" y="729" type="curve" smooth="yes"/>
      <point x="207" y="729"/>
      <point x="51" y="580"/>
      <point x="51" y="366" type="curve" smooth="yes"/>
      <point x="51" y="149"/>
      <point x="207" y="0"/>
    </contour>
    <contour>
      <point x="411" y="74" type="curve" smooth="yes"/>
      <point x="254" y="74"/>
      <point x="131" y="194"/>
      <point x="131" y="366" type="curve" smooth="yes"/>
      <point x="131" y="537"/>
      <point x="254" y="655"/>
      <point x="411" y="655" type="curve" smooth="yes"/>
      <point x="571" y="655"/>
      <point x="693" y="537"/>
      <point x="693" y="366" type="curve" smooth="yes"/>
      <point x="693" y="194"/>
      <point x="571" y="74"/>
    </contour>
  </outline>
</glyph>
<glyph name="product" format="2">
  <advance width="809"/>
  <unicode hex="220F"/>
  <outline>
    <contour>
      <point x="-32" y="-92" type="line"/>
      <point x="205" y="-92" type="line"/>
      <point x="335" y="523" type="line"/>
      <point x="582" y="523" type="line"/>
      <point x="451" y="-92" type="line"/>
      <point x="687" y="-92" type="line"/>
      <point x="861" y="729" type="line"/>
      <point x="142" y="729" type="line"/>
    </contour>
  </outline>
</glyph>
<glyph name="summation" format="2">
  <advance width="701"/>
  <unicode hex="2211"/>
  <outline>
    <contour>
      <point x="-47" y="-92" type="line"/>
      <point x="594" y="-92" type="line"/>
      <point x="636" y="103" type="line"/>
      <point x="304" y="103" type="line"/>
      <point x="306" y="112" type="line"/>
      <point x="596" y="318" type="line"/>
      <point x="394" y="525" type="line"/>
      <point x="396" y="534" type="line"/>
      <point x="727" y="534" type="line"/>
      <point x="768" y="729" type="line"/>
      <point x="127" y="729" type="line"/>
      <point x="84" y="522" type="line"/>
      <point x="272" y="332" type="line"/>
      <point x="267" y="305" type="line"/>
      <point x="-2" y="116" type="line"/>
    </contour>
  </outline>
</glyph>
<glyph name="minus" format="2">
  <advance width="720"/>
  <unicode hex="2212"/>
  <outline>
    <contour>
      <point x="107" y="273" type="line"/>
      <point x="618" y="273" type="line"/>
      <point x="656" y="450" type="line"/>
      <point x="145" y="450" type="line"/>
    </contour>
  </outline>
</glyph>
<glyph name="radical" format="2">
  <advance width="780"/>
  <unicode hex="221A"/>
  <outline>
    <contour>
      <point x="141" y="-92" type="line"/>
      <point x="390" y="-92" type="line"/>
      <point x="863" y="729" type="line"/>
      <point x="603" y="729" type="line"/>
      <point x="279" y="136" type="line"/>
      <point x="268" y="136" type="line"/>
      <point x="250" y="389" type="line"/>
      <point x="46" y="389" type="line"/>
      <point x="10" y="225" type="line"/>
      <point x="105" y="225" type="line"/>
    </contour>
  </outline>
</glyph>
<glyph name="infinity" format="2">
  <advance width="976"/>
  <unicode hex="221E"/>
  <outline>
    <contour>
      <point x="294" y="102" type="curve" smooth="yes"/>
      <point x="384" y="102"/>
      <point x="464" y="160"/>
      <point x="506" y="235" type="curve"/>
      <point x="550" y="160"/>
      <point x="630" y="102"/>
      <point x="720" y="102" type="curve" smooth="yes"/>
      <point x="866" y="102"/>
      <point x="965" y="210"/>
      <point x="963" y="364" type="curve" smooth="yes"/>
      <point x="965" y="518"/>
      <point x="866" y="625"/>
      <point x="720" y="625" type="curve" smooth="yes"/>
      <point x="630" y="625"/>
      <point x="551" y="568"/>
      <point x="506" y="492" type="curve"/>
      <point x="464" y="568"/>
      <point x="384" y="625"/>
      <point x="294" y="625" type="curve" smooth="yes"/>
      <point x="148" y="625"/>
      <point x="50" y="517"/>
      <point x="51" y="364" type="curve" smooth="yes"/>
      <point x="50" y="210"/>
      <point x="148" y="102"/>
    </contour>
    <contour>
      <point x="309" y="301" type="curve" smooth="yes"/>
      <point x="273" y="301"/>
      <point x="250" y="330"/>
      <point x="250" y="364" type="curve" smooth="yes"/>
      <point x="250" y="398"/>
      <point x="273" y="426"/>
      <point x="309" y="426" type="curve" smooth="yes"/>
      <point x="354" y="426"/>
      <point x="388" y="389"/>
      <point x="405" y="364" type="curve"/>
      <point x="388" y="338"/>
      <point x="353" y="301"/>
    </contour>
    <contour>
      <point x="706" y="301" type="curve" smooth="yes"/>
      <point x="660" y="301"/>
      <point x="625" y="339"/>
      <point x="609" y="364" type="curve"/>
      <point x="625" y="389"/>
      <point x="660" y="426"/>
      <point x="706" y="426" type="curve" smooth="yes"/>
      <point x="741" y="426"/>
      <point x="765" y="398"/>
      <point x="765" y="364" type="curve" smooth="yes"/>
      <point x="765" y="329"/>
      <point x="741" y="301"/>
    </contour>
  </outline>
</glyph>
<glyph name="integral" format="2">
  <advance width="544"/>
  <unicode hex="222B"/>
  <outline>
    <contour>
      <point x="-55" y="-92" type="line"/>
      <point x="142" y="-92" type="line" smooth="yes"/>
      <point x="251" y="-92"/>
      <point x="327" y="-25"/>
      <point x="349" y="81" type="curve" smooth="yes"/>
      <point x="446" y="555" type="line"/>
      <point x="584" y="555" type="line"/>
      <point x="619" y="729" type="line"/>
      <point x="416" y="729" type="line" smooth="yes"/>
      <point x="309" y="729"/>
      <point x="232" y="663"/>
      <point x="211" y="558" type="curve" smooth="yes"/>
      <point x="114" y="83" type="line"/>
      <point x="-20" y="83" type="line"/>
    </contour>
  </outline>
</glyph>
<glyph name="approxequal" format="2">
  <advance width="720"/>
  <unicode hex="2248"/>
  <outline>
    <contour>
      <point x="128" y="390" type="curve"/>
      <point x="233" y="390" type="line"/>
      <point x="233" y="410"/>
      <point x="251" y="447"/>
      <point x="294" y="447" type="curve" smooth="yes"/>
      <point x="354" y="447"/>
      <point x="382" y="374"/>
      <point x="494" y="374" type="curve" smooth="yes"/>
      <point x="566" y="374"/>
      <point x="669" y="423"/>
      <point x="692" y="602" type="curve"/>
      <point x="588" y="602" type="line"/>
      <point x="581" y="574"/>
      <point x="559" y="542"/>
      <point x="515" y="542" type="curve" smooth="yes"/>
      <point x="443" y="542"/>
      <point x="415" y="612"/>
      <point x="322" y="612" type="curve" smooth="yes"/>
      <point x="234" y="612"/>
      <point x="146" y="543"/>
    </contour>
    <contour>
      <point x="75" y="137" type="curve"/>
      <point x="180" y="137" type="line"/>
      <point x="181" y="157"/>
      <point x="203" y="196"/>
      <point x="244" y="196" type="curve" smooth="yes"/>
      <point x="304" y="196"/>
      <point x="331" y="122"/>
      <point x="442" y="122" type="curve" smooth="yes"/>
      <point x="516" y="122"/>
      <point x="618" y="173"/>
      <point x="641" y="350" type="curve"/>
      <point x="537" y="350" type="line"/>
      <point x="530" y="325"/>
      <point x="507" y="292"/>
      <point x="463" y="292" type="curve" smooth="yes"/>
      <point x="390" y="292"/>
      <point x="363" y="357"/>
      <point x="268" y="357" type="curve" smooth="yes"/>
      <point x="181" y="357"/>
      <point x="94" y="292"/>
    </contour>
  </outline>
</glyph>
<glyph name="notequal" format="2">
  <advance width="720"/>
  <unicode hex="2260"/>
  <outline>
    <contour>
      <point x="64" y="55" type="line"/>
      <point x="230" y="55" type="line"/>
      <point x="696" y="667" type="line"/>
      <point x="530" y="667" type="line"/>
    </contour>
    <contour>
      <point x="59" y="148" type="line"/>
      <point x="608" y="148" type="line"/>
      <point x="646" y="327" type="line"/>
      <point x="97" y="327" type="line"/>
    </contour>
    <contour>
      <point x="113" y="402" type="line"/>
      <point x="662" y="402" type="line"/>
      <point x="701" y="581" type="line"/>
      <point x="151" y="581" type="line"/>
    </contour>
  </outline>
</glyph>
<glyph name="lessequal" format="2">
  <advance width="720"/>
  <unicode hex="2264"/>
  <outline>
    <contour>
      <point x="611" y="167" type="line"/>
      <point x="650" y="358" type="line"/>
      <point x="329" y="416" type="line"/>
      <point x="331" y="428" type="line"/>
      <point x="677" y="480" type="line"/>
      <point x="718" y="674" type="line"/>
      <point x="142" y="539" type="line"/>
      <point x="93" y="307" type="line"/>
    </contour>
    <contour>
      <point x="29" y="0" type="line"/>
      <point x="576" y="0" type="line"/>
      <point x="607" y="150" type="line"/>
      <point x="61" y="150" type="line"/>
    </contour>
  </outline>
</glyph>
<glyph name="greaterequal" format="2">
  <advance width="720"/>
  <unicode hex="2265"/>
  <outline>
    <contour>
      <point x="12" y="167" type="line"/>
      <point x="588" y="307" type="line"/>
      <point x="637" y="538" type="line"/>
      <point x="120" y="674" type="line"/>
      <point x="79" y="483" type="line"/>
      <point x="406" y="429" type="line"/>
      <point x="403" y="416" type="line"/>
      <point x="54" y="359" type="line"/>
    </contour>
    <contour>
      <point x="-22" y="0" type="line"/>
      <point x="524" y="0" type="line"/>
      <point x="555" y="150" type="line"/>
      <point x="9" y="150" type="line"/>
    </contour>
  </outline>
</glyph>
<glyph name="whiteCircle" format="2">
  <advance width="928"/>
  <unicode hex="25CB"/>
  <anchor x="484" y="365" name="center"/>
  <outline>
    <contour>
      <point x="465" y="-30" type="curve" smooth="yes"/>
      <point x="666" y="-30"/>
      <point x="832" y="75"/>
      <point x="888" y="244" type="curve" smooth="yes"/>
      <point x="898" y="279"/>
      <point x="904" y="316"/>
      <point x="907" y="366" type="curve" smooth="yes"/>
      <point x="920" y="607"/>
      <point x="739" y="757"/>
      <point x="502" y="757" type="curve" smooth="yes"/>
      <point x="302" y="757"/>
      <point x="135" y="652"/>
      <point x="79" y="483" type="curve" smooth="yes"/>
      <point x="68" y="450"/>
      <point x="63" y="411"/>
      <point x="60" y="363" type="curve" smooth="yes"/>
      <point x="47" y="122"/>
      <point x="227" y="-30"/>
    </contour>
    <contour>
      <point x="467" y="40" type="curve" smooth="yes"/>
      <point x="267" y="40"/>
      <point x="137" y="161"/>
      <point x="137" y="341" type="curve" smooth="yes"/>
      <point x="137" y="368"/>
      <point x="140" y="394"/>
      <point x="145" y="418" type="curve" smooth="yes"/>
      <point x="177" y="580"/>
      <point x="312" y="689"/>
      <point x="501" y="689" type="curve" smooth="yes"/>
      <point x="700" y="689"/>
      <point x="830" y="568"/>
      <point x="830" y="387" type="curve" smooth="yes"/>
      <point x="830" y="360"/>
      <point x="827" y="334"/>
      <point x="822" y="309" type="curve" smooth="yes"/>
      <point x="790" y="147"/>
      <point x="655" y="40"/>
    </contour>
  </outline>
</glyph>
<glyph name="blackCircle" format="2">
  <advance width="928"/>
  <unicode hex="25CF"/>
  <anchor x="484" y="365" name="center"/>
  <outline>
    <contour>
      <point x="465" y="-30" type="curve" smooth="yes"/>
      <point x="227" y="-30"/>
      <point x="47" y="122"/>
      <point x="60" y="363" type="curve" smooth="yes"/>
      <point x="63" y="411"/>
      <point x="68" y="450"/>
      <point x="79" y="483" type="curve" smooth="yes"/>
      <point x="135" y="652"/>
      <point x="302" y="757"/>
      <point x="502" y="757" type="curve" smooth="yes"/>
      <point x="739" y="757"/>
      <point x="920" y="607"/>
      <point x="907" y="366" type="curve" smooth="yes"/>
      <point x="904" y="316"/>
      <point x="898" y="279"/>
      <point x="888" y="244" type="curve" smooth="yes"/>
      <point x="832" y="75"/>
      <point x="666" y="-30"/>
    </contour>
  </outline>
</glyph>
<glyph name="whiteFrowningFace" format="2">
  <advance width="834"/>
  <unicode hex="2639"/>
  <outline>
    <contour>
      <point x="437" y="-10" type="curve" smooth="yes"/>
      <point x="656" y="-10"/>
      <point x="817" y="143"/>
      <point x="817" y="367" type="curve" smooth="yes"/>
      <point x="817" y="585"/>
      <point x="656" y="739"/>
      <point x="437" y="739" type="curve" smooth="yes"/>
      <point x="219" y="739"/>
      <point x="56" y="585"/>
      <point x="56" y="367" type="curve" smooth="yes"/>
      <point x="56" y="143"/>
      <point x="219" y="-10"/>
    </contour>
    <contour>
      <point x="283" y="203" type="line"/>
      <point x="311" y="239"/>
      <point x="369" y="264"/>
      <point x="437" y="264" type="curve" smooth="yes"/>
      <point x="506" y="264"/>
      <point x="564" y="239"/>
      <point x="592" y="203" type="curve"/>
      <point x="647" y="223" type="line"/>
      <point x="617" y="286"/>
      <point x="538" y="333"/>
      <point x="437" y="333" type="curve" smooth="yes"/>
      <point x="335" y="333"/>
      <point x="257" y="286"/>
      <point x="227" y="223" type="curve"/>
    </contour>
    <contour>
      <point x="437" y="65" type="curve" smooth="yes"/>
      <point x="256" y="65"/>
      <point x="136" y="187"/>
      <point x="136" y="367" type="curve" smooth="yes"/>
      <point x="136" y="544"/>
      <point x="256" y="664"/>
      <point x="437" y="664" type="curve" smooth="yes"/>
      <point x="616" y="664"/>
      <point x="738" y="544"/>
      <point x="738" y="367" type="curve" smooth="yes"/>
      <point x="738" y="187"/>
      <point x="616" y="65"/>
    </contour>
    <contour>
      <point x="358" y="391" type="curve" smooth="yes"/>
      <point x="383" y="391"/>
      <point x="399" y="407"/>
      <point x="399" y="436" type="curve" smooth="yes"/>
      <point x="399" y="481" type="line" smooth="yes"/>
      <point x="399" y="510"/>
      <point x="383" y="526"/>
      <point x="358" y="526" type="curve" smooth="yes"/>
      <point x="334" y="526"/>
      <point x="318" y="510"/>
      <point x="318" y="481" type="curve" smooth="yes"/>
      <point x="318" y="436" type="line" smooth="yes"/>
      <point x="318" y="407"/>
      <point x="334" y="391"/>
    </contour>
    <contour>
      <point x="514" y="391" type="curve" smooth="yes"/>
      <point x="539" y="391"/>
      <point x="555" y="407"/>
      <point x="555" y="436" type="curve" smooth="yes"/>
      <point x="555" y="481" type="line" smooth="yes"/>
      <point x="555" y="510"/>
      <point x="539" y="526"/>
      <point x="514" y="526" type="curve" smooth="yes"/>
      <point x="490" y="526"/>
      <point x="474" y="510"/>
      <point x="474" y="481" type="curve" smooth="yes"/>
      <point x="474" y="436" type="line" smooth="yes"/>
      <point x="474" y="407"/>
      <point x="490" y="391"/>
    </contour>
  </outline>
</glyph>
<glyph name="whiteSmilingFace" format="2">
  <advance width="834"/>
  <unicode hex="263A"/>
  <outline>
    <contour>
      <point x="437" y="-10" type="curve" smooth="yes"/>
      <point x="656" y="-10"/>
      <point x="817" y="143"/>
      <point x="817" y="367" type="curve" smooth="yes"/>
      <point x="817" y="585"/>
      <point x="656" y="739"/>
      <point x="437" y="739" type="curve" smooth="yes"/>
      <point x="219" y="739"/>
      <point x="56" y="585"/>
      <point x="56" y="367" type="curve" smooth="yes"/>
      <point x="56" y="143"/>
      <point x="219" y="-10"/>
    </contour>
    <contour>
      <point x="437" y="125" type="curve" smooth="yes"/>
      <point x="553" y="125"/>
      <point x="646" y="195"/>
      <point x="665" y="296" type="curve"/>
      <point x="690" y="296" type="line"/>
      <point x="690" y="333" type="line"/>
      <point x="563" y="333" type="line"/>
      <point x="563" y="296" type="line"/>
      <point x="596" y="296" type="line"/>
      <point x="576" y="234"/>
      <point x="516" y="194"/>
      <point x="437" y="194" type="curve" smooth="yes"/>
      <point x="358" y="194"/>
      <point x="298" y="235"/>
      <point x="280" y="296" type="curve"/>
      <point x="312" y="296" type="line"/>
      <point x="312" y="333" type="line"/>
      <point x="183" y="333" type="line"/>
      <point x="183" y="296" type="line"/>
      <point x="208" y="296" type="line"/>
      <point x="228" y="195"/>
      <point x="321" y="125"/>
    </contour>
    <contour>
      <point x="437" y="65" type="curve" smooth="yes"/>
      <point x="256" y="65"/>
      <point x="136" y="187"/>
      <point x="136" y="367" type="curve" smooth="yes"/>
      <point x="136" y="544"/>
      <point x="256" y="664"/>
      <point x="437" y="664" type="curve" smooth="yes"/>
      <point x="616" y="664"/>
      <point x="738" y="544"/>
      <point x="738" y="367" type="curve" smooth="yes"/>
      <point x="738" y="187"/>
      <point x="616" y="65"/>
    </contour>
    <contour>
      <point x="358" y="391" type="curve" smooth="yes"/>
      <point x="383" y="391"/>
      <point x="399" y="407"/>
      <point x="399" y="436" type="curve" smooth="yes"/>
      <point x="399" y="481" type="line" smooth="yes"/>
      <point x="399" y="510"/>
      <point x="383" y="526"/>
      <point x="358" y="526" type="curve" smooth="yes"/>
      <point x="334" y="526"/>
      <point x="318" y="510"/>
      <point x="318" y="481" type="curve" smooth="yes"/>
      <point x="318" y="436" type="line" smooth="yes"/>
      <point x="318" y="407"/>
      <point x="334" y="391"/>
    </contour>
    <contour>
      <point x="514" y="391" type="curve" smooth="yes"/>
      <point x="539" y="391"/>
      <point x="555" y="407"/>
      <point x="555" y="436" type="curve" smooth="yes"/>
      <point x="555" y="481" type="line" smooth="yes"/>
      <point x="555" y="510"/>
      <point x="539" y="526"/>
      <point x="514" y="526" type="curve" smooth="yes"/>
      <point x="490" y="526"/>
      <point x="474" y="510"/>
      <point x="474" y="481" type="curve" smooth="yes"/>
      <point x="474" y="436" type="line" smooth="yes"/>
      <point x="474" y="407"/>
      <point x="490" y="391"/>
    </contour>
  </outline>
</glyph>
<glyph name="checkmark" format="2">
  <advance width="821"/>
  <unicode hex="2713"/>
  <outline>
    <contour>
      <point x="304" y="42" type="line"/>
      <point x="827" y="526" type="line"/>
      <point x="731" y="680" type="line"/>
      <point x="347" y="297" type="line"/>
      <point x="206" y="473" type="line"/>
      <point x="70" y="369" type="line"/>
    </contour>
  </outline>
</glyph>
<glyph name="fi" format="2">
  <advance width="758"/>
  <unicode hex="FB01"/>
  <anchor x="379" y="0" name="caret_1"/>
  <outline>
    <contour>
      <point x="68" y="0" type="line"/>
      <point x="311" y="0" type="line"/>
      <point x="390" y="383" type="line"/>
      <point x="494" y="383" type="line"/>
      <point x="415" y="0" type="line"/>
      <point x="656" y="0" type="line"/>
      <point x="770" y="545" type="line"/>
      <point x="424" y="545" type="line"/>
      <point x="435" y="597" type="line"/>
      <point x="783" y="597" type="line"/>
      <point x="810" y="729" type="line"/>
      <point x="382" y="729" type="line" smooth="yes"/>
      <point x="284" y="729"/>
      <point x="212" y="684"/>
      <point x="195" y="604" type="curve" smooth="yes"/>
      <point x="184" y="545" type="line"/>
      <point x="81" y="545" type="line"/>
      <point x="48" y="383" type="line"/>
      <point x="149" y="383" type="line"/>
    </contour>
  </outline>
</glyph>
<glyph name="fl" format="2">
  <advance width="859"/>
  <unicode hex="FB02"/>
  <anchor x="429" y="0" name="caret_1"/>
  <outline>
    <contour>
      <point x="68" y="0" type="line"/>
      <point x="311" y="0" type="line"/>
      <point x="390" y="383" type="line"/>
      <point x="512" y="383" type="line"/>
      <point x="546" y="545" type="line"/>
      <point x="424" y="545" type="line"/>
      <point x="435" y="597" type="line"/>
      <point x="640" y="597" type="line"/>
      <point x="516" y="0" type="line"/>
      <point x="757" y="0" type="line"/>
      <point x="910" y="729" type="line"/>
      <point x="382" y="729" type="line" smooth="yes"/>
      <point x="284" y="729"/>
      <point x="212" y="684"/>
      <point x="195" y="604" type="curve" smooth="yes"/>
      <point x="184" y="545" type="line"/>
      <point x="81" y="545" type="line"/>
      <point x="48" y="383" type="line"/>
      <point x="149" y="383" type="line"/>
    </contour>
  </outline>
</glyph>
<glyph name="I.ss04" format="2">
  <advance width="369"/>
  <note>
I
</note>
  <anchor x="128" y="0" name="bottom"/>
  <anchor x="258" y="0" name="ogonek"/>
  <anchor x="280" y="729" name="top"/>
  <anchor x="114" y="729" name="topleft"/>
  <outline>
    <contour>
      <point x="-2" y="0" type="line"/>
      <point x="258" y="0" type="line"/>
      <point x="410" y="729" type="line"/>
      <point x="150" y="729" type="line"/>
    </contour>
  </outline>
</glyph>
<glyph name="_AE.E" format="2">
  <advance width="678"/>
  <anchor x="97" y="0" name="#entry"/>
  <outline>
    <contour>
      <point x="137" y="541" type="line"/>
      <point x="694" y="541" type="line"/>
      <point x="734" y="729" type="line"/>
      <point x="137" y="729" type="line"/>
    </contour>
    <contour>
      <point x="97" y="0" type="line"/>
      <point x="581" y="0" type="line"/>
      <point x="619" y="190" type="line"/>
      <point x="96" y="190" type="line"/>
    </contour>
    <contour>
      <point x="223" y="283" type="line"/>
      <point x="490" y="283" type="line"/>
      <point x="527" y="453" type="line"/>
      <point x="223" y="453" type="line"/>
    </contour>
  </outline>
</glyph>
<glyph name="_Euro.bars" format="2">
  <advance width="677"/>
  <anchor x="559" y="0" name="_bottom"/>
  <outline>
    <contour>
      <point x="629" y="233" type="line"/>
      <point x="652" y="351" type="line"/>
      <point x="327" y="338" type="line"/>
      <point x="308" y="246" type="line"/>
    </contour>
    <contour>
      <point x="32" y="233" type="line"/>
      <point x="308" y="246" type="line"/>
      <point x="327" y="338" type="line"/>
      <point x="57" y="351" type="line"/>
    </contour>
    <contour>
      <point x="64" y="379" type="line"/>
      <point x="337" y="392" type="line"/>
      <point x="355" y="482" type="line"/>
      <point x="87" y="495" type="line"/>
    </contour>
    <contour>
      <point x="660" y="379" type="line"/>
      <point x="683" y="495" type="line"/>
      <point x="355" y="482" type="line"/>
      <point x="337" y="392" type="line"/>
    </contour>
  </outline>
</glyph>
<glyph name="_OE.O" format="2">
  <advance width="836"/>
  <anchor x="539" y="0" name="#exit"/>
  <outline>
    <contour>
      <point x="410" y="0" type="curve" smooth="yes"/>
      <point x="738" y="0" type="line"/>
      <point x="738" y="188" type="line"/>
      <point x="468" y="188" type="line" smooth="yes"/>
      <point x="362" y="188"/>
      <point x="305" y="243"/>
      <point x="327" y="353" type="curve" smooth="yes"/>
      <point x="335" y="393" type="line" smooth="yes"/>
      <point x="354" y="480"/>
      <point x="421" y="541"/>
      <point x="539" y="541" type="curve" smooth="yes"/>
      <point x="735" y="541" type="line"/>
      <point x="735" y="729" type="line"/>
      <point x="518" y="729" type="line" smooth="yes"/>
      <point x="277" y="729"/>
      <point x="93" y="612"/>
      <point x="59" y="403" type="curve" smooth="yes"/>
      <point x="58" y="396" type="line" smooth="yes"/>
      <point x="19" y="160"/>
      <point x="161" y="0"/>
    </contour>
  </outline>
</glyph>
<glyph name="_Stem.Uppercase" format="2">
  <advance width="424"/>
  <outline>
    <contour>
      <point x="38" y="0" type="line"/>
      <point x="300" y="0" type="line"/>
      <point x="428" y="729" type="line"/>
      <point x="166" y="729" type="line"/>
    </contour>
  </outline>
</glyph>
<glyph name="_bitcoin.bars" format="2">
  <advance width="513"/>
  <anchor x="251" y="0" name="_bottom"/>
  <outline>
    <contour>
      <point x="384" y="667" type="line"/>
      <point x="546" y="667" type="line"/>
      <point x="595" y="850" type="line"/>
      <point x="411" y="850" type="line"/>
    </contour>
    <contour>
      <point x="-44" y="-121" type="line"/>
      <point x="140" y="-121" type="line"/>
      <point x="171" y="72" type="line"/>
      <point x="9" y="72" type="line"/>
    </contour>
    <contour>
      <point x="204" y="-121" type="line"/>
      <point x="389" y="-121" type="line"/>
      <point x="421" y="72" type="line"/>
      <point x="257" y="72" type="line"/>
    </contour>
    <contour>
      <point x="135" y="667" type="line"/>
      <point x="296" y="667" type="line"/>
      <point x="346" y="850" type="line"/>
      <point x="163" y="850" type="line"/>
    </contour>
  </outline>
</glyph>
<glyph name="_copyright.C" format="2">
  <advance width="608"/>
  <anchor x="326" y="365" name="_center"/>
  <outline>
    <contour>
      <point x="311" y="118" type="curve" smooth="yes"/>
      <point x="458" y="118"/>
      <point x="562" y="205"/>
      <point x="576" y="312" type="curve"/>
      <point x="401" y="312" type="line"/>
      <point x="390" y="277"/>
      <point x="360" y="261"/>
      <point x="324" y="261" type="curve" smooth="yes"/>
      <point x="268" y="261"/>
      <point x="227" y="291"/>
      <point x="239" y="351" type="curve" smooth="yes"/>
      <point x="249" y="397" type="line" smooth="yes"/>
      <point x="259" y="444"/>
      <point x="293" y="468"/>
      <point x="339" y="468" type="curve" smooth="yes"/>
      <point x="380" y="468"/>
      <point x="415" y="450"/>
      <point x="419" y="415" type="curve"/>
      <point x="593" y="415" type="line"/>
      <point x="581" y="533"/>
      <point x="480" y="610"/>
      <point x="342" y="610" type="curve" smooth="yes"/>
      <point x="203" y="610"/>
      <point x="96" y="538"/>
      <point x="70" y="414" type="curve" smooth="yes"/>
      <point x="64" y="384" type="line" smooth="yes"/>
      <point x="34" y="241"/>
      <point x="126" y="118"/>
    </contour>
  </outline>
</glyph>
<glyph name="_dollar.bar" format="2">
  <advance width="320"/>
  <anchor x="112" y="0" name="_bottom"/>
  <outline>
    <contour>
      <point x="-25" y="-121" type="line"/>
      <point x="196" y="-121" type="line"/>
      <point x="220" y="60" type="line"/>
      <point x="25" y="60" type="line"/>
    </contour>
    <contour>
      <point x="142" y="691" type="line"/>
      <point x="338" y="691" type="line"/>
      <point x="384" y="850" type="line"/>
      <point x="163" y="850" type="line"/>
    </contour>
  </outline>
</glyph>
<glyph name=".notdef" format="2">
  <advance width="882"/>
  <outline>
    <contour>
      <point x="458" y="738" type="curve" smooth="yes"/>
      <point x="246" y="738"/>
      <point x="76" y="567"/>
      <point x="76" y="356" type="curve" smooth="yes"/>
      <point x="76" y="186"/>
      <point x="184" y="41"/>
      <point x="338" y="-8" type="curve"/>
      <point x="352" y="-12"/>
      <point x="363" y="-5"/>
      <point x="363" y="10" type="curve" smooth="yes"/>
      <point x="363" y="19"/>
      <point x="363" y="48"/>
      <point x="363" y="80" type="curve"/>
      <point x="257" y="58"/>
      <point x="233" y="126"/>
      <point x="233" y="126" type="curve"/>
      <point x="217" y="171"/>
      <point x="193" y="182"/>
      <point x="193" y="182" type="curve"/>
      <point x="158" y="206"/>
      <point x="194" y="206"/>
      <point x="194" y="206" type="curve"/>
      <point x="232" y="203"/>
      <point x="254" y="165"/>
      <point x="254" y="165" type="curve"/>
      <point x="286" y="107"/>
      <point x="342" y="125"/>
      <point x="363" y="134" type="curve"/>
      <point x="367" y="158"/>
      <point x="378" y="176"/>
      <point x="389" y="186" type="curve"/>
      <point x="303" y="196"/>
      <point x="214" y="228"/>
      <point x="214" y="376" type="curve" smooth="yes"/>
      <point x="214" y="416"/>
      <point x="229" y="451"/>
      <point x="254" y="477" type="curve"/>
      <point x="250" y="487"/>
      <point x="236" y="526"/>
      <point x="258" y="579" type="curve"/>
      <point x="258" y="579"/>
      <point x="289" y="590"/>
      <point x="362" y="539" type="curve"/>
      <point x="394" y="549"/>
      <point x="426" y="553"/>
      <point x="458" y="553" type="curve" smooth="yes"/>
      <point x="491" y="553"/>
      <point x="523" y="549"/>
      <point x="555" y="539" type="curve"/>
      <point x="628" y="590"/>
      <point x="659" y="579"/>
      <point x="659" y="579" type="curve"/>
      <point x="681" y="526"/>
      <point x="667" y="487"/>
      <point x="663" y="477" type="curve"/>
      <point x="688" y="451"/>
      <point x="703" y="416"/>
      <point x="703" y="376" type="curve" smooth="yes"/>
      <point x="703" y="226"/>
      <point x="614" y="196"/>
      <point x="528" y="186" type="curve"/>
      <point x="541" y="175"/>
      <point x="554" y="150"/>
      <point x="554" y="115" type="curve" smooth="yes"/>
      <point x="554" y="65"/>
      <point x="554" y="21"/>
      <point x="554" y="10" type="curve" smooth="yes"/>
      <point x="554" y="-5"/>
      <point x="565" y="-12"/>
      <point x="581" y="-8" type="curve"/>
      <point x="733" y="41"/>
      <point x="841" y="186"/>
      <point x="841" y="356" type="curve" smooth="yes"/>
      <point x="841" y="567"/>
      <point x="671" y="738"/>
    </contour>
    <contour>
      <point x="222" y="189" type="line"/>
      <point x="221" y="186"/>
      <point x="217" y="186"/>
      <point x="214" y="187" type="curve"/>
      <point x="211" y="189"/>
      <point x="210" y="190"/>
      <point x="211" y="192" type="curve"/>
      <point x="211" y="194"/>
      <point x="214" y="196"/>
      <point x="217" y="192" type="curve"/>
      <point x="221" y="192"/>
      <point x="222" y="190"/>
      <point x="222" y="189" type="curve"/>
    </contour>
    <contour>
      <point x="235" y="171" type="line"/>
      <point x="233" y="168"/>
      <point x="231" y="171"/>
      <point x="228" y="172" type="curve"/>
      <point x="225" y="175"/>
      <point x="225" y="179"/>
      <point x="226" y="180" type="curve"/>
      <point x="229" y="182"/>
      <point x="232" y="182"/>
      <point x="235" y="179" type="curve"/>
      <point x="236" y="176"/>
      <point x="237" y="172"/>
      <point x="235" y="171" type="curve"/>
    </contour>
    <contour>
      <point x="253" y="148" type="line"/>
      <point x="250" y="146"/>
      <point x="244" y="148"/>
      <point x="242" y="151" type="curve"/>
      <point x="240" y="154"/>
      <point x="240" y="160"/>
      <point x="242" y="161" type="curve"/>
      <point x="244" y="162"/>
      <point x="250" y="161"/>
      <point x="253" y="158" type="curve"/>
      <point x="254" y="154"/>
      <point x="254" y="150"/>
      <point x="253" y="148" type="curve"/>
    </contour>
    <contour>
      <point x="272" y="127" type="line"/>
      <point x="270" y="125"/>
      <point x="265" y="126"/>
      <point x="263" y="129" type="curve"/>
      <point x="260" y="132"/>
      <point x="258" y="136"/>
      <point x="260" y="139" type="curve"/>
      <point x="263" y="141"/>
      <point x="267" y="140"/>
      <point x="270" y="137" type="curve"/>
      <point x="272" y="134"/>
      <point x="274" y="129"/>
      <point x="272" y="127" type="curve"/>
    </contour>
    <contour>
      <point x="300" y="115" type="line"/>
      <point x="299" y="112"/>
      <point x="295" y="111"/>
      <point x="290" y="112" type="curve"/>
      <point x="286" y="114"/>
      <point x="285" y="116"/>
      <point x="285" y="120" type="curve"/>
      <point x="286" y="123"/>
      <point x="289" y="125"/>
      <point x="295" y="123" type="curve"/>
      <point x="297" y="122"/>
      <point x="300" y="118"/>
      <point x="300" y="115" type="curve"/>
    </contour>
    <contour>
      <point x="331" y="114" type="line"/>
      <point x="331" y="111"/>
      <point x="328" y="107"/>
      <point x="324" y="105" type="curve"/>
      <point x="320" y="105"/>
      <point x="317" y="111"/>
      <point x="317" y="114" type="curve"/>
      <point x="317" y="116"/>
      <point x="320" y="118"/>
      <point x="324" y="118" type="curve"/>
      <point x="328" y="118"/>
      <point x="331" y="116"/>
      <point x="331" y="114" type="curve"/>
    </contour>
    <contour>
      <point x="360" y="118" type="line"/>
      <point x="362" y="115"/>
      <point x="357" y="112"/>
      <point x="353" y="111" type="curve"/>
      <point x="349" y="111"/>
      <point x="345" y="112"/>
      <point x="345" y="115" type="curve"/>
      <point x="343" y="118"/>
      <point x="346" y="122"/>
      <point x="352" y="122" type="curve"/>
      <point x="356" y="123"/>
      <point x="360" y="120"/>
      <point x="360" y="118" type="curve"/>
    </contour>
  </outline>
</glyph>
